<mxfile host="Electron" modified="2024-10-27T02:52:15.747Z" agent="Mozilla/5.0 (Windows NT 10.0; Win64; x64) AppleWebKit/537.36 (KHTML, like Gecko) draw.io/22.0.0 Chrome/114.0.5735.289 Electron/25.8.3 Safari/537.36" etag="HfGV2TNkaPCxQgz9SNvq" version="22.0.0" type="device">
  <diagram name="Ibidi 12-well" id="lLw1JiAmEbKDpHH6qeVp">
    <mxGraphModel dx="2880" dy="1693" grid="1" gridSize="10" guides="1" tooltips="1" connect="1" arrows="1" fold="1" page="1" pageScale="1" pageWidth="1100" pageHeight="850" math="0" shadow="0">
      <root>
        <mxCell id="0" />
        <mxCell id="1" parent="0" />
        <mxCell id="9qyq4fIX46D_IWaDwKsb-1" value="" style="shape=image;aspect=fixed;image=data:image/png,iVBORw0KGgoAAAANSUhEUgAABLAAAANICAYAAADXRxY1AAAAAXNSR0IArs4c6QAAIABJREFUeF7s3Qd4VVXWxvFFID0QQui9IyBNAQFBEVSw966jIpZBbOhYUcdex66jqGMfe52xAgqIBVF6770khBIS0pPveRdz8wWkJEDg3tz/eR4eITn3nH1++zBjXtdeu1JRUVGRcSCAAAIIIIAAAggggAACCCCAAAIIIBCkApUIsIJ0ZhgWAggggAACCCCAAAIIIIAAAggggIALEGDxIiCAAAIIIIAAAggggAACCCCAAAIIBLUAAVZQTw+DQwABBBBAAAEEEEAAAQQQQAABBBAgwOIdQAABBBBAAAEEEEAAAQQQQAABBBAIagECrKCeHgaHAAIIIIAAAggggAACCCCAAAIIIECAxTuAAAIIIIAAAggggAACCCCAAAIIIBDUAgRYQT09DA4BBBBAAAEEEEAAAQQQQAABBBBAgACLdwABBBBAAAEEEEAAAQQQQAABBBBAIKgFCLCCenoYHAIIIIAAAggggAACCCCAAAIIIIAAARbvAAIIIIAAAggggAACCCCAAAIIIIBAUAsQYAX19DA4BBBAAAEEEEAAAQQQQAABBBBAAAECLN4BBBBAAAEEEEAAAQQQQAABBBBAAIGgFiDACurpYXAIIIAAAggggAACCCCAAAIIIIAAAgRYvAMIIIAAAggggAACCCCAAAIIIIAAAkEtQIAV1NPD4BBAAAEEEEAAAQQQQAABBBBAAAEECLB4BxBAAAEEEEAAAQQQQAABBBBAAAEEglqAACuop4fBIYAAAggggAACCCCAAAIIIIAAAggQYPEOIIAAAggggAACCCCAAAIIIIAAAggEtQABVlBPD4NDAAEEEEAAAQQQQAABBBBAAAEEECDA4h1AAAEEEEAAAQQQQAABBBBAAAEEEAhqAQKsoJ4eBocAAggggAACCCCAAAIIIIAAAgggQIDFO4AAAggggAACCCCAAAIIIIAAAgggENQCBFhBPT0MDgEEEEAAAQQQQAABBBBAAAEEEECAAIt3AAEEEEAAAQQQQAABBBBAAAEEEEAgqAUIsIJ6ehgcAggggAACCCCAAAIIIIAAAggggAABFu8AAggggAACCCCAAAIIIIAAAggggEBQCxBgBfX0MDgEEEAAAQQQQAABBBBAAAEEEEAAAQIs3gEEEEAAAQQQQAABBBBAAAEEEEAAgaAWIMAK6ulhcAgggAACCCCAAAIIIIAAAggggAACBFi8AwgggAACCCCAAAIIIIAAAggggAACQS1AgBXU08PgEEAAAQQQQAABBBBAAAEEEEAAAQQIsHgHEEAAAQQQQAABBBBAAAEEEEAAAQSCWoAAK6inh8EhgAACCCCAAAIIIIAAAggggAACCBBg8Q4ggAACCCCAAAIIIIAAAggggAACCAS1AAFWUE8Pg0MAAQQQQAABBBBAAAEEEEAAAQQQIMDiHUAAAQQQQAABBBBAAAEEEEAAAQQQCGoBAqygnh4GhwACCCCAAAIIIIAAAggggAACCCBAgMU7gAACCCCAAAIIIIAAAggggAACCCAQ1AIEWEE9PQwOAQQQQAABBBBAAAEEEEAAAQQQQIAAi3cAAQQQQAABBBBAAAEEEEAAAQQQQCCoBQiwgnp6GBwCCCCAAAIIIIAAAggggAACCCCAAAEW7wACCCCAAAIIIIAAAggggAACCCCAQFALEGAF9fQwOAQQQAABBBBAAAEEEEAAAQQQQAABAizeAQQQQAABBBBAAAEEEEAAAQQQQACBoBYgwArq6WFwCCCAAAIIIIAAAggggAACCCCAAAIEWLwDCCCAAAIIIIAAAggggAACCCCAAAJBLUCAFdTTw+AQQAABBBBAAAEEEEAAAQQQQAABBAiweAcQQAABBBBAAAEEEEAAAQQQQAABBIJagAArqKeHwSGAAAIIIIAAAggggAACCCCAAAIIEGDxDiCAAAIIIIAAAggggAACCCCAAAIIBLUAAVZQTw+DQwABBBBAAAEEEEAAAQQQQAABBBAgwOIdQAABBBBAAAEEEEAAAQQQQAABBBAIagECrKCeHgaHAAIIIIAAAggggAACCCCAAAIIIECAxTuAAAIIIIAAAggggAACCCCAAAIIIBDUAgRYQT09DA4BBBBAAAEEEEAAAQQQQAABBBBAgACLdwABBBBAAAEEEEAAAQQQQAABBBBAIKgFCLCCenoYHAIIIIAAAggggAACCCCAAAIIIIAAARbvAAIIIIAAAggggAACCCCAAAIIIIBAUAsQYAX19DA4BBBAAAEEEEAAAQQQQAABBBBAAAECLN4BBBBAAAEEEEAAAQQQQAABBBBAAIGgFiDACurpYXAIIIAAAggggAACCCCAAAIIIIAAAgRYvAMIIIAAAggggAACCCCAAAIIIIAAAkEtQIAV1NPD4BBAAAEEEEAAAQQQQAABBBBAAAEECLB4BxBAAAEEEEAAAQQQQAABBBBAAAEEglqAACuop4fBIYAAAggggAACCCCAAAIIIIAAAggQYPEOIIAAAggggAACCCCAAAIIIIAAAggEtQABVlBPD4NDAAEEEEAAAQQQQAABBBBAAAEEECDA4h1AAAEEEEAAAQQQQAABBBBAAAEEEAhqAQKsoJ4eBocAAggggAACCCCAAAIIIIAAAgggQIDFO4AAAggggAACCCCAAAIIIIAAAgggENQCBFhBPT0MDgEEEEAAAQQQQAABBBBAAAEEEECAAIt3AAEEEEAAAQQQQAABBBBAAAEEEEAgqAUIsIJ6ehgcAggggAACCCCAAAIIIIAAAggggAABFu8AAggggAACCCCAAAIIIIAAAggggEBQCxBgBfX0MDgEEEAAAQQQQAABBBBAAAEEEEAAAQIs3gEEEEAAAQQQQAABBBBAAAEEEEAAgaAWIMAK6ulhcAgggAACCCCAAAIIIIAAAggggAACBFi8AwgggAACCCCAAAIIIIAAAggggAACQS1AgBXU08PgEEAAAQQQQAABBBBAAAEEEEAAAQQIsHgHEEAAAQQQQAABBBBAAAEEEEAAAQSCWoAAK6inh8EhgAACCCCAAAIIIIAAAggggAACCBBg8Q4ggAACCCCAAAIIIIAAAggggAACCAS1AAFWUE8Pg0MAAQQQQAABBBBAAAEEEEAAAQQQIMDiHUAAAQQQQAABBBBAAAEEEEAAAQQQCGoBAqygnh4GhwACCCCAAAIIIIAAAggggAACCCBAgMU7gAACCCCAAAIIIIAAAggggAACCCAQ1AIEWEE9PQwOAQQQQAABBBBAAAEEEEAAAQQQQIAAi3cAAQQQQAABBBBAAAEEEEAAAQQQQCCoBQiwgnp6GBwCCCCAAAIIIIAAAggggAACCCCAAAEW7wACCCCAAAIIIIAAAggggAACCCCAQFALEGAF9fQwOAQQQAABBBBAAAEEEEAAAQQQQAABAizeAQQQQAABBBBAAAEEEEAAAQQQQACBoBYgwArq6WFwCCCAAAIIIIAAAggggAACCCCAAAIEWLwDCCCAAAIIIIAAAggggAACCCCAAAJBLUCAFdTTw+AQQAABBBBAAAEEEEAAAQQQQAABBAiweAcQQAABBBBAAAEEEEAAAQRKLZCbm2ubNm2yVatW2fLlyy0hIcG6detm8fHxu71GQUGBpaWl2Zo1a6xy5cpWq1YtS0pKssjIyN1+lhMQQCC8BQiwwnv+eXoEEEAAAQQQQAABBBBAoNQCS5YssY8//tj+85//WFFRkXXu3NkOP/xwGzhwoFWrVm2X18nPz7d3333X3nnnHatSpYqfqyBs8ODBdvrpp1vVqlVLPQ5ORACB8BMgwAq/OeeJEUAAAQQQQAABBBBAAIEyC/z00092991327x58+ySSy6xCy64wFq1amURERGluta//vUvu/POO+28886zm266yT/34osv2ksvvWQPPPCAX49KrFJRchICYSlAgBWW085DI4AAAggggAACCCCAAAKlF5g0aZKdf/75vmRQIdR1111nsbGxpb7AokWL7JhjjrEtW7bY999/b23btvXPrlixwo4//niv5ho5cqTVrVu31NfkRAQQCC8BAqzwmm+eFgEEEEAAAQQQQAABBBAok4BCKy3zU8B03HHH+RLCmJiYUl9D4ZQqrO6//36v2Jo6dWpx1VZmZqbdeOONXoX1zDPP2DXXXFPq63IiAgiElwABVnjNN0+LAAIIIIAAAggggAACCJRaIC8vz1544QW7/fbbrXr16jZmzBgPocpyqM/VoEGD7JNPPrGLLrrI3nzzzeKPqy/WU089ZX/729/syCOP9OvrKCwstNWrV3uj+Pbt21tUVJQtXLjQ1q1bZ8nJydasWTOLjo72yi19Tb259PuGDRta/fr1txmevq7G8fq8Kr/UbH7lypVe/RUXF2ctW7b0RvQ6MjIybP78+aZG9XXq1LGmTZuW5VE5FwEEylGAAKsccbk0AggggAACCCCAAAIIIBDKAikpKV51pSWEt9xyiw0fPtwWL15s2dnZHvxoB8HdHbNmzbJLL73UfvvtN7v33nt9CWLJ44033rDLLrvMQyoFSzNmzLDvvvvOz9+8ebM9+eSTNnbsWPv8888tNTXVAyydrzDshx9+8D5aCxYs8ACrdevWPsZDDz3Ub6FqL13r559/tjlz5thrr73m5ypEW7p0qS+DPOmkk3xJpP78j3/8wzTenJwcD7Buu+02GzBgwO4eke8jgMB+ECDA2g/I3AIBBBBAAAEEEEAAAQQQCEUB9as69thjraCgwK644gobPXq0VympQkq7Dt5xxx3e0L1SpUo7fbwJEyZ4gDV79uwdLhP88MMP/ftaTvj777+bAq2vvvrKK6ZUGdWzZ0//Xo8ePezHH3+0iRMneqXVzTffbI899pj16dPHlzR+8MEH3mNL43n22We9ukrnjB8/3n799VcPuM4++2wfh3ZOVJA1atQoD+G0RFI7KyoAa9Sokd9fQV2HDh1s3LhxXn3GgQACB1aAAOvA+nN3BBBAAAEEEEAAAQQQQCBoBYYNG+YVUKpU6tevnwc9CoteeeUV++KLL/z3zz33nF144YU73Y1QywIVUGmZnyqgFDCVPLS0UN9PT0+3X375xYMqLVtU+KQlhkOGDPHdDxMTE23NmjXe9H3y5MnWpEkTU/jVrVs3v9yIESPsyiuvtO7du9vrr79e3Che1Vu6p+6vajKNXcsMFcINHDjQe3vVrl3b+3Cdeuqpfq2vv/7ad0VUMPfee+95A3oOBBA4sAIEWAfWn7sjgAACCCCAAAIIIIAAAkErcNppp9lnn31mZ5xxhr366qseIunQ0sITTjjBK6a0xE7fa9CgwQ6fQ8v8FFBpiZ6W7mnpX8nj008/9e+rV5aqpVQdFQiQtKxQVWDt2rXzj6gSS0sZn3/+eXvooYfs1ltvLb6UAir1xtK5CrACwZaWJOr6Gmvg+oEP/fOf//SATAGXmshXrVrVv7V27VpfhqgljFqieN555wXtHDEwBMJFgAArXGaa50QAAQQQQAABBBBAAAEEyijQq1cvr4pSj6gHH3zQl+UFDi3fU5WUmrorMNK5Ozr0eQVIc+fO9aBLDd1LHh999JEHSAqndI6W8alvlUKjQICl5us6srKy7K677rLHH3/8T/20FDrVrVvXDjroIK/0UiWXjpI9uNQLS0sSA8fbb7/tgZp+KRQLBFgbN260jh07mv6pr28fupWRkdMRQGAfCBBg7QNELoEAAggggAACCCCAAAIIVEQB9b/SErurrrrKQyPt4Bc41CC9c+fOHhopwNpZs/Np06Z5QKVlfwq9brrppm2oFCLp+1rSp8BIvbVKE2Ddc889HmYFjr0JsLQEUssWCbAq4lvMM1UUAQKsijKTPAcCCCCAAAIIIIAAAgggsI8F1Lj95Zdf9t5Qqmoq2cw8LS3NatasaU2bNvXv9e3bd4d3X7dunVddqUn61Vdf7T2zAoeaw6vh+g033GBdu3b1Bu06CLD28URyOQQqgAABVgWYRB4BAQQQQAABBBBAAAEEECgPAfWnOvPMM72vlCqxVG0VONRQvV69et40XQFWoE/V9uPQ7n+qlHr00Ud9WZ96YkVERPhp2jVQyxBV/fTwww/77wmwymMmuSYCoS9AgBX6c8gTIIAAAggggAACCCCAAALlIrBq1So7+eSTbfr06aZeVSeddFLxfRRunX322aYqLS0v1E6FOTk5pl3/qlSpYr179/YeVjq03FBN33Xo+y1atPDfp6am+q6CapauXQ3V/0rHN998Y+eff75/ftSoUXbwwQf719UDa/jw4fbEE094KKZlhIFj5cqV1rBhQ7+GljQGel3NnDnTlyiqibvufcQRRxR/RuepP5fupYbuWr6oQ9VlWh6pxvKqELv44ovLxZeLIoBA6QUIsEpvxZkIIIAAAggggAACCCCAQFgJaInfG2+84Uv8GjVqZGPGjPFlg+vXr/dlhYsXL/YdAwMBk8Kmc845xyusFEJpJz8d6m+lXf5uu+02u/POO333QJ2ja6tBvIIo7QYYGRnp52u3wqFDh/qf3333XVMvLh0KunSe+mapb9Vbb71VPB9q0K4dDLfvybWrJvL33nuv3X333davXz/74IMPLDk52a83e/Zs/5p6cv3973/3nQ85EEDgwAoQYB1Yf+6OAAIIIIAAAggggAACCAS1QHZ2tlc8aTc+BTz9+/f3iixVPClo6tatW/H4P/nkEw+WKlWqZF999ZUdeeSR2zybAiMFUkcffbRFR0d7aHTBBRfYHXfcYQkJCaZ76Rq6l3YPVMil3lhaWpiUlGSfffaZjRgxwiu99L1rrrnGTjzxRB/LQw895LsY6tBnVHWlz2h54+jRo01LGVWhpXtpueO4ceN8Z0VVdWm85557ro9FYdtTTz3l1VoK8Jo0aWKXXXaZ/yq5C2NQTxqDQ6ACChBgVcBJ5ZEQQAABBBBAAAEEEEAAgX0poFBHDdZVzaRldY0bN/alf3Xq1NnmNunp6d70XUv/1Li95K6FOjE/P9+X8v34448eDin8UsilJYc6FEz9+uuvXvlU8lCIpMBr3rx523y9cuXK1qxZM68I06+Sh3YUVOCk3QlLHjVq1PBxz58/38ez/X0UdC1btmybr2t5pJYexsTE7EtWroUAAmUQIMAqAxanIoAAAggggAACCCCAAAIIIIAAAgjsfwECrP1vzh0RQAABBBBAAAEEEEAAAQQQQAABBMogQIBVBixORQABBBBAAAEEEEAAAQQQQAABBBDY/wIEWPvfnDsigAACCCCAAAIIIIAAAggggAACCJRBgACrDFicigACCCCAAAIIIIAAAggggAACCCCw/wUIsPa/OXdEAAEEEEAAAQQQQAABBBBAAAEEECiDAAFWGbA4FQEEEEAAAQQQQAABBBBAAAEEEEBg/wsQYO1/c+6IAAIIIIAAAggggAACCCCAAAIIIFAGAQKsMmBxKgIIIIAAAggggAACCCCAwFaB33//3XJzc6179+5WpUoVWBBAAIFyFSDAKldeLo4AAggggAACCCCAAAIIVDyBadOm2bBhwywvL8/uuece69u3b8V7SJ4IAQSCSoAAK6img8EggAACCCCAAAIIIIAAAsEvMHLkSLvlllssOzvbhg4dakOGDAn+QTNCBBAIaQECrJCePgaPAAIIIIAAAggggAACCOx/AQKs/W/OHREIdwECrHB/A3h+BBBAAAEEEEAAAQQQQKCMAgRYZQTjdAQQ2GsBAqy9JuQCCCCAAAIIIIAAAggggEB4CRBghdd887QIBIMAAVYwzAJjQAABBBBAAAEEEEAAAQRCSIAAK4Qmi6EiUEEECLAqyETyGAgggAACCCCAAAIIIIDA/hIgwNpf0twHAQQCAgRYvAsIIIAAAggggAACCCCAAAJlEiDAKhMXJyOAwD4QIMDaB4hcAgEEEEAAAQQQQAABBBAIJwECrHCabZ4VgeAQIMAKjnlgFAgggAACCCCAAAIIIIBAyAgQYIXMVDFQBCqMAAFWhZlKHgQBBBBAAAEEEEAAAQQQ2DuB/Px8mzFjhq1Zs8aKiop2erFp06bZ22+/bXl5eTZgwAAbOHDgLm+cnJxsXbp0scjIyL0bIJ9GAIGwFSDACtup58ERQAABBBBAAAEEEEAAgW0FUlNT7ZJLLrHly5fvkqagoMByc3M95KpSpYpFRUXtNsB65ZVXrEWLFpAjgAACeyRAgLVHbHwIAQQQQAABBBBAAAEEEKh4AitXrrT+/fubKrH29fH+++/boYceuq8vy/UQQCBMBAiwwmSieUwEEEAAAQQQQAABBBBAYHcCCrD69etnqrAaPny4HXLIIbv7yC6/n5KSYldddZWf895771nXrl336np8GAEEwleAACt8554nRwABBBBAAAEEEEAAAQS2ESgZYKnHVY8ePfZKSNfr27evLzUkwNorSj6MQNgLEGCF/SsAAAIIIIAAAggggAACCCCwVYAAizcBAQSCVYAAK1hnhnEhgAACCCCAAAIIIIAAAvtZgABrP4NzOwQQKLUAAVapqTgRAQQQQAABBBBAAAEEEKjYAgRYFXt+eToEQlmAACuUZ4+xI4AAAggggAACCCCAAAL7UIAAax9icikEENinAgRY+5STiyGAAAIIIIAAAggggAACoStAgBW6c8fIEajoAgRYFX2GeT4EEEAAAQQQQAABBBBAoJQCBFilhOI0BBDY7wIEWPudnBsigAACCCCAAAIIIIAAAsEpQIAVnPPCqBBAwIwAi7cAAQQQQAABBBBAAAEEEEDABdLS0uzOO++0wsJCGzZsmLVu3XqvZHS94cOHW1FRkd10003WsmXLvboeH0YAgfAVIMAK37nnyRFAAAEEEEAAAQQQQACBbQQUXGVkZPjX4uLirEqVKnslVPJ68fHxVrly5b26Hh9GAIHwFSDACt+558kRQAABBBBAAAEEEEAAAQQQQACBkBAgwAqJaWKQCCCAAAIIIIAAAggggAACCCCAQPgKEGCF79zz5AgggAACCCCAAAIIIIAAAggggEBICBBghcQ0MUgEEEAAAQQQQAABBBBAAAEEEEAgfAUIsMJ37nlyBBBAAAEEEEAAAQQQQAABBBBAICQECLBCYpoYJAIIIIAAAggggAACCCCAAAIIIBC+AgRY4Tv3PDkCCCCAAAIIIIAAAggggAACCCAQEgIEWCExTQwSAQQQQAABBBBAAAEEECh/gc2bN9vo0aNtxowZlpeXZ5UqVdrjmxYWFlpSUpL16NHDDjnkEIuOjt7ja/FBBBBAgACLdwABBBBAAAEEEEAAAQQQQMBSUlLsssGX2+L0SlZUs61Vik4w24sAq6ioyCx7k0WnTrezjz/SrrvuOouNjUUaAQQQ2CMBAqw9YuNDCCCAAAIIIIAAAggggEDFEVDl1fkXXGhzi5pZfOdTrVJE5X32cAWbUy3951ftoRv+Yueec84ur5uTk2ObNm0q1b1VHVa9enWLjIws1fmchAACoS1AgBXa88foEUAAAQQQQAABBBBAAIG9Fvjss89s+FOvW2Sf6/dpeBUYWO6a2RY/6z0bN+rrXS4lHDdunN19992leh4FV0OGDLFTTz21VOdzEgIIhLYAAVZozx+jRwABBBBAAAEEEEAAAQT2WuC+++6zd6dusZj2x+/1tXZ0gaKCPEt9/3r7/suPrHXr1ju9xzfffGNDhw4t9Rj69u1rr7zySqnPL+2JqkibOHGizZkzx7KysuyEE06wgw46qFQf37hxo02YMMHWrl1rTZo08R5g9P8qFR0nIbBLAQIsXhAEEEAAAQQQQAABBBBAIMwFVPX08YJoi2rZp9wkUj8cZv999xXr1KnTTu+xbNkyGzt27C7HsGHDBvv8889t6dKl1qdPH3vttdf22Zjz8/Pt22+/tQcffNCWLFliJ510kodXPXv2tJo1a+72PhrT5ZdfbgrA2rVrZ6oo69Wrl91///3WqFGj3X6eExBAYOcCBFi8HQgggAACCCCAAAIIIIBAmAt4gLUwxqJa9C43idQPb7Qv33vFOnbsuFf3WLNmjd188832888/79MAKyMjw5588kl75JFHfNfE5557rkxjTUtLs2OOOcbi4uLs1VdftTZt2tjUqVM9ADv66KPt6aeftsTExL16dj6MQDgLEGCF8+zz7AgggAACCCCAAAIIIICAmfedCucAa/369XbPPffY888/Xxw2KYAq7aHKrWHDhtnLL79sd955p91+++3+0ezsbPv73//uwZgqxc4///zSXpLzEEBgOwECLF4JBBBAAAEEEEAAAQQQQCDMBcI5wMrNzfWA6d577/VdDd977z2v7CrLMX36dDv++OMtMzPT/v3vf9vAgQP940VFRfbxxx/b4MGDrWHDhl6RVbnyvtvhsSxj5FwEQl2AACvUZ5DxI4AAAggggAACCCCAAAJ7KRDOAdZvv/1mgwYNspkzZ3qQdc0115Q5ZHrppZfsxhtvtGrVqnnfq5YtWxbPyE8//WSXXHKJLVy40H7//Xdfnhg4FHjl5eV5cKZD/b106M+VKlUqPi8nJ8e0RLFu3boWERGxw9lWtVd6errVrl3bv6/fqwG9/lzyWqoWU8VZUlKSaSdHDgRCRYAAK1RminEigAACCCCAAAIIIIAAAuUkEK4BloIhNWxX9ZUCnblz53rVlEKlKlWqeCAVGxu7S3Wd/9e//tWXD6rKSteIiYkp/sy0adPs0ksvtUmTJtlDDz1kV1xxhSk0e+utt+zrr7+2G264wY499lgbPny4jRo1yncsvPDCC70Xl8KmZ5991hSQrVu3zurVq+dfP++883x8CsBU/fXuu+/aO++8Y/369fOG8TpHf9ZzHHXUUfbUU0/5joiqDnv44Ye9QX18fLzdcsst3k+MXRLL6S8Wl92nAgRY+5STiyGAAAIIIIAAAggggAACoScQrgGWQqFTTjnFG8J369bNDjvsMJs9e7ZXSyngOfnkk+2yyy6zFi1a7HRSFYKpwkqvEjHiAAAgAElEQVRLD1V5NW/evG0qnubPn+/f1z2uvPJK69u3r73yyiv2448/eljWu3dvq1q1qodlCpx++OEHD6s0J3PmzPFqqfr169uCBQv8Mx06dLDXX3/dK7nGjx9vjz/+uP9TFVr6WuvWrf06CQkJNmbMGNPOjgrEFFJpbM2aNbO1a9f6fRS0aSxnnnlm6L20jDjsBAiwwm7KeWAEEEAAAQQQQAABBBBAYFuBUA2w2rVr50v+dneoMkrBzvb9pxQuderUyZutq3pJlU116tSxRYsWeaWSgqS//OUvXjlVq1atHd5m48aNHlB9/vnnHi6p4qrkoWupAktLC8855xx74403bPHixda/f3/Tjoq6rxq/KzxT8KQKKoVSycnJduutt/pntHRQ19FuhikpKfavf/3Lzj33XD9f11AF2JdffukB2mOPPeYhmQKs999/3++tME7h2eWXX25Nmzb1AOuss86yCRMm2NVXX+07JHIgEOwCBFjBPkOMDwEEEEAAAQQQQAABBBAoZ4FQDbC0jC4uLm63Our1pN0AjzvuuG3OVYWSltip+klVTO3bt/ceU1q698ILL9h1113nPaS0g6CatO/oUN8qhUQKsFTFpeWBJQ+FVQq4FGApNPrggw+88qpjx46mAE1LB++4447iqi1dR9eLioqy5cuXb9On6vTTT7dPP/3Ud0u86qqrfKy61pAhQ2zEiBF22mmn+fUDfbJWrFhhvXr1ss2bN9sff/xhzZs3Lx6adk1Uzy+Fdno+lhHu9jXihAMsQIB1gCeA2yOAAAIIIIAAAggggAACB1ogVAOs0ropwFKl0dChQ7f5iJb9KcBRfygt8dNSvcCxadMm7zmlRuiPPvqo96pSYLb9oe8rcFK1k0Ip7TRY8tDSPwVYauauoEnhkw5VfmlJn+xVaRU4vvrqK7+eqqu0fLDkobFqzM8884xfK1BRpmd78cUXPSDT9wPH6tWr7cgjjzT9c9asWdaoUaPi7912221eZaYKLy1JLNm3q7SunIfA/hQgwNqf2twLAQQQQAABBBBAAAEEEAhCgVANsLTc7/DDD9+tqIKo888/35cHljz++9//2kknneRL9LRDYIMGDbb5vpbijR071m6//Xa76667dlilVFhY6Ev41EuqcePGHkqV3N1PTdYVSKkCSg3jFRwRYO12yjgBgT8JEGDxUiCAAAIIIIAAAggggAACYS4QqgFWnz59fPnbnh7qV9W1a1f/+MyZM61Vq1bbXEr9r7RboPpSabe+ksFUyRPVQ0ohl3Yy1BLCkpVcquxSBZaWC6oJu5q2E2Dt6YzxuXAWIMAK59nn2RFAAAEEEEAAAQQQQAABM1/G9vHCGItqsTVcKY8j9cMb7cv3XvFldntzqGm5wiQFQ3sbYKmZ+bHHHuuN1z/55BPvIVXyUKN09aR6+eWX7YILLthmd8GS56kZuiq51I9KPaoCIZXO+eKLLzzAio2NtaVLlxYvQ2QJ4d68BXw2HAUIsMJx1nlmBBBAAAEEEEAAAQQQQKCEQLgGWNp98L777rNHHnnETjnlFO9jFehzlZuba126dPHeUK+++qp17tzZtFxQuwCmpaWZdjZMTEx0RQVXZ599tql/lZYJXnvttR52qY+VdgWUrxqml+zBpR0LVZWlHQjVxD1waDdBLTnU/bXDYclD/arUpP2pp57yawV6YGkJY6CJ+0cffVT8EfW+UpimoE49sLTEMXDccsst3ttL41YPLAVsHAgEswABVjDPDmNDAAEEEEAAAQQQQAABBPaDQLgGWKJV03U1QZ84caIHVdrpT4HU22+/bX/7299898JrrrnGlw+qqboqsUaOHGk33XSTN0EPHAqIFDCpn5YaqmvHP137iiuusFq1atmbb75pycnJfrqCpe7du/s/Bw8e7IGUgrKCggJfEqndD3NycmzOnDnWsmVL/0xmZqapJ5d6den7Csq0A6OazQ8aNMgryLQccvTo0b6roo4pU6ZYv379/JzvvvvO+vfv719XcKfn0Gf0Nd2zZIP3/fDKcQsEyixAgFVmMj6AAAIIIIAAAggggAACCFQsAYU0H86PtOiWR5Tbg6W8f4N9/eFrpsqjvTn25RJCjUOhkXYIfOihh2zy5Mm+a58CLO0eqJBH4ZB6W+lITU21E0880ftcaVng9v23xo8f79VcumaLFi1MDdzVOF79sfTcuu4PP/zgOxF+/fXXHlKpkuuMM87wKiyN4fvvvy/eyVBjUR8u3V9LE1Uhpsos9dgaMGCAf04VWd98841XhinQUkWVArdvv/3Wg7YxY8b4fQ855BA74YQT7Pjjj/cwTbsVbtiwwapXr+4hl5ZlHnbYYXszNXwWgXIVIMAqV14ujgACCCCAAAIIIIAAAggEv8Czzz5rL45eaNGdziiXwRZmp1vqxzfbtAnjiquQ9vRG+zrA0ji0NFDL9ebOneu7CKqCSYGPdi+MiooqHqqCKe0mOGnSJA+yFD6VPHSddevW2ezZs23hwoXWpk0ba9++vV8vIiLCg6TNmzf7vXRu4FB1l4IuPVt+fv4210xISPBljenp6dt8RtfTEkZ9XeMKHFpWqEovfV2VViUPPYs+o+Cq5H203LFmzZoWHx+/p9PC5xAodwECrHIn5gYIIIAAAggggAACCCCAQHALqPJo8JDrLb/ndVY5oaZZpUr7bMBFhfmWNWe0dU9YY2++9sour6uKJC1329WhSiPtCqildHvbxH2fPSQXQgCBchcgwCp3Ym6AAAIIIIAAAggggAACCAS3gCqDtKzt5Y9GWV7jPla5Wh2rVEWVR3sTZBVZUV625afMs2ZFS+zxe2+3du3a7RJi7Nixdtddd+3yHDVGVwWR/kmAFdzvFaNDYF8KEGDtS02uhQACCCCAAAIIIIAAAgiEqICqn0aOHGVfjhpjsxevtrzCSr6T3p4eRUWFlhgfY13bNbPTTz7Be0AFds3b2TXVy6nkTn27u/d5553nuwhyIIBAxRcgwKr4c8wTIoAAAggggAACCCCAAAKlElAlVkZGhmVlZXm/pr09FFipr5J22CtNGLZ8+XJTI/TSHOrnpObjgQbrpfkM5yCAQOgKEGCF7twxcgQQQAABBBBAAAEEEEAAAQQQQCAsBAiwwmKaeUgEEEAAAQQQQAABBBBAAAEEEEAgdAUIsEJ37hg5AggggAACCCCAAAIIIIAAAgggEBYCBFhhMc08JAIIIIAAAggggAACCCCAAAIIIBC6AgRYoTt3jBwBBBBAAAEEEEAAAQQQQAABBBAICwECrLCYZh4SAQQQQAABBBBAAAEEEEAAAQQQCF0BAqzQnTtGjgACCCCAAAIIIIAAAggggAACCISFAAFWWEwzD4kAAggggAACCCCAAAIIIIAAAgiErgABVujOHSNHAAEEEEAAAQQQQAABBBBAAAEEwkKAACssppmHRAABBBBAAAEEEEAAAQQQQAABBEJXgAArdOeOkSOAAAIIIIAAAggggAACCCCAAAJhIUCAFRbTzEMigAACCCCAAAIIIIAAAggggAACoStAgBW6c8fIEUAAAQQQQAABBBBAAAEEEEAAgbAQIMAKi2nmIRFAAAEEEEAAAQQQQAABBBBAAIHQFSDACt25Y+QIIIAAAggggAACCCCAAAIIIIBAWAgQYIXFNPOQCCCAAAIIIIAAAggggAACCCCAQOgKEGCF7twxcgQQQAABBBBAAAEEEEAAAQQQQCAsBAiwwmKaeUgEEEAAAQQQQAABBBBAAAEEEEAgdAUIsEJ37hg5AggggAACCCCAAAIIIIAAAgggEBYCBFhhMc08JAIIIIAAAggggAACCCCAAAIIIBC6AgRYoTt3jBwBBBBAAAEEEEAAAQQQQAABBBAICwECrLCYZh4SAQQQQAABBBBAAAEEEEAAAQQQCF0BAqzQnTtGjgACCCCAAAIIIIAAAggggAACCISFAAFWWEwzD4kAAggggAACCCCAAAIIIIAAAgiErgABVujOHSNHAAEEEEAAAQQQQAABBBBAAAEEwkKAACssppmHRAABBBBAAAEEEEAAAQQQQAABBEJXgAArdOeOkSOAAAIIIIAAAggggAACCCCAAAJhIUCAFRbTzEMigAACCCCAAAIIIIAAAggggAACoStAgBW6c8fIEUAAAQQQQAABBBBAAAEEEEAAgbAQIMAKi2nmIRFAAAEEEEAAAQQQQAABBBBAAIHQFSDACt25Y+QIIIAAAggggAACCCCAAAIIIIBAWAgQYIXFNPOQCCCAAAIIIIAAAggggAACCCCAQOgKEGCF7twxcgQQQAABBBBAAAEEEEAAAQQQQCAsBAiwwmKaeUgEEEAAAQQQQAABBBBAAAEEEEAgdAUIsEJ37hg5AggggAACCCCAAAIIIIAAAgggEBYCBFhhMc08JAIIIIAAAggggAACCCCAAAIIIBC6AgRYoTt3jBwBBBBAAAEEEEAAAQQQQAABBBAICwECrLCYZh4SAQQQQAABBBBAAAEEEEAAAQQQCF0BAqzQnTtGjgACCCCAAAIIIIAAAggggAACCISFAAFWWEwzD4kAAggggAACCCCAAAIIIIAAAgiErgABVujOHSNHAAEEEEAAAQQQQAABBBBAAAEEwkKAACssppmHRAABBBBAAAEEEEAAAQQQQAABBEJXgAArdOeOkSOAAAIIIIAAAggggAACCCCAAAJhIUCAFRbTzEMigAACCCCAAAIIIIAAAggggAACoStAgBW6c8fIEUAAAQQQQAABBBBAAAEEEEAAgbAQIMAKi2nmIRFAAAEEEEAAAQQQQAABBBBAAIHQFSDACt25Y+QIIIAAAggggAACCCCAAAIIIIBAWAgQYIXFNPOQCCCAAAIIIIAAAggggAACCCCAQOgKEGCF7twxcgQQQAABBBBAAAEEEEAAAQQQQCAsBAiwwmKaeUgEEEAAAQQQQAABBBBAAAEEEEAgdAUIsEJ37hg5AggggAACCCCAAAIIIIAAAgggEBYCBFhhMc08JAIIIIAAAggggAACCCCAAAIIIBC6AgRYoTt3jBwBBBBAAAEEEEAgjATy8/MtNzfXioqKtnnqypUrW0xMTKklCgsLLSsr60/nR0ZGWlRUVKmvw4kIIIAAAgjsTwECrP2pzb0QQAABBBBAAAEEENhDge+++86+/PJLU5BV8jjqqKPszDPPLPVVf//9d3vttde2Ob9SpUp28sknW//+/U2BGAcCCCCAAALBJkCAFWwzwngQQAABBBBAAAEEENhOICUlxYYMGWKffvqpqYIqcFSpUsV++OEH6927d6nMVL114okn2ldffbXN+Q0aNLARI0bYcccdZwqzOBBAAAEEEAg2AQKsYJsRxoMAAggggAACCCCAwHYCCpweeOABu+yyy6xatWrF342Li7MBAwaUumrq+++/t/POO8/uv/9+S0pKKr5OcnKydevWzRISErBHAAEEEEAgKAUIsIJyWhgUAggggAACCCCAAAJbBTIyMmzYsGFWv359u+222yw6OnqPaHJycuyEE06wZs2a2csvv7xH1+BDCCCAAAIIHCgBAqwDJc99EUAAAQQQQAABBBAohYB6Vp1xxhl2+umn+/K/du3aWb169UrxyW1P+c9//mN/+ctfbNCgQXb88cdb+/btrU6dOjtdMqilitnZ2aYqLx3qvaUQTH8uucxQyxL1dfXOUiP4HR2BcxS+6bMFBQX+GTWfj4iI2OYjalSve5elMX2ZMfgAAggggEDICRBghdyUMWAEEEAAAQQQQACBcBK46KKL7O233zb1u6pbt6516tTJlwGeeuqpFh8fXyqKjRs32rXXXmv//ve//XxVc3Xs2NGvo18lQySFVj/99JONGjXKw6Z7773XxowZY5988omtW7fOmjdvbldccYX/c8GCBT62uXPneuA0cOBAO+ecc4rHpCDqjz/+sJEjR9r69ett+PDhtmzZMnvrrbf8n1q6qGt17tzZVq9ebe+9954psNN9e/XqZZdccklxgFaqB+UkBBBAAIEKK0CAVWGnlgdDAAEEEEAAAQQQCHUBLR+89NJLbebMmbZw4UJTdZLCnerVq9sNN9xgN910k8XGxu72MRctWmSPPfaYjR8/3q+liihdp2rVqh4SPf744149pbBJFVorV6609PR0O+SQQ+zCCy/0nlkKwVQ1pfMuuOACrwq79dZbTdfOy8vzqipd7/333/cga/78+d54furUqbZ582Zr2rSpXXfddX4thVkKyjQGBXJPPvmkj0FBme6hai9Vej3xxBMecHEggAACCCBAgMU7gAACCCCAAAIIIIBAkAsocFKApZ0C33jjDa+E0pI9/V4VVGU5lixZYi+++KJXTqnqSZVT9913n4dLCshUGaU/v/POOx6Ode/e3R5++GGvknrkkUfsnnvuscTERKtVq5Zdc801NnjwYFuxYoVdeeWVHkApvFLTeQVRGqf6bekzUVFR1rp1a79W//797cMPP/TPb9myxau51J9LPb503s0332yvvPKKnz9r1qyyPB7nIoAAAghUUAECrAo6sTwWAggggAACCCCAQMUU+O2337zy6ueff7YmTZp4hVNZdw9UtdSPP/5ot9xyi+l6PXv2tNdee83atGnj1VmvvvqqXXXVVV41pSV9qvjSoVBK91Q1liqmdI6WNupQtZSWCKo/15w5c4r7Yen3Wq5Ys2ZNX0qo3ls6VLXVu3dvv756cz377LPFz6Hli6oMW7NmjTexpx9WxXyXeSoEEECgLAIEWGXR4lwEEEAAAQQQQAABBA6wgPpKjR492q6++mpfpqff9+vXb49GpfDq2GOP9bBJAZaaxOtQrywtXezSpYv9+uuv21xbywoVSun8kv2u9Gf12UpKSvJlilpOqEMVXW3btrVGjRp5hZb6eAUONab/4osv/Fmefvrp4q8rnFOApedTFZd6ZXEggAACCIS3AAFWeM8/T48AAggggAACCCAQggKqhFJ/qddff93++c9/7nGfKFVbaemgrqEASv2udhdgdevWzaZPn+73Pvfcc4v19GcFWKrWmjFjhlWrVm23AdaZZ55pn376qT+LKrAChwIsBWjz5s0jwArB95MhI4AAAuUhQIBVHqpcEwEEEEAAAQQQQACBchZ48MEHfYdA9bJSELSnh3pdaSmgAqzAdXZVgUWAtafSfA4BBBBAYG8ECLD2Ro/PIoAAAggggAACCCBwAARUOXX33Xfbc8895z2sWrZsucejUEN39a9SBVWvXr38OgRYe8zJBxFAAAEEykmAAKucYLksAggggAACCCCAAALlJaC+Updffrk3TFflVKVKlYpvlZ2d7TsUqq/V7o7MzEzfNbBZs2b2zDPPFDdrDwRY2nlwwoQJ21yma9euvkRw+yWEGoeWI5ZlCeEZZ5xhn3322S6XEKampnoDeA4EEEAAgfAWIMAK7/nn6RFAAAEEEEAAAQSCWEDLA/Vr0KBBdsopp1h0dLQpdLrrrru8ubq+p/ApcCgMGjZsmPXo0cMeffRRa9iwoWnHwc8//9zP1W5/p556qp+u3f2uv/56b6yu7wd2B9T3FE5ddtllXtk1d+7cbYS0U+HChQt9p8KLL764+HsvvPCC3XzzzR5g/fHHH1anTh3/3qJFi6x169bevF3VYvXr1y/+zIABA3xnQj3fyy+/XBzEjR071pu4L1myxBYvXuy7IXIgECoC2sRAf9/0d1Z/F/f00CYG+nuljRaOO+64Pb0Mn0OgwggQYFWYqeRBEEAAAQQQQAABBCqawEUXXWTvvvuuRURE+A/CHTp08HAoKirK/vGPf5iqoUpWX5111ln20UcfeeCjiqi+ffuaKrLuu+8+D7Ty8/Pt8MMP97Bq8uTJpqWIOu/ggw92On1/wYIFduedd/p1dG2FW3369DHtfjh+/Hg77bTT/PeqntJ1W7Ro4UHT7bff7g3Z4+LiTP25zj//fFOzee0uqHvrWs8//7x/Lj4+3n7//XdvAr9mzRrTzoZ6np49e1pKSoqHYw899JDl5ubajTfe6MGYdiJUZRkHAsEssGHDBhs6dKgvw/3Xv/7lmxHsybFx40YPwFQBqb9bCq05EAh3AQKscH8DeH4EEEAAAQQQQACBoBVQBYaCHVUx6VB10xFHHOFVVKqu2v74+OOPvS+WAiqFPo0bN/ZTZs2a5TsNzpkzx/9cq1Yt73elAKnk8jwt11NwpB/CA4fCMlV/KAgbPXq0h1yBQ0HU3/72NxsxYoStXr3aAzEdCpoUlGncK1asKD5fIVaXLl1MjeDffPNNy8rKKv5eTEyMX0s/+KvqSiGZjsBnVD2WmJgYtHPFwBDQ+6+luPq7p/B1TwOsLVu2+N97/V3U3wMCLN4tBLYKEGDxJiCAAAIIIIAAAgggEMQCeXl5XpWkIEcBjkKjnR36AXrp0qVWtWpVr1gqeSiAWrdunV9HQZgqpUpWbwUxAUNDICQEvv/+e7vwwgt92a7+zu5JgKW/w1pWqypIVUmq+pIAKySmn0HuBwECrP2AzC0QQAABBBBAAAEEEEAAAQQqrsCqVau8UrFjx46m5X///e9/9yjASktL8+W3qpBUXziFzgRYFfe94cnKJkCAVTYvzkYAAQQQQAABBBBAAAEEEECgWEBLYW+99Vb75ZdfvGecemB98sknZQ6wVLmlvnLqNffSSy958/aVK1f+KcBSNWV6err3ntOmClp+q6BLu5OqulIbJVSrVs3Ht379eq8G0xhr167tmylUqVKleOyq8NS1dB99T5WbupaW/mr5sHY6DVRz6jx9T9fU0mPdRxtLcCCwvwQIsPaXNPdBAAEEEEAAAQQQQAABBBCoUAIKndR77sknn/S+Ve3atfMdPPckwNIuotoZ9Nlnn7WTTjrJN0jYPsD65ptvbNy4cfbtt9/atGnTPDDTroeq1tLuoJGRkXbBBRfYHXfc4b3vNK6ff/7Ze9g1aNDAHnnkEa/w0vJhBW7a8fO7777zHULVP0/963T/KVOmeL87bQTx+OOP+4YMutZXX33lO6Eq1FLPOvX7YilyhXqlg/phCLCCenoYHAIIIIAAAggggAACCCCAQLAKqOfcoEGDbODAgXbttdd6pdOeBFhTp0714EkbKygUUvXTjgIsbXLw9ddf24cffuih0jHHHOPBlHYp1UYK2vFTFVYDBgwwLUdUFZfCJoVs2oShefPm3mNLGzx8+eWXXu2l4CojI8N69+7tlVVHHXWUB14KrFRxpa+r/542h2jdurX9+OOP9t5773lwpV0SFdpxILA/BAiw9ocy90AAAQQQQAABBBBAAAEEEKhwAhdddJFt3rzZXnzxRV+Cp/5XZQ2w9BmFX1qap2AqNjbWnXYUYKkqSpVTgwcPtnnz5tldd91lw4YN840btBxwyJAhvnTxsMMO86qsgw46yAOtX3/91U455RSvqnrnnXe8X5d+r4DqvPPOszFjxtill15qjz32mC9D1O6H2gXx7rvvtmbNmtkTTzzhIZ2WK6rSS8+o6i0tdbziiisq3LzyQMEpQIAVnPPCqBBAAAEEEEAAAQQQQAABBIJUQEsHX3/9dQ943n33XevTp4+PtKwBlq7z5ptv2lNPPWUfffSRtWrVqviJdxRg6ZtaGqiwScv+tDywZ8+exZ9ReKVwSd9/+umnPdjSoXCsU6dOtmnTJnv++edNwZsO9bW66qqr/BlU3aUwK3BoV8X+/ft7Q/nXXnvNq690aAmhrq+wTbsl3nvvvUE6SwyrogkQYFW0GeV5EEAAAQQQQAABBBBAAAEEylVg0qRJdtppp/lyO/WtChyqxvr73/9uCn/uueceO/nkk61GjRq+ZG9Hh6qZzjrrLA/ALrzwQu9hFTjUB2vt2rUeSF155ZVWq1YtXy64qwDr7bff9nBK13rhhReKAywFa4EdEksbYGl5ocalai6Fdarm0rFlyxYPsD744AMCrHJ9y7j49gIEWLwTCCCAAAIIIIAAAggggAACCJRBQOGQelUpUIqLiyv+pCqqtBugKp0UWim8UhC1syqlUaNG2fHHH+/nBqqlAhdTUKVlgXXq1PHliWq+rsbpBFhlmChOrVACBFgVajp5GAQQQAABBBBAAAEEEEAAgfIWUM8rLZ9TNdL2h5qrK8hSI3b1n1I1lHpF7ehQQ/VTTz11h99TQ/iioiKvytKvq6++2pu0E2CV9+xy/WAVIMAK1plhXAgggAACCCCAAAIIhLGAfnBXOKAwQIcaW6uBtHY+K+uhawSChsB1ynoNzkegNAK764Gl91q/IiIidnu5PemBtb+XEA4fPtzuu+++3T4LJyCwLwQIsPaFItdAAAEEEEAAAQQQQACBfSagyhPttKYm0fPnz/fQSv17zj77bO/HU5Zj9uzZ9sknn9iSJUs8OKhfv773HGrfvn2pQoSy3ItzEdhVgKXlgJ999pllZGR4c/Sd9cUKKO4swJo+fbr3oPrjjz+815b6cAWOQBP3c845x0aMGGHVqlXzb6WmptohhxziTebV3H3QoEH+dS11vPzyy/3vmj6r6waOQBP3rl27eg8s/Z3RoT5fOu/jjz/2ZZSPPPIIE4/AfhEgwNovzNwEAQQQQCAYBTK3ZNusBctN/zysc2uLjYkOxmEyJgQQQCCsBLT06r///a/dcsstXjWlH/pTUlI8fGrXrp29//77xT9I7w5GS63++te/WkJCgg0dOtSXcz3xxBOWnZ3tS7H0g/meVHTt7r58P3wFdhVgKXg6/PDD/Z3W+6d3U+/kzo4dBVj6e/D11197U/cVK1Z4w3gtZVRFV2FhoTd8V9ikwPfzzz+3pk2b+uVHjx5tCrUUPl177bVeNaWKxqVLl3qj+WnTptkll1xir7zyilWuXNmvpXN0/YYNG5qWTKpXl/6+zJkzxwOsX3/91Y455hgPsrbv3xW+bwBPXp4CBFjlqcu1EUAAAQSCUmDV2vU26qfJ9tPEWbZu/SYrLCyyxg1q2SVnHWDQmykAACAASURBVGOd2ja3iIiyL08JygdlUAgggEAICqSlpdngwYO90kpNq/WD9FtvvWWPP/64paen2zXXXGPPPPPMbp9MIZV+4J46dappWdXAgQP9h2+FCKp+6devn/clSkxM3O21OAGB0gqUDLDefPNN3xEwcKgKUDv5KYTSO6z3XGHR7gIsBVR33HGHn3bTTTfZe++9Z6tXr/a/G6qwOuOMM/ydVsj0+++/e0Cr6yp4GjJkiJ+npvMrV6703ytsUpCmiiztJLh48WLv2aVAq3v37v53TBVZ33zzjf+dUzhWu3Ztu/jii61Lly52991326JFizyIU58vfe0f//iHX5MDgfIUIMAqT12ujQACCCBwwAX0L4nZOXmWkZll0+cusW/HTbJps7f+i5p+kNn6L45Flp9fYDHRkXZUr0529gl9rHbN6ha5i/8qesAfjAEggAACFVRg5syZ9sYbb/iubfqBWod+iNYP+x999JENGDDAK1B2d/z73//2Cpfk5GSbMWNG8U5xChi0fEpVXt9+++02y692d02+j8DeCmhJ65o1azwoio+P39vL8XkEwkqAACusppuHRQABBMJHIDcv31asTrVFy9batDmLbcrMBbYmdaMDREdHWr06taxGUjWLjY2xosIiS0lJteWrUi0nN89qJSfacX27Wq9D21nj+rWsSpWd/9fR8BHlSRFAINQFFOiruknVF9HRwbtkWuPMzc390xhVeaLePddff7099thju5wONW3Xjm2vvfaaV159+eWXxefrew8++KAHZH/5y188LCt5aNmigjNVnQQayevP21fK6Dr6DyGqQNnZoWvJWp8NXEt/3n7ZmCpZ9B9W9D2WNIb637Q/j189r6ZMmeLvgKqUStPAveIp8EQI7L0AAdbeG3IFBBBAAIEgEdC/GKakbbQpMxfZlNmLbMnytbZyTZpl5+T6DwS1kqtb+7YtrG3rZtawfl0rsiJbtGSFV1rVrBpts+YtsQlT5tqqtWkWUamSNWtc1/p0b28Dj+xqSYkJQfKUDAMBBBDYM4Eff/zR3nnnHWvZsqVdd911FhkZuWcXOgCfUt+eK664wsaPH28jR470ZVi7OrQkSj16xo4d6720Hn744eLT9f8V6vOjHkJaFrV8+XJfVqUeQN999503e7/rrru8SkZVXOoz1KBBA+8P1KlTJ2+CrSWNEydO9M9pGZbGFugBpK+p8byupUb0Wm4lay1jVHWZ+nFpydexxx7rn9dysDFjxpga1zdv3tyGDRvmVWMcFUfgp59+8iWACj1fffVV7+XGgQACZRcgwCq7GZ9AAAEEEAgyAf0womWBWh44fc4SS8/I9GWD+rrCqXZtmlnvnl2sdctmFh8XY1FRkR5orV67zmbMnGtWWGAd2zTxHyQ2Z2bZxClz7Pufp1mu93aoYrVrVLfzT+1rR/XsZJUr737b6yDjYTgIIICAC9xzzz0eYNWsWdObPLdu3TokZPS/zV988YWHSqq8UvCzuyol7c6mwElLB9WbR6FQyUOhkQIuBQrqkXXbbbd5IKUd2dRTSOerekvhlaqoVDHVt29fe/75533HtsmTJ3vglJ+f78GVQrLbb7/dx6WqrlGjRvm1dI52dlP/IS0dy8zM9GEcfPDB/izqkaSljBqHfinoUkNt9SWiSickXs9SDVK7YOod0b+XqCn6hRdeWKrPcRICCGwrQIDFG4EAAgggEHICBYWFlpWVY+vWp9vPk2bbt2P/sNUp6/05tEwjJibKkhKr2mGHdrDDe3S2mslJ/kOF/sVRvwry8yx7yxZbsWK1zV+0zCIjq9ghB7faxmH9xs329Q8Tbe6i5ZaVrWUiEdalfQu78LSjrEWT+t4viwMBBBAIJQFtd68fpKtXr27PPfec9ejRI6iHr3BITac//fRT3w1NYZB6WqmiSSHTrg5VmymgWrhwoTdqV4VUyUO7pun7quxS02uFemoSr3MVmGl3QgVSagKvSiqFUhs2bPDKmT59+viub1pWqCouNbs+6qijPBRs3LixV3SpR5cCC1Vrqarqxhtv9Gbeqgw77rjjvAF3kyZN/D6qDqtXr5498sgjvjOdnu2rr76yQw89NKjnh8GVXkDvm94HHcOHD/dwlQMBBMouQIBVdjM+gQACCCBwAAQUPKVnbLFlK1NtwZJVNmnGAps5f5k3Z9eRWDXBGtSvbc2a1Lf2bVtam5ZNvdJKR2FBgeXn5Vpebq7lZmdbXm6O7zy4OiXN5i1a4YFXjy5t//RUefn5Nm/RSps4da4tXLrag6xqVePtqB4d7MgeHaxVswYW/b97HAASbokAAgiUSSDUAqy1a9d6n6o5c+b4L4U++v8CNWDXDm67aoD9/fffe0C1bNky73GlAKrkoVBM31eV1Lhx4zyUUrina6vaShVQ2qVQhxrIayc3Va8psFI1VaA6Sn2NtANbx44dvWJLywl1qEJLIYWWJWq5YcmKG1XCqQpHQZa+F1guqLBN41DFl5aZaZkhR8UQIMCqGPPIUxx4AQKsAz8HjAABBBBAYBcC2h1w4bLVNmnGQps9f5ktXbnW1q7b6AGUKqeaNqpnB7drZS2bNbL69WpZUlKiVf5f4928nBzLzdkaWOXn5XmQVVCgZYJbbFN6pldtLVuV6tVUXTu2tlo1Ev2a2x+ZW7Jt/pJVNnHqHA+yNKb6dZKtR5eDbGDfQ61Jg9q7Xc7CJCOAAAIHWiDUAixVQmnJnaqYVCWlCqlff/3VK8i0BPCYY47ZKal6ZSlAUiikZXqqfip5lKzAUgil3laqtDrvvPO8KbsCsLZtt/6HDVV+qeJKSxHvv/9+72UUONQnS9VT6smlACtQ1TZr1iwPyH777Tf7+eefrWfPnsWfUaCmsSlUUyVcoHeWKrwUhClU01LF7cd8oN8f7r/nAgRYe27HJxEoKUCAxfuAAAIIIBCUAluysm3shBn2/U9TbOnKVNOftbOgjoT4WOvRraP17NrR6tWrZbExMcU7BRbk51v2lkzLycrypYKBZYO5uXmWkrbJtDRQv9cyRFVvpa7f5H2yGtWvaXGxMdagbk2rXi3+T4GU7x6VlWMz5y21b8ZOtPTNW6xK5cpWI6mqndivu51x3OE7DL+CEpdBIYBAWAqEWoBVcpIUZqkR9umnn+6hliqztCvhzo6SPbCeffZZGzp06Danvvvuu8U9sFTZVbdu3V0GWOq/pQBN1VP6feBQlZg+W5YAS83cFU6pKkvVXIEAS0GdAiz9kwCrYv0VJcCqWPPJ0xw4AQKsA2fPnRFAAAEESggonMrMyvadA7//aaqN+22GL9nTERUZaXGx0daoYV1vxt61c7vibcs9oCos9CqrrMxMr7jSn/XDTn5BgW3OyLLUtI22afMWD7MqmVlE5QgPn6omxHlT9ozMbMvOyfHqLPXKqlG9qjWsV9Oio6IsIkKf2PbIzs61kT9Oskkz5vuYVQ3WqF4tu/TsY7xPlsa6uwbDTD4CCCCwvwVCOcAKWKkn1ejRo73pupbh7ezQToKqgNLufupl9cADDxSfqv8vePnll305YJ06dWzVqlW+JHBXFVgEWPv7ba1Y9yPAqljzydMcOAECrANnz50RQACBsBdQwJSatsmWrkyxWfOW2R/T59viFWt9iZ6WAdaqmWQNG9SxVi0aW4e2La1B/Tr+Q8bWRuz5W/ta/W+ZoC8RLCyy7Nxcb/CuCqlNm7UbYa4763OxMVEWHxtj1arGWWLV+OKKKV1v/abNPhYFXgUFBV6VVbtmda+wiov5cyBVWFRky1el2G9T5trsBcv8fjHRUda9cxs7pncX63BQUw+yOBBAAIFgEagIAdZ1113nu/o99dRTdtlll+2UNjc316uu1EtKu/qp51Xg0G5/agqvUEs7Co4YMcK/RYAVLG9qxRsHAVbFm1Oe6MAIEGAdGHfuigACCIS1gJbiTZu92CbPXOi9pZatTPEG7TpUFdWmVVNrf1BLa9KortWvW9vi42P9e+phpSbsqrJSYKUlgqq0UrP1TelbLH1zpldEZWXn+td1KFRKrBrnzddjY6L9zzuqqtK5qgLbmJ5pKes2+PJCVVEphEqqXtXqJFff4RJBBWQK4CZNn28z5i6xnNw8r+DqcnALG3jkoda+VZPi5Y1hPek8PAIIHHCBUA+w9L/rJ510kk2fPt1GjRplrVu3LjZVYKVD/asCh0IDhVy1a9e2iRMnWmJion9LS/Quvvhi++GHH+w///mPHXnkkaUOsFT1pV0QA0egB1abNm18F8KSPbDU50r31dLHXr16FX9GjdvV/0pLCLVUMLCjYskeWOqNtX3j+QP+AjGAPRYgwNpjOj6IwDYCBFi8EAgggAAC+0VAVU4rVq+zkeMn2/iJs2xjeoYvEdSyPR0N69W2Iw4/1Dod3MaqV6/6v6Bpa7WVKq2yMjIsLyfbe1dpiWBRkXlfrJS0jbZxU4YvFywsKLQiMw+eqiXEWe3k6lY1IdYDpMCOUbt7WL9fQaGtW7/JVq1J83BMgZeWE6o/liqyIirtYFlhTq4tWbHWvhv7uy1fvc5vo15afbodbBed0c8rvjgQQACBAykQKgGWelLpB36FQdrhr3Llys42cuRIu+CCC3zp4FVXXVX8v+tq1K7m69HR0d7cvUGDBn6+Kq1UfaVG6gqXTjnlFP/6zJkz7fDDD7fTTjvNdzMM9KD6/PPPvbl6ZGSkffnll9atWzc/X7sCyk5h04033ui9sALH/PnzPUhr3ry5N3E/4ogj/FtqDK8ljPqnrqWlj4Hjn//8p+9qqH5eqiYLBGtayti9e3cP2NQwXkscOSqGAAFWxZhHnuLACxBgHfg5YAQIIIBAhRRQEKTqJC3JmzJ7kY0cN8lmzFta3GdKlVBVq8Zb+4Na2JG9DrEWzRsXO+i/sqvaKic7y3IyMy0vL9eDKQVUCpQUfqWmpXuA5X2tKlXyJYdRUVW8+qlWcnWLjorca1eNf/nqVN+xUMsadZ/qiQnWUI3joyN3GIqpiuvXSbNt3G/TLSMjy4O1xGrxdvHp/a3PYQdb1fjYUodpe/0AXAABBBAoIRAqAdZDDz3kO/1VqVLFTjzxRA+aFO4oYFLos33zdjVFD1QrffXVVzZw4MDip05NTfU/a+dC7SCosErhl0IqVTm1b9/eK3Z1fS0rVAilwExB1fXXX+8VXXPnzvXrz5kzx5o0aWK6h0IyBWQPP/ywPfnkkx6eqS/X4MGD/doK0rRzYXp6up111lm+5FH3Xr9+vYdtv/zyi1eGvfPOO3booYf6ePUc6telwEzP+eCDD3owFgjweJlDV4AAK3TnjpEHlwABVnDNB6NBAAEEQl5AVVUr16TZ4uVrbeqsRb5McN2GdA+atISvbp2a1rhhXWvXprm1bdPckqpX82fWDxAFeXmWl5vrSwTV26qwsMADr6ycHMvcor5WmZaeoUCrwD8TWaWyxcREW3xcjFc4ebXV//5L/b6CVK+rTZsyfAfDzZlbPMhSRVet5ERLTkr0JYY7qshavzHdfpk0x2bOW+K9tXRO+9ZNbMCRh1rXjq0sKTFhXw2R6yCAAAKlEgiVAGvatGn22GOPFTdXV/CjJXqnnnqqde3a9U+Bzrx58zxwUnD09NNPW6NGjbbxWLZsmfe5mj17tuXl5VnLli2991Xbtm39vIyMDHvppZds1qxZxcvPFRodffTRlpSU5MFZVlZW8TUTEhLsuOOOM1V+qcIqsGRd/5FD40xOTrYJEyZYfv7WnXP19Q4dOljnzp09/Fq3bmuVrg7dRwGbrqFlkRpf4NBzKKwLLDEs1SRzUlAKEGAF5bQwqBAUIMAKwUljyAgggEAwCqxdt9GbsE+fs8QWLV9jK1ev855S+hf3OrVr2MEHtfTeVmrKXrd2TQ+Bti4PzCsOrLwRe0G+f13VT6p8Um8s9czSnwPVVgqNAoFVbEyMV1vtYFXfPmVScKXKLy1ZVFWZWZHFREd7xVedWtV9p8Ttj7z8Alu9Ns2DvInT5vpzqAKrXavGdnSfLtajy0H7pFJsnz4oF0MAgQorECoBliZAVUhpaWn+/yEKjBTi7GwpuMIfVVrp3Jo1a+7wPIVJqn7SuTpH1V0cCOwvAQKs/SXNfSq6AAFWRZ9hng8BBBAoRwE1LJ82Z4l9N+4PmzFniWVm5XgTcwVN2sWvQ7sWdkSvQ615s0YWFxfjIY9+wNAPELnZWZaVmeEB1taeVkX+de0c6LsBZmo3wML//6/hEREeFtVM3lr1VDlCfa3+3IuqHB/X+25ph0JVlK1YnerVWKqsioyKtAZ1k61WjUR/vj8FWXn5lrphky+jnDV/6zLKhLgY69i2mV10xtHWvFGdHX6uPJ+FayOAQPgJhFKAFX6zwxNXZAECrIo8uzzb/hQgwNqf2twLAQQQCHEBhTdbsnNt/YbNNnbCdPvhl6m2am2aBzuVK0eYqqFq1axuhx1ysPU8rLPVSNq645PCqaKiQg+rsjO3WE72Fu9xpa8rzFGlVtqGTR4M5eRsXT7hfa38mtFWs0Y1X65XpXJE0AiqF9fyVam2fmOGLxNRblUtId4a1q9l8VpWGPHnsepZtaTwux8nWdr6dO/nFR8bY6cc28NOOrqH75aoyjQOBMJNoDAvz3LWrLaclDVW7eBOFhEdvUOCgqwsy9uw3nLWrrHIpBoWXau2VY6L0/9glIksb9NGK8zO3uYzumeVaolW6X9/d4vy803naVwFOTkWU6euRam6JzqmTPcKppMJsIJpNhhLOAkQYIXTbPOs5SlAgFWeulwbAQQQqAACap6uXf6WrUyxeYtX2uQZC2363CVeaaXqo8RqCVa/Xm1r1rSBdWjb0qut1KBdR0F+vodWebk5XnHl1VZFRZaXl29Z2bmWsSXLK642Z2yxwsKtzdijIqt4aJUQH+PXVsCzvyutSjtt6o+VvnmLpaZt9OcI9MeqWUP9sartdOyZWdk2ccpcmzZ7sa1KSfPPNapfy044qpsddshBVq92jR321SrtuDgPgVARKMzNsYz582zDLz/Z2u++tirVqlmHx56xyKSkPz2CQquVH/zb0mfPspj6DSw3NcWi69S1RhdeYnGNm5T6kQtzsm36sGssY96c//9MpUpWu/+x1vzaYVY5Ns4UqKWO/MaWvfWabVm6RCm8RdVItnqnnmGNLrh4a2gWggcBVghOGkOuEAIEWBViGnmIIBAgwAqCSWAICCCAQDAKqFpIgZX6Ws1ZsMKWrlxrqevTfUmfGqW3at7I2rdtYc2bNrIG9WsXV1vp+/k5OVv7WuXmeHVSoNpKwY36WqmHlJq953qgZR5QVY2P875W8fExFhcTbZGRodOfRAHUpoxMS123yRvNK9hSiKclj7WTq1tMzNZAr+ShcxR8zZi7xCZMnmPrN272flitmjWwvj062NG9u/hSSQ4EKrJA1soVtu6HkbZp2lRL+3GsVW3X3jo8/uyfAixVXi15+Z+2YcIv1urm261ah06WMXe2zX/8YauSEG/tH/yHVY6PLxVVyshvbNGzT1pC23bF50dERlnd40+0Gr36+Nc2TZtii559whI7drHI5GTbNPkPW//LT14Z1va+Ryy5V+9S3SvYTgrFAOvnn3+25cuX24ABA3wnQQ4EQlGAACsUZ40xB6MAAVYwzgpjQgABBA6gwIZNGTb+95k2evwU301Qjce11E2HAple3TpYnx6dLTk5ySKjoi3if7v+FeRreWCmZWdleSN2BTRKpxTuKJxJXb/JsrNztva10vfMvNpK1Ur6pd9ryeCOekgdQI4y3TrwrMtXp3qVmZ5FoVS9OjWsdnLSDlc55RcUeKA39tdpNmHKHP+cwq/G9WvZxWcebYd0aGmVd7AcsUwD42QEglRAy/QKc3Mte9VK++Picy3hoLY7DLA2z5ltU6++3OoMPN6aD73BKsfGeu+8JSNesBX/fsuaXH6VNb7o0t0+ZcGWLTblr5dZ3RNOsjrHnfT/52vJckyMVfpfY+95D91n1Q/tajWP7Odfy01bZwufetxSfxhljS661JoPuXa39wrGE0ItwFq5cqUNGjTId+27+uqr/fccCISiAAFWKM4aYw5GAQKsYJwVxoQAAgjsJwHlSNqyWyHV4hVr7btxk+zXyXMsc8vW3jBRUZEWFxtjLZrUtyMPP8Q6H9y6eHmglgLm5BdYTlaON2NXtdXWRuxFVlBYaNnZub5j34ZNmz3E0qG+UAqpEuJirVZyolWvFr/TXaX2E0G53EbPu2JNqqWt32wKqOSiZ27UoJYlxMfuMJDSOVqmqYb4S1as9SWa8j+i+8F23sl9/7fTYehUpZULLBetsAJaHvjbuadZfPMWOwyw5j1yv63+/BNrecPNVv+Ms4v7VK0bM9rmPnCPLz3s+tb7VjluF1VYRUW29uv/2qIXnrHOI16zqMQki4iNLb5WSdysVSstpl79/w/Ui4ps1eef2PxH7rdmQ679c1jmff6K/r9/VkHB1s9uFz4XFerrETvv2VVYuPV7/+vpVaTr6Brb9fjS1/W1QL+u7V8M/e/6hAkTbMmSJdt867PPPrMpU6ZYbGysnXnmmdaiRYsyv1PNmze3ww47zCr/7z9elPkCZfjAyJEj7ZZbbrH09HQ7/fTT7dFHHy3DpzkVgfIRmDt3rv3xxx/Fm8yU5i76e6e/fzoGDhxoPXr0+NPHkpKSrE+fPr7jJgcCCOxYgACLNwMBBBAIQwEt81udssGDkpnzltqkGQts8fK1/gOYthavXTPJlwUe1LKpdTm4pdWvW8uX+XlAVVBgBQX5lp+ba5szMi0nJ9cFFbgoCMvIzPJlglou6D/QVapkMdGR3teqWkKcJVaLt5iYaCtby+XQmyQ9u3ZSTFm30Tamq9F7gS+9rJFU1SvOqsbH7rDaTE3sp89ZbH/MmG/LVqV4U3tVvg08sqv17tbOmjSsY5E0eg+9F4IR71Jga4B1usU3b/6nAEthzW9nnmR56ZvsoDvvtZp9+xdfS5VZ04cNNSsssHYPPGbVD+220/uo+fvch+6ztPFjLbp2HUvs1NmSe/WxGocfYVUSEnY5vqK8PO+HpRCtwz+esfiWrf38/MwMy1q2zLYsWWzRtWtbQqs2lj5jmm1ZttSqxMVZtU6dLbZREyvIzLRN0yZb9ooVFhETYwlt2lrVNgcVB1NaIqlrZC5cYPEtWlpc06a2acpky1q2xCJiYn3JpMI9PUP6zBmWvXKFL2fU1+OaNf9TkLVo0SI77bTTLDMzc5+/eZGRkfbFF19Yq1at9vm1t78gAVa5E3ODPRDo16+fLVu2bA8+ufuPPPDAA3bOOefs/kTOQCBMBQiwwnTieWwEEAhPgfSMLTZ9zhKbPGOBLVy22pavWmebM7d4H6qE+Dhrf1ALa3dQc2vSqJ7Vq1PTq4WqRJjpB8j8/FzLz83z8EohlkKwjC05piWHm9IzvGpLjdkDyw21m5525UusFufNzGNjovbLf7EPtplVcCXjlLRN7qQKNS0RrF4twWrXTPQKtx0dCgFnL1jmywpXrF7nYVfThrWtd9f2dtxRXb1JPAcCFUVgVwFW7vr19suJR3sT9TZ33mM1DutV/NjZq1fZ5CsusYLMDGtx3U1W75TTd0qyZfEiD6E2z5rpwZBC5sjE6lajV29rdtVQD7V2dqjR/MInHrHkvv2t/ulnWURkpGXOn2cr3n/HNs+eZdmrVnj/LO1SuOG3Cb5LYlF+ngdqLa690e+rYEvPUpC1xaq1bW+tbr3TElq2si2LFtjSN/5lmQvmmXqCNTz7fA/GNv4x0XJSUqwgJ9uqdznUGv/lMksd9Y1tnDrZgywth6zWvoO1e+BRi6pZa5uhT58+3QMsHXXr1jWFTnt7KAxb/3/sXQd0XMXZveq72lXv1ZYl2ZblXnEBAwbTO6GEalqA0EOH0CGUECD0GggkIX8KvZiOTTEG9yqrWL23lbYX6T/3W6+QiaVVW3klzXeOjmzte/Nm7szuvrnvfvdrbpZmXnvtNSxevHiwTXo9XxFYXiFSB+wHBKZMmQK73Q69Xi++bIO1PmCF55qaGvlMuuqqq+RHhUJAIbBvBBSBpVaGQkAhoBAY5QiQnCqtrMVnqzdgzcYC8aOigTqJFKb0kaw6cOFMzJqeB124FmFhoe60vs5OuBx2dDptcInZeofcXDGsNgfqGltQXdcMi8UmKYNutRVEaZUQF42Y6AiEBAVJW/2scD8qZ0SM3ttNoD8W0ys9/liJ8dFITojdZ6VFkoQkBn/aXIjPv10vuItvWEwkTj9+qRi9+5Mai5vbXbt2iXH/YCM0NBT5+fnQ9dGYe7DXU+fvXwR6I7BMxYX46ezToElOwaTb795LZUUiZ935Z8LRasD4iy5Fxjnn9zgQ+m2RPOqwO2CpKEP5G6+iZc138lkXPf8ATH3wUQSG7U0o0/uq6ZtVKHv1JTiam8XofcKV10kVQpfVCltdDbbedB0sZaVCsKWeehqSlh8tarGC++5yK7OSk5GwbLmQay6zCTt+f7N4fmWefxHGXXAJOqxWWCorUPzkn9Cydg2C9RFIO/3XSDryWNgb67H99zcLYcWUxsTlR4l/FxVbhY8+KCqtSbfcgeTjTuyRwHrzzTeRmZk56AlevXo17rvvPrS3tysCa9BoqgZGMgIeAuvSSy/Fr3/9a1GuDyZaWlpwzTXXoLCwUBFYgwFSnTsmEFAE1piYZjVIhYBCYCwhQGLKarOL6mf91mJ8/PU67CquFJKJaYAkqPTh4Zg5bSIOXDgb4zJTuwgrmqvTgN1qMcNmNgMdHdBqQsR0XZRERgtqG1rQskdJ5CEqmBoXGamTinv6cM2gn0aO5vlyOF2orm1EY7MBTpeb+KNCLTMt0e2PFRS4z+FTkfXRVz9iR2E5zFabkILTJo3HOScvw8QJaV3eZPsTu88//xw0iTYYDIPuBonP0047DXfccQdIZqkY3Qj0RmCxIuDG36wQAocphFGz5nSB8o4b2AAAIABJREFU4Wwz4KdzTheCJ+PcC4TE6muQOCp//RUxgUdQECbeeDsSlx/ZdXqHzYaKN15Fw5efi4m7s71N1Kjpvz4H2Vdc25X+R3+u2nffQsrxJyPndzeJ6TvJMp67+/mnkXbK6ci5/uaudstfexm7n3sKyceegEm33intSIriG39B6QvPIvPs85H126u7ji985A+ofutfSD76OOTedLuov0i6Vb/9HxQ+8gDSTzsT2dfc0COB9cknn4C+VYONzz77TPyo+P5WCqzBoqnOH8kIeAis66+/HhdddNGgCaympiasWLEC27dvVwTWSF4Yqu/DgoAisIYFZnURhYBCQCHgewQsNjsqqhtQUlaDTTt2Y8O2YlFbMZimlpIcL2qrKZMmID8vR1IGGUwHdDod4mllt1rFjJ3KHxIrTAfkv9vazWhpM4lyi8GqeEwJDA4Khl6nQVSEDiEhg3sC6XuE/OsKRrMF9Q1ufyy7wynkYmx0JBLoj6UP36ciiyRiUWk1ftxUgMKyapjNViG9li6YhkMWTt/vRNaqVatw1113ieHyYILnc90tW7ZMTJujoqIG05w6dwQg0KsCq6QYP511KsKSkjH591Rgze8akSiwzjtTFE/jL74MGWed16/RdtisKLj/LjR8/ilSTz1dTOL/Jzo70bZtCypefxXN338jZNe8N9+CJilZDqVyquqff0far85E9tW/c5/uIZgevh8Z567AhMt+Tgmqeevf2PXw/aKmIiEnhJfLhco330DJU49jwm+vRsbZPyvJyl99GbtfeBopx5+EiTf/vqt7dR9/gIL77kTSMcdh0i137tXt7imEisDq15JQBysEvCKgCCyvEKkDFAI+Q0ARWD6DVjWsEFAIKAR8jwDVVtX1TdiwtRibd5airLIO1fXNsNsdCAwIQHJyPKbl5WBiznikpyYhISEGIdws7UkPtO0hrJwOB1x70r4cDicMRjPa2t0G7VQJUb3FoBl7TKRejNjDtWHo7HQbu6sYGAIuVwfajWY0NBuEbCSWYaEhiIrUIyk+Grrwfftj0Sy/qKwaP5HI2l0tRGNyQgwWzJokZu9Zmcky/8MdLHXPJ8isgDaYuOeee1BVVaUIrMGAOMLO7Y3AcrS24LujlyE0NhaTbr8HsQd088CqrsSG36yAy2RG9jXXC8nT32jfvhXrLzwHSUcdKymKPVX2MxYWYNf9d6O9YAfyH/wT4pceIpfqkcB65z8ofOh+ZJx9Hib89pqubvWbwKJi6/mnkXLciZh4yx2KwOrvBKvjFQJDjIAisIYYUNWcQqAfCCgCqx9gqUMVAgoBhYC/IEBC6adNu/DJ6vXYUVQplf+YNugmmUIxPT8XSxbOwoTxGeJJFRrqNvClUajNYobVbILL4dzL14peSw1NVASZhBAhucJ0NhIqkRE6JCdEi9KK6YL8O8kWs9Uux6kYHAJCZJnMKK9qgNlilRRMelt5/LFoiP/LIP40zafR+8df/Shm+pyXmCg9jjp4Hk479kCZu5EYxx57LHbu3KkIrJE4eQPsc28EFtVMa087EfamBiGwEg49rOsqJJ+2/I7qpk7kP/QYoqbP7HcPOl1OrF56AFJP+pWkAPYUVEkxZa/m3beQ/4dHFYGlTNz7vdbUCaMDAUVgjY55VKMYmQgoAmtkzpvqtUJAITDGEHC6XKDqpq6xFavXbsWnqzegqcWdpkVyQ6MJQ3xsNBYvmIEFc6cjJtpdoY4kR2dHhyhirCYj7FaLpGa5yawOIapIWJG4IoHFIHnCFEGmBFIFlJGaIOmC+yJQzBZ7lzprjE2JT4bLFEF6jNU3toBeWZw/pn9mpiUgQhfeoz+Wze7AF99uxI+bC2A0WWWOUxJjseK05ZgzLWfE+ZIpAssny8uvG+2VwKLK6YlHJcWOlQbTfnUGAoLcpG7DZyux68H7EJaYiNmv/A2Bmn2rFnsbvLmkGOsvPhe5192EpGOO7/nQzk4UPf5H1Lz9H8z565sIHzdejlUKLN8tLVWF0HfYqpYHjoAisAaOnTpTITBYBBSBNVgE1fkKAYWAQsBHCJC8oKqmrKoeu0qqsH5rEXYWVYBeV0wOI0mVlpqE7Kw08bTKnZCJoKAgIT3E18phh91mE18r/ttDWllsNpjNNkkRZKogUwYZVFZptWFCdlBxFakPF+KKaYP7Cl7HZLF3EWI+gmFMNksykWSloc0IklMkFWOjIpAQ5/bH2pfRO+ejqrYRP2wsEFVWq8EoCqw503Ox/MDZmJ6XJXM7EmJ/EFhms1kUihERESMBolHXR1ttDdaefhJ0EyZg2p+eQkhM7F5jZPrelmuvQMz8A5B7/c0ICteJUXrJs0+i+l9vIue6G5Fy4ilyDs3XW35ai+DwcOgn5yFIGy6eVNbaGjF7D8/KRpBWK8fa6utQ9NgjUp0w764HEBIdLX+3NzfJOeyHJ6WQRu70ywrW6ZF374Nd/St67GFU//ufSKVZ+3VuDy0+OGCqYOEf/4D0M87+2RsLkGNZQTDx8CMx6fd3IzAkVMZS+Y/XUfLMn5F1yeXIXHFxV/tlr7yA0hef3cv0nS/Wffgedt5/F5KPPFba6R7KA2vUvUXUgPwIAUVg+dFkqK6MOQQUgTXmplwNWCGgEPB3BGjo3UVYFVcIgdXY3Ob2RwoLRfb4dEybkoOscWlITUlEVGSEGH53dLjg2ENYORx2uByOLnKJ6YWsYtdmNIuSi/9neyRG6GXF1EASIySsSHrw74yw0OAe09DcBBYN35UHli/WFHHt7o9FVVVoSDCiI/VITGC1R/cG/JdBwqu8uh4bthZh847dMtfRkTrMzM/GEUvnYPrk8eKD5s8xnASWxWLBypUr8dZbb2H58uU466yz/BmaUdu3ptVfY+tN1yI0Ng7THn8a+pyJe421w25Dxd/+KqQN0/xiFyxC29bNKHz4AehyJyL3hlu7SKnmNd9h5923ITQuHrk33iZphaw4WPaXF9G0+itE5OUj7sClQjI1fPkZnEYjcq76HcKz3JX6eK3tt94oKdYxc+cjdtESZiii9oN3Ya2qxPhLLkf4+Cz3sTYrtt10HZp/+B7xBy+TqoLBERHy993PPS2qseg58zDtsaeleqCkIT58v6Qh0oyepvQ0pyeBRiKt9r23Eb/0UEx54BEhzjocDhkLTeZjFy4Rjy56gXU47Ch/9SWUvfKijGfmMy/tpT5TBNaofauogfkBAorA8oNJUF0YswgoAmvMTr0auEJAIeBvCFAR9fm3m/HVmk2ormsWLySmkTFioiKw+ICZmDd7KhITYsXXimorKgRowG4xm2BjeqDLJZsyBgkmklb1Ta3ikUUzdk/6YGBgIGKjIxAfGwWd1t0WSbBfBtVXJE32FYrAGp4VxFRPzh9JKSqzSC4GBwXK3KUmx4tX1r5CiKyqeqxc9RPKKuvlkMiIcCyaMwXnnbJM5t9fYzgILKqtvv/+e9x///344YcfQCLr1ltvxe9//3OVN3/FZzT1i6mDhX96GG2b1sNhMDCHGZqkJMTMX7iXYTnH7GxvQ/V//g/V7/wXYQmJcBhahMiiWim0m2Kr5ccfsPmqS6FJTZMqf1EzZwtxVPfBuyh+6jG4TCZRcIXExiLpyGPEHD00PuFnWF0u/HTO6TDtLkZgmAbBeh1ComORePgRcnxYYpL001iwA7ufewqt639Ch90uBFJk/jRkX3ktCh/5g5zvMpulymBkXr4oqKgMa/pmlRBWgaGh0GZkSoXCsr++AuOuAnRYLaLIipoxS9IZ6z/9CK3rfhJCLDAsDOGZ40T9ReLOuGunkG9Mp9RPykPWpVcgZt4CGYcisEbTu0SNxd8QUASWv82I6s9YQkARWGNpttVYFQIKAb9CgASD0WxF0e4qfPrNRny/foek85GgCA0Nhk6rRU5WOg5aNBv5UyaK15UQUx1uIoqpgVazEQ67W00llQU7OmCzOdFsaENjk0HSzxge0oMG7yQ+4mIjJWWwt6AIi2qsngisDiqwzDZVhXCYVhUVWbUNzahvbJV55XxzPjNSEqQq5L6M3mXT73Rh7cad+HLNZrS3m0E/tQidFmefdCgOWTTdnZIYGDhMo+jbZYaDwGppacGf/vQnGAwG/OUvfxGfuNtuu00RWH2bov16lMPQCvPu3eJ7FZacss+qgTR3J3Gky5m41+u2xgZYykoREhkJTXqGO71wH8GUPmNxIVwmo5BjmvRMUVCNlKioqMCf//xn6e6NN96IhIRuBN0AB7Ft2zb885//FLL3kksuQW5u7gBb6vtpygOr71ipI4cPgVtuuQVOpxNHHXUUli5d6n6gOIgwGo146aWXpPoulcCHH374IFpTpyoERjcCisAa3fOrRqcQUAj4GQIkqGobW0QRs7WgTHytKmoaxFCdBERKYhwy05MwOXc8puXlICUpDp0IgN3VAafD6fa1slpht1lFbcVgm/TFojqHnkntJktXZUBWHwzXhEKv0wrJQVJsX0qrfcFE0osKrJ4UPiSwaBiuYngRYAooSazWNqOkB3I+o5hWSH8sXXiPRBaPX7N+J7YW7JbzqSCZnJ2OIw+ei3kzJiLOjxRZw0FgeWaN3ld5eXmoq6tTBNbwLuURdTU+NKisrERZWdmIIu0TExMRExODXbt2jah+exbH+vXr8corr4Dv08WLF+PCCy8cUetGdVYh0BcEUlNTkZOT05dD1TEKgTGPgCKwxvwSUAAoBBQCw4FAW7sZG7eXYOP2YhSX1aC8qgEmi5v8iY2ORP7kLORPnoBx6cmSFqbdU0mrw+WE3e5Ae7sJ4mvldHaprXg+UwSZXkZSw6O2YnqgEFYROuh1GoRrwqSiYH+DBJZWE9KjUouKICrIVAw/AlRfkahsbDagubVdVFYkQMUfKz5aFFYeH7PuveNxNfXN2LyzBGs37oLJbIEuXIO8nAwctmSmpBdS1bW/YzgJLI51woQJqK6uVgTW/p54P74+lXpUXaxZs2ZEEUFpaWlISUnBunXrRlS/PUuBKher1Sp9DwkJgWYAVSb9eFmprikEBIFJkyaJYpKEswqFgEKgdwQUgaVWiEJAIaAQ8BECJHhKymvwyer1WLuhQCr+Waw/V+3LzUrHIQfOxbTJ2YiM1AlxQNKBN+oepRUJq45OtwcS2yMB0WJoR32TAVarTZRWVEIxqJRKiItGXEykpP6xUt2+SIy+DlcM3jWh+6x4xzaYrsgUQhX7DwHOAddGRXWD/GbaZ3BQMOJiI5CenNCjGsvhdKKppR2ffbMeW3eWSlqhTqtB/qRxOPeUZcgdnzqotTNYRPyRwNqxYweYzsTUDiq2PvvsM3z99deIj4/H2Wefjbi4OBk2lS7vvfceGhsbJbWEP9o9Fe88uFDJQ9P4yZMnS3s//fQT3n//fYSFheGkk06SzQzff1SF8e8FBQWYMWMGiEtUVNRg4VXnDwCB+vp6nHDCCdi9e/cAzt5/p3AdcV2RBNIHBdI2EaY9Pon7r1d9v3JwcLD0n+Ngmq/Npr5z+o6eOnKkIMDvEabn5ufnj5Quq34qBPYbAorA2m/QqwsrBBQCow0BEk8kqAztJvy4eRc+Xb0BhSVVQjAxzUsTFoaY6AjMmjYRhy6Zg/TUJDcEe/yrmKLisDM90NaVHkjSytXhQmNzO+oaW7rUNjyNbdLHSqfTICE2GtFRegTuqR44FNhyw6ALD+uxTZrCU/mlYv8jwE1pfVMLauqau/yxqLqjPxbXXE9poCTAdhaV45Ov16G+2SDpqKxEeeyyBTjpiEVSvbAnby1fjtpDYM2ePRuXXXYZIiMj+305epJkZGRI+hRVib1FTwosev189NFH8mR81apV4iNE0/cvvvgCH374oWyoeQwJJ/6NZNMf/vAH0F+LniahoaG45557cOWVV4pHCtU7TzzxBN59913pzlVXXSWb8xdeeEHa4TlUzHzwwQdoamqS10l2MX2KpvOskPjYY48hNja233ioEwaHAMlEElilpaU45ZRTsGzZssE16OOzSaQ+/vjjchWuw+gOF36bGIPI9AwEHHMCQhP8S+lBpRWLKTBlkGvdEyTeWltbxfcxPDwc0dHRXa9RWXbYYYd1kcc+hlQ1rxAYcgTeeecdeRjC76k333wTU6dOHfJrqAYVAqMNAUVgjbYZVeNRCCgEhh0BptFV1jRgd3ktNmwrwaYdJWgxGMGafjqdFmnJCRifkYKpU7KRlzsekRE66SNvyJki6PG2cjndxtwkI2x2u5BDbUaztMUfqq/cT9PpaxUm5ttMEyThMBilVU+AkQwjOfa/tQndZ7BCIgk7Ff6DgNVql6qTTCsUf6yAAFlvCfFRiNL3TEZZrDb8tLkQm7YXo6q2CVRopSbF4ehD52Hh7DykJcX12TttKNDwEFiDaYuk1aGHHoq7774bSUl7yOIeGuyJwGpraxOV1cqVK/H000+LkmratGlYuHAhDjroIBQXF8vf6Yt04oknynv6iCOOQHp6upBUr732mqi1qNwi6UQCi4TYU089JaQUia9FixZJP+12O5588klJ9aIxMAktmvny/LVr1+LRRx8VAo2G88rgdzArY2DndiewHnjgAVxwwQUDa2iYztq0aZOsRQYJrMM1Ifg1i3cEADELFmLCZVdCP3GyeOH5Q1CxSCVjUVFRn7vDlEISylQt+uI7sM8dUQcqBAaIwEMPPSTfB1TWKgJrgCCq08YcAorAGnNTrgasEFAIDBUCNF9ft6UI2wrKsLuyFtW1zZKKxY1zRmoipk/JwaTccfLvpIRY+btUCnQ64HS4f2jE3tHhftrMza+h3YyWNmOXr5Xd4ZTXeB5TvEhG0LPIndo3uKo33nAQL63wsB4Ps9udsO6pcuitLfX68CFA1R790Zpa2sQjy+OPxbWTGBeNyIjwfarquMYam9uwbVcp1mzYIf9mEYCccSk4aME0LD9oFvTh2mEZiL8QWJ7BUlFFEowE1p133onLL79cvHhIMlElRVKJFdn++9//SlogN9Pl5eVCNDHljNXbPBXbqLKaOXOmvH7uuefiwQcflDREqk5efvllXH311dI2ia758+fL5wbJrSVLlog65cUXX8T555+vNuzDshJ/vshIJ7AiO1w4IyEWB+q1gNOBiMl5yFxxMeIWH4iAoP57JA41/MSXyrba2lp5P/RGOvO9snPnTukC349UJnpTWQ51f1V7CoGhQEARWEOBompjrCGgCKyxNuNqvAoBhcCgEKBShaTVyq/XYdfuapgtVpBk4uafvlPzZuVh6aLZYsYertUIAeAhpxy2PemBHS50dvMgoVKGqpmGJgNsDqf4WrE9PhcP14YhKSFGqsuR4OJN+nA9aWZ6Yri2Z0Nvm80h/VXhnwhwvZgsNlRWN4iSj2uKfjKx0XpkpCYgJHjfm1auP/pprf5xK75ft11SErm2x6Un4XcXnYSszGSfD9hfUgi7D5RpjExhevXVV3HkkUd2vXTvvfeKCmT69OmilPIEUwBPPvlkST2kqorpkJ7gsYWFhbL5vvnmm7v+ztTBFStWyP/pudQ9zjjjDPFIYTojCTRfE9g+n+QRdoGRTmCRBD3yoANxzfR8tH/yITqcToQlJGLCb69GwrLlCPDxAxFv092dwLrttttw/PHH93gKieODDz5YXlcEljdk1ev+jIAisPx5dlTf/BUBRWD568yofikEFAJ+gQDVK2arDXWNrfjyu034+octQjQx6A1EkopVAxfPn47F82dI9T+GOxXQrbay26xw2O3idcWg7xBJApIKtQ0tUkmQf2PQeJ3EAr2HkuKjEakPd5vX7od0PXooacPcBNy+gumD7JcK/0aA67Ch2eBODbQ7xJONazc9JQHxMZF7mf1zhTKl1WKzY1dJJb5es1mqFjJIYq047XCcfORinw/YH03cmeJBAotqq+4EFskrklhTpkwRhZQnSGBRUcIURJq0z5kzp+s1GrLTo+iXBBZ9tUhg0VurudmNuyfOPPNMSTFRBJbPl98+LzAaCCympj7+2J/Q9t7bKHvtZbhMJgTpdMi9/hYkHHIYAsN6Vtz6GvXuBBZViaeeemqPl2T6LUlghiKwfD0zqn1fIqAILF+iq9oerQgoAmu0zqwal0JAITBgBLjhZ/pVWVUDCkoqsX5LEXYUVYgvUFBgIGJjIpGekoicCemYkZ+L8ZmpCA0JFsKK6YB8sk1DWof9ZzN2j8G7yWyVaoSsJOjxjyJppQ0LhS5cK8QVf0gWdA8SXlTTDGewD2GhPaeW0KOLRu4qRgYCVAp6CgGwgiUQgAi9VtIKoyJ1MJqsqKptRHFZDbYXlsl7gEGyi+uPXmtXnHccDlsyy+cDVgSWIrB8vsj6eYHRQmCxiADVhLUfvofyV1+CpbICgcHBSD/zHKSeerqosvZHKAJrf6Currm/EVAE1v6eAXX9kYiAIrBG4qypPisEFAI+QYAV2LYXlWP91mIUFFeivLoeTS3tXemBk3PHYVpeDrLHpyE9NRFRkXrpB1O1nA47XPS1cjrFmJ2EFYNttraZ0EpfK7NVSCv6ZDFIEMVG6cWInb5WWk1Yj0bZ9DXi+cMZJCx6ql7HfhjNNhm7ipGDANVXJB6bWwyobzLAbnfIumo3mdHQaBBFoMlsAVevVqtBUmKcrMuiknJZC1eefzyWLZ7p8wErAksRWD5fZP28wGgjsDqdTrSsXYPSl55D+87tQmIlHn4Uxl14CTSpaf1EZ/CHKwJr8BiqFkYeAorAGnlzpnq8/xFQBNb+nwPVA4WAQmA/I8CN/NdrtkiKIL2omDLoqfiXGB+NJQtmYNG86YiJjhQVisd7xuV0wma1CHlFTysPacXNv8lkkbRDVoOjckt8rYA9VeHCkZwQg+gInbRFBZa3YNvtpuElsOi/FdxL39gfz5i99V+97l8IkESlsvCbH7eK0oprlCQp01UjI/UYl5GChPhY8cwyWyxY++MWBAUFKAJLpRD610Iext6MNgKL0PF7y1JWih133QrjrgIEMH199jxMuvUOhCX53uuu+/QpAmsYF7O6lN8goAgsv5kK1ZERhIAisEbQZKmuKgQUAoNHgISLze4U8/Vdu6vw8dfrsGFrkSijuHmn6Tqr/eVmZ+KgRbMxMz+7y+zakyLotNvF14oElmwCOt0qLJIALa1G1Da2iKpFjNgDAiTtkH5S9BuirxWJoYFEm9EykNMGfI4+XNOjIoyNDnd/BjwQdaKQp1RbGdpN2LarDN+t246W1nZBhuuTRJVWG4aYmChE6HWIitJLSiuLBrQbTaOawKK59cSJE1FTU4ObbroJ99xzz/+sGFY90+v1XR5Y3Q2m6cFDz56cnBxs2bKlqxpaQ0ODGFGvWbNGjNwPPPBAaZefFfTLYnVCGrjffffdXdd79913xQPLZrPBYDDsZdR+4okn4p133sEjjzyCa665RuZMxfAhMBoJLA96DoMB22+7Hm2bN6HD4YAmPQNTH/wTwrOyEBDo22q3nj4oAmv41rK6kv8goAgs/5kL1ZORg4AisEbOXKmeKgQUAoNAgIqq6rom7K6ow9ZdZVi3pRCVNY3SIkmrpIRYpKclY3LueEzNy0FCfIyopYIDO9DhdMHlcoLEFU3ZPWlzNF5nOhZ9rZgm2NJmlJRBBtOtSFTp6WsVpUN0hL5PSqvehjiciqeAACBijyH9vvq0P1IaBzH9Y/ZUKq2osKKB+66SCuwqqZLiAQyNJgyREXrExkTJemd6ocViFSKW5CvfF6x+SaP+deu3jToFFt/HtbW1+Pbbb3HppZeipaUFNLm+6667kJeXJ4QViStWAyQBxSqAJI1+97vf4cILL8S4ceOwfft23HHHHWD1wLi4OKlQeMABB8BqtYpx+8UXXyznk3DiNWgEv3HjRpxzzjmgyfsxxxyD++67T65HQovnP/roo5KK/Pe//11Ir7CwMBQXF+P0009HWVkZSGTdeuutmDp1KrRad9EIFb5HYDQTWETPYWhF2cvPo+7jD+Bsb4c2LR0TrrwOsQcsRGCYxucAKwLL5xCrC/ghAorA8sNJUV3yewQUgeX3U6Q6qBBQCAwUAapOaJa+aftubNxWjJLyWlTWNgrhxIiOihCyKm9SFjLTk5GSlICwsFCRVIkJu82C4IBOt6dVtxRBqrXoaUXSikouVmzzpF+Fa8IQG62X6oGsUKgJCxEV1lAEVV28znBEUGCA+HL1FDRvJ3mnwj8RIGFbVFaNnUUVKK+qR21DM2jiTlI2IkKHxIQ4xMREitpK1vyesDscsqaNRrMQtYGBAZL+uquwdNR5YFHl9PHHH+Pzzz9HVVWVjJeEUHZ2Ns466yxMnjxZlFAfffQRVq5cKWQXIzY2FrNnzxZC6+mnn0ZBQQFYFY1qtczMTLBaIAmnH3/8UUgpBqsXzp07V1RaX331FUpLS+V6Op1OqqmR6HrxxRexc+dOIdIYSUlJUu2QRNqXX34pZBmDhBYJLyq1eD0Vw4PAaCewiCJJrJq3/o3yv/4FLqsFmuQUpJ95NlJOOBmBoQNTDvd1dhSB1Vek1HGjCQFFYI2m2VRjGS4EFIE1XEir6ygEFALDhgCVJLtKKvHJqg2itGLaFEknqkpYUS1nQgYOXDhbyCuSTNzAk2QiSWWzWGA1m+Bw2IXI0mn3vNbZKYQVTa6pYCFBQAUWgx5WcdERSIqPAdPu+H9uZoc6WIWQZMJwBHEK1/xMbPzymnaHC1abfTi6oq7RDwRIzm7aXoIfNu6QdFar3a0Y5PqmyiojPQXR0RGSFtvTGuX7hOvb0N6OpqZWNDa2oK3dJP5vo8nEXSqDWixgCuEvg4RTaGiofGaQnHI4HHsdQuxIPrW3u9MwuwdJMLZJ9Vb34BxQwfXLtvj3iIgItLW5qz52j5AQNwG+rz6S2FJphP14cwzy0LFAYBGiDpsNDV99jl0P3osOqxVB2nAhscZffNkgEez9dEVg+RRe1bifIqAILD+dGNUtv0ZAEVh+PT2qcwqM1bW3AAAgAElEQVQBhUBfEOAGnQQViaU163fik1XrsbuyVtRK3GhqNKGI1Oswd1Y+Fi+YibTURDdh1dkpP6weSNLKajGjY8+m0/NacFCQpGDVNbYIGcCgioUklSYsFIlx0UiIi0JoiO/9aMysYOjce1PcF3wGcgzHQ/VYT0EfMdsePAbSvjpnaBDgGrfZqQg0Ye2mAmzcWoR2k9srjQUCuEYTEmIxLjNVPK28BUlZp8OJxqZWlFdUo9XgrsLJ90FSQhRu+s0pkmbr6xjuKoS+Ho9qf+QjMFYILM9MGTZtQMG9d8BSXSUPc6jCyrr0CoRERQNDpCruviqMRiNee+01IYWPPvpoUSb2FCSBmWrLWL58OWbNmjVkSueRv1LVCEYSAorAGkmzpfrqLwgoAstfZkL1QyGgEOg3AlSblFXVo7isBhu3l8hP+x5/nwh9OFKTE2Tjnj85G1MmTRDPH96IUxlBLyu7zSZm7PS28lTTo9+Pxer2taLqxL6ngiA7FxYaIr5WTA+MjtTJ76FKD+zL4EnSsX/DEVTb0MerpxjOvgzHeEfaNei1RlK1vLpB0gSLSqvcKYKBAdBqNeJtFR8XI6orWfdewmq1yXpvbm5FfUMTTGYL6PzO99H4jCTk5WRg0ezJmJyT2euab2xslFS3X6qMvF3/l6/TSJ1pfcuWLcPDDz8s3lEqFAL7E4GxRmBRkWzYsA6lLzyDtm1bhLSKW7IU4y++FLqsbJSWlYknG/3eBhtUGqampmLChAmifOxr8Hub88KU3V8WPehrG92P4/c5U3dZ1KG//nIk3phO3Nra+j/qy4H0JSYmRlKOmbLcn6BitKioSLz3qNz0VE3uTxueY4kv1aFMq05O7l9VSt5nMYW6srJSUrEHE570bqZM86c/ylOOgX1gX0wm06DV8bw2scjNze3XWu1p/IrAGszKUOeOVQQUgTVWZ16NWyEwQhFgCh037eu3FmFrQRnKqupQ19AqxtNUW2WkJWFafi5yJ2SK0io+Nlpu4Hgz7mD1QKtFfjtpxt5NbcX0vLY2o6hXzFabVGwDAtxG7Dqt+Frxt04TBndaz/ADSK8th2N4CCydNqxX03kSfK5h8uMafqT994r0QSssqURBSaUUIWhsMYgqj2s/NiYSCfGxiI6OFJ8rqqZ6C97Yk/Ctr29Cc4sB7e0mUXMxkhNiMH/mJMzKz0bOuBQkxEeL8tBb0OycJujcTA4muBnkpkURWINBUZ07lAiMNQKL2PF701RciLKXX0Dj118gIDgYUTNmoSRvOl5f/QNqbOGwI2RwiiwqPAM6kBBixvLFs8V/jgURvAUJkm+++QavvP53FDd3os3qQogm3NtpPb4uD7EcVsSFOTArJwU33nA94uPj+9QeSfunn3kWO2pMaO8MRwe8f1b2+tnsciAi2ImpaXpctOI8zJw5s08Py0j6v/TSS/h2y240u8KlqEzwAL3LpOqy0wF9SAfSw+04/+wzxZOvL8EHGOzHR1/9gHqHFvaOQAQMwlbB5bBBExKEVK0dJyw/SApaaDTeCwuQOHv//ffxf2+9h3JTKCwOIGiAeHjeD0FwIS7YjCUzJ+Kyyy7r01rtDTNFYPVlRaljFAJ7I6AILLUiFAIKgRGBANUl363bgc+/2YDC0mpRSHlS2JgaNXtGHpYsnIn01CRoNRqE7EnpczmdsJqYHmgSwsqTGshBM12quaUdDc0GWOgv1eHqMknn+UwPzEyNFwVLcFBgn24gfQmm1eYQlY2vg0+hSWBRzbOvIIYms02q1qkYHgSYIvjD+h3YtHO3KKW49jkPXKfJSfHITE9BeLhGnkx7UwXyvKbmVpSVV6O1tU1UfWLYHhCArIxkHHf4Asydnitpt2EsQtCPIdIQ/cYbbxw0gcVLkpQ77bTTpMpff1QZ/eiuOlQh0GcExiKB5QGHVQlLnn4cNe/8V8iq9sAgvDbuGBRmLkRAwBD4PZIssRrg2PwWLj9pES655BKv73mqnVZccSPa0g9BcNIkBASSsO/Pp9U+pr6zA51OOyzbPsScaANeeOEFKaLQW5A0Ou+881AZNR+anMUICOq7gqx3EssOe+mPGG/bjr++9IxXMo3qonvuewDvbTEgZPJhCAwlmTdIPNCJzg4XnK1V0G79Bx68+1Z5qOAtmN75/L8+gWbB+QgKjwUGvUY63cV1DLVwbv437rn6PPzqV6f22g1+z7FIxx2PvgjrxOMQFJWyZ60OEhNaTzhtsG1+CyfPTcFtt90mRToGGorAGihy6ryxjIAisMby7KuxKwT8GAFuqlkNrbq2CV98vxlffr8Jbe1m6TE37SSVUhLjxIx97qwp0Ot18po8NexwwWGzwWIyym9PeqCYU7s6hKyicoXeVh5TdG6WSVKRBKCnVUxUBEKCgqAL955+NVwwDheBxQqEVJ71RITQd4mKNQ+uwzX+sXQdrkua5NfUN2HNhp3YWlAqSisxAg8KksIDJGtTUxP7lCJItQLJz4aGZpRV1MBoNHURYCw8MCU3E8ctW4AZUyb0qrzzNgfNzc3YtWuXVPEcbJC0ys/PF7N0FQqB/Y3AWCawiL3LakXx80+j8t//RJDTAWuwBv/J+xU2Js2CM3BoPCCdzeXQFryF/7zyONLT03ud8iuuvg6fVIRCP+0YnywN29eP4fbf/EqqivYU/A5kivOrq8uhnXPGkPejs8OJ9h/ewLUnzsVvL+/dRH/jxk04/cq7oFmwAkG6mCHvi61yE+ZjIx579I+Ijo7usf0dO3bgjHMvRMAhtyJQO/Sp3/aaHQja8Bp+WP15ryosqoCvuel2/GCZAM34uUOOR4e1HWFb/46Hb7wYS5cuHXD7isAaMHTqxDGMgCKwxvDkq6ErBPwNASp6GpvbUF5Vjx3FFVi/pQiFu93ePty4Mx0wPS0ROVmZmDolG1nj0rvM2GnE7nTQ18oqP1ReeQgtnk9fK6PJImbXZrNV1ENs0+NrRa+f6AgdtNqfCSsatVOJ5C8xXAQWKxBqqbzpIWWMRIrF5lYAqRhaBMwWG2obmlFaWYcdheWoqG6A0+VOEdTrwxEVGSG+VvS34jz1FpwfelsZ2oyiuKpvaIbF4variYnSY0JmCqZOGoeFs/MwPj2pR8Xd0I5QtaYQGJkIjHUCi7O25uuv8f6Df8QCYxMinRa0hUXhy/GHYk3aQiG0Bh0dLrSueh7P3X4Blh9+eI/NkZDPn70QoQdfh+DotEFfdl8N2ErX4ujEWpBg6KliK/2urrn2OqzXL0NwbKZP+mEt34Bsw7d477//7LX9Pz/1DJ78eCci5vzKJ/3osBiQXPY2Hrn9akybNq3Ha7zxxht46I0vELJghU/6gc4ONLx9G9589iEsXry4x2vU1NTg2POuhnPq6QiKSBz6vnS4YN76IW46Pk8UeAOtPK0IrKGfGtXi6EdAEVijf47VCBUCfo8AyaUdRRXia7WrpEo8rloMRiFIwrUa5GaTsMrB+IxUMWanvw/JFZJUJKuosqKvFf/f2dkh46VKqN1khqHNJOmG9LWiHwSDG38asEdF6ERxRcPyffkF8W/h2qFJBxiKSRguAosVCHtLHSMh6E5hG4pRqTaIQHNru5ixF5ZWoqq2qWv9028tLjYaiQkxiIyMkEqCJFZ7C659Q1u7EFYt9LYymsVUne+Z9OQ4HDA7D9PzspCdmYK4mAivKYdqhhQCCgGIWfgJJ5yA0tJSPPDAA7jgggv8GpZNmzbhiCOOkD5SzUhD76OOOgpPPPEEIiMjB9T3lStX4o5n/ov8+GycUPIxoq0tMIeEY2PybLyfexwswd4rnXq7cNv3r+G+C5fjjNNP6/FQi8WCnKlzkXDKwwjUDmws3vrhqNuFJQE/CV49pTDX1tbi2htuwfbEExCk9+7b5e2a+3rdUV+EiJ3/wHdfftLr6Xfdez/+sdEM3dS++VT1ty8dNiNiSt7FwzdcgHnz5vV4+jPPPINnPy1CyPST+nuJPh/f/PFD+PNtl+D444/v8Rwatx96xhUIX3Sxz9aIeecXuHxxjHhh8bt6IKEIrIGgps4Z6wgoAmusrwA1foXAfkSgsaUNn65aj9U/bkNdY6uk9lFtwkhKiMWShbMwZ+YUxMZEQauhJ1OgkFqSHmg2ShXBTldHF2nF80isNDa70wNJtDAVy6MUYtphoqQH6hEaEiLt9eZLTaIrXDP2CCySV2F7PMT2tTxsdjeBpWJwCHBdVtc147t128SUncpAj8cZUwQz0pKRkpIga78vVZdIXNU3NqG8vAZt7UZJ4+PfSFwxRfDYZfMxc8oEROi0CA0d2M324EaszlYIjFwEFIEFkMC65fn3gcnHIcPSiNO2v4n0tgq4AoKwK24S/jH1LLSHRgxqktvW/BX3XXB4rwQWK+3lTpuHhFMfQaBmcNfrqbMkjpZgrXcC68ZbsT3heN8RWA3FiNzxD3z75cpecb3znvvx5mYLdPlu0nKoo18E1uclCJl6wlB3oau95pWP4M+3XuSdwDrzSoQvugiBGt+QnOaCL3H5omhFYPlsplXDCoF9I6AILLUyFAIKgWFDgJ4+rPLH1KhPVm/AT5sLxTzak8pHdcmk3PFYuniO/Jbyz/S04o/LBZvFDKvZJKmCnuD5JKnYLs3Yqbji3xhUqlBFFRkRLobsTBPsT4QEB0Or8Z+N/nApsKhIC+klPc1itYvxt4r+IyDpl1YbSipq8f267Sgpr+kimbjemCaYTuIqOcGr0opXJ+Frt9lRW9+E8opqIcEYTI2N0GsxI28Cjj/8AEyakDbgFIf+j1KdoRAYfQgoAutnAqtz8vEICNEgxViDU3b8C1mtJQjo7ERh3ES8Pekk1OpT0DlAA3FFYO393nEoAut/PkwUgTX6Pl/ViBQC/UFAEVj9QUsdqxBQCPQbASp1aurcnj6bd+7Ghm3FqKlvlk07JdepSfHISE/C5IlZyJ+cLd4+DBqxk6hy2u2wWa1w2G1S0lte6+yEzWYH/YKYHtXaboLVapfXqKrShoWKl1VUhDtNcKBqE6bSacLGFoFFMtGdUrnvNDWqhixWR5dSrt8LYgyewExLVg6srmvC7vJabCssQ31jq9tEfQ9pFRMdiYSEWPC3Ny8NnkeiiiqrhsYWNDQ2y/uBc8eUwOzMVMyYkoUFMychPTVhgNvIMThRasgKgV4QUATW/xJYhCvZWIsjij/CtIbNCOpwoTQ6Cx/kHIui2NwBrSdFYCkCy9vCUQSWN4TU6wqB0Y2AIrBG9/yq0SkE9hsCTa1t2LC1GJt27EZJea2YUVOB5TFjnzJ5AvImTZBKasmJcVJVDegULyv7HsKKBBbNWj1mS1SvGNpNMLSbpUIhlSyeKoJUnJCsotqKFfQ0YUw5HFy55LDQYFGy+EsMhwIrKDAQGk0I+HtfQeLRYrN34e4v2PhjP0i01tY3Y3thmRBX1fXNQrgyJJ01PhZxcTGIimTxAI1XLyoSV80tBvG2am1tQ7vRJJUJSXhlZSThgFmTMW3yeEzITJb3Qk8m/P6IleqTQsDfEVAE1r4JLM5bhK0dSypX4+DSLxHqsqFel4hPJhyJDcmz0RHQu2ffL+ddEViKwPL2WaAILG8IqdcVAqMbAUVgje75VaNTCAwrAq6ODjGiXvn1OlFaMa2Pyihu5AMDAkRldRDTA3PGS6oUySFust3pgZY96YF2UaZ4fKtoFE6yqqGpVYytmTLFFEH+necyTSohLlpM2elZ1RPxMhAgqL6iCstfYjgILKZcksDifO0rSBiSwCKRpWLfCBCjwtIqfL9uB8qr6gQvEk2EVK/XITMjRcgrKgMlTdZL8Nza+kZUVNTAZLLAIcUKOiXF0JMiODk7XbytQvxovXobl3pdITCSEFAEVs8EFucx1GXHoopvcUTJR9A4rTCG6vFhznH4Pn1hv6ZZEViKwPK2YBSB5Q0h9bpCYHQjoAis0T2/anQKAZ8iQCLJbLWjpbUda9bvwCffbER5Vb17cy1KnjDExkSKEftBi+YgId6dHigEVUeHpAjS04reVh7fKtIiHa4OOF0dMLQZUd/UKlUEeQ4JgKDAINmkx0brER8bLeluvoqxSGDR+6o3TOl9RSLNQzD6CvuR1C7JVFb5M1ms2F5YLt5WLEpAjKiOYppgdHQEMjNSERcX3SM56Bkzz6Py0GZzoLqmHpXVtVLggJQiDfYjI3SYP2MSjl02DxMyU0YSVKqvCoERi4AisHonsDixQZ0uLKj6AUcUf4j20Ei8MvMiNGtj+zXnisBSBJa3BaMILG8IqdcVAqMbAUVgje75VaNTCAw5AtysMw2qoqYBxWU1WL+1CFsKStFutIgiisqqtJREjM9IwdS8HOTmjEO4ViNpgNyUOx12qSJIXyuX82cihOotqrVIArS1m8WMnUoTBpVVJFV0Wo2kW0Xo3GorX4c3M3NfX/+X7Q+HAstb2iSr5LEfKtxebM0tbaiqbULh7krsKK6QdctgSmxEhE4qaCYmxEkBAW8pfSSujCYzDAYjGpqa0djYAofDKamwLEKQPS4Fs/KzsWDWJPm/t/bUHCkEFAJDh4AisLwTWB60p9ZvQVtYJMqjxvV7AhSBpQgsb4tGEVjeEFKvKwRGNwKKwBrd86tGpxAYMgS4uaaXFQkrqkxKK+pQ09AiyimSSePSU5Cfl43c7HFCYMXFRsvGm687bFbxtSJ5RdWVR23FzlntDlFakbSipxV9sjzpafSy8hBW/HdYaKiosIYreM2ezMyHqw/dr+NrAovYasJ6rkBIdRxVQSSxxnKQWC2rqpdqmvxd19AMVmYkoaTThSMpIRaxsVGI0OtEhegtmCJIb6sGelsZ2oXEItnLFMGJWWnibZU/cRyyMpOEvPXHqK6uxqpVq5CSkoKlS5f6YxdVnxQCg0JAEVh9J7AGA7QisBSB5W39KALLG0LqdYXA6EZAEVije37V6BQCg0bAaLJgzYYCfLJqHUor62GmwbqDHjwQZdWCOVOxaMFMpKYkQqsJ6/LgIVFlMRmFuHK5nF0VBNkhKldYla2hySDKLY+vFV/jpj06Uo/E+GgxY2fK4GDN2AcKgi6c1++fAe1Ar9WX83xPYAUgXBMqc7CvkAqENof4OY3F4LrftKMEP2zcKVUESVqRjCVxRcKK3lZUXDFl0FslQeLHdV9VXYeqqjqYzBbBlRjTd23+TKYIzhfVFZWHw6E4HOicNjU14YILLsDu3buFvLr//vsRGRk50ObUeQoBv0RAEViKwPrlwqytrcW1N96K7QnHI0gf55N162goRuSOf+DbL1f22v6d99yPNzdboMs/wif96LAZEVPyLh6+4QLMmzevx2s888wzePbzEoRMPcEn/WCjisDyGbSqYYXAiEBAEVgjYppUJxUCw4cAN+lmqw2VNY347JuN+PanbWjdkxZF7ymSVhlpSVg0fybmzZkqih1GZ2eHeFfZbVZYTSbY7bau6oHi6UMllsOJppY2NDa3idKKwc0/CROmXCXERCIuJtJvjKj14Zr9Rp7ta8Z9TWDRuJ2kXU+paZxHk8VN2oyF4Hhtdgda24xSlGDthp1SmIBB83USTfHxMRiXkSrpgt5S+tgeSSuL2YoqeltV1Yl3Fs+j3xorBy6Zl49jDp2P1KRYr+350xxcf/31ePvtt5GZmYmHHnqo1w2OP/Vb9UUh0FcEFIGlCCxFYCkCq/saMBd8icsXReOyyy5DSMjAKlbz+/Kpp55CVFQU3nzzTUydOrWvH0nqOIXAmEVAEVhjdurVwBUCPyNAcqmxyYDSqnqpIrhuS5FUUWM1NW7U42OjRGGVm52J6VNykZaaJIoQMWJ3OiU1kMSVQ9RWP6tzqCghGUYTdkO7Ce3tZiGyGNz8a7Vh0IdrER2pg16n9bsNO6u6DWfKorc1SdLP7vCd+olEok7bc8obUzuNZqu3bo7415kiSHUgSdydxRUoKq2CmSbqAQGiMoyM1EuKbGJCLLT0d/MSfB+Z6G3FogQNTWhqNsj7hiotElU541MxZ2oO5s2ciNioCG/N+eXrGzduxJlnnink5rXXXosLL7xwwDf0fjlA1akxj4AisBSBpQgsRWApAmvMfxUoAPwAAUVg+cEkqC4oBPYXAjabHZsLSrFhazEKd1ehrLoBrQajdIcb9bxJWZgyORvjM1PF10q/x3+H5utMDbTbbOJp1d2MnSoTbvap2qKXD6sU2u1us3amAuo8hFW4VggsEln+GCQrInTeyYnh7DtT1lgF0FfBuaASqKfgtdmH0RpUW+0qqURBcYUUKWAlQZKwJJqioiKEsIqJjhRvK6oRvQXPbWxqQUOj29vKZLIIwRMaEoIpuRlYMGsy8nIyMC49UdIER3KQuD7//PPx/fffY9asWXj++ecRG9u/6mMjefyq76MfAUVgKQJLEViKwFIE1uj/rFcj9H8EFIHl/3OkeqgQGFIE6F1VXdeEL77biK9/2IqW1nZRSVElQtImJTkeBx4wC3Nn5SMyQocwjdsHigQUzdjpa+UQo3W3X48nuDH3pAe623N1mbGTGImLjUR8TBTCQkMkZdBbutWQDnoAjZG00Id7N+AeQNMDPoVkoC/9p7xVXfR1CuOAgRnkiVQHrttciJ+27JJiAiRc6dPGNZCUFIfM9BQhrYJDgsE0S29htdlQXe1OEaRqju8F8bYKDcFB86fiqIPnYlxaInThmh79xrxdwx9f/+STT3D55ZcjODgYL774Ig488EB/7Kbqk0JgQAgoAksRWIrAUgSWIrAG9PGpTlIIDCkCisAaUjhVYwoB/0OAG2cSD1RFbdm5GytXrZffrCRHEoneU0zfo9KKxNXEnHGyced5/OlwOmA1m+WHZuxdhBV9rVwdsFpt4mnV1GKA0+VOD6TSiubrNGGnGTtN2XsyBvc/xNw9Cg5i/93+Xv4S9J/qnqI51P3y5vllMtu6UkCH+trD2R7TWFlNkWv2+/U7sGVnqVTAlHkPDpLKgclJCchMT+5TFUHxtmK6rNmKisoa1NQ1iN+bO+UwFAmxUVh6wDQcfchcxEaPXnPzxsZGUWHt3LkTy5Ytw3PPPef3RPVwrjt1rZGNgCKwFIGlCCxFYPk7gSX37R0dch8/mAfFQ9XOyP7UV733VwQUgeWvM6P6pRAYJAJUkVTWNmF3eS02F+wWXytWTmPIBj0xDhlpyZImmD85BzHREfJl1+FySVqgw26TNEH6W3U37WaaFTf7rE7INEGzxSpKKyHDQkOEtIrQh4shNf89UiMkOEjIB38Ko9nmMwN1b4oziu3of9VddedP2PSlL1y7NfXNKKuk11s5SipqhITl2JnaSm+rhPgYxMfFiFrKW5BMbDea0drahvrGZjQ3G2R+WIUwLTlOvK3mzZiI2VNzEBUR7q25Ef+63W4HK1Dxh4a2NHXPzc0d8eNSA1AIEAFFYAEff/wxbnnuPWDKiQgI8U3as+H7V3HvisPx6zPP6HHhWSwW5Eydi4RTHkag1jcPBRx1u7Ak4Cc88cQTCA3d971ATU0Nrr3hFuxIOgFB+nifvFEc9YXQb/87vv/6s17blyqEm8zQTT3SJ/1wVyF8Bw/fcGGvRTqefvppPPtZEUKnn+yTfrDR5o8fxOO3XIwTTzyxx2tUVlbi0DOuQPiii322Rsw7v8Dli2P8wsTdZrNh3bp12LFjB9rb2xEXF4fZs2dj0qRJoorua/Aehm2sX78eBoMBycnJOOCAA5Cent7XJtRxCgGfI6AILJ9DrC6gEBg+BEguNDS3ScW0TdtLUFpRh6q6xi7fooS4aEzLn4hJueOEvEpOjBcvH1YQdNgdsNsskh7ooq9VN7UVFSskrAz0tTJbhcCiwoRBxYqHsKKPD0kf/m2khzc/qP0xvnaT7wgkki5aTc+kjRiRW9wqpZEWrCJYUFyJXbsrUV3bhGZDe1eBgri4aCTGx4rHFT3e+qIUJBHW1NiC+qZmtBmMe0jcDoSGBmPmlGzMnzEJk7PTxduKpO5Yim+//Ra33HILqqurcc455+DOO+8cS8NXYx3FCCgCC/jqq69w0+N/hy3vFASG+oCU73ChddXzePrm83DUUT0TMXx4kDdrATSH3IDg6FSfrDpb6Y84KqEaDz/8sDzk2Fe0tLTg6muuxcao5QiOyfBNP8o3YFzz1/jwnf/02v7jf34KT39SiIg5p/qkHx2WNiSVvoVHbr8K06dP7/Eaf/3rX/HwP75C6PwVPukHOjvQ+PZteP3J+7F06dIer0Fy8ehzrkLH9DMRFJEw9H3pcMG09UPcdNxkUR73tEa8XXgoqhDy3v+RRx7BSy+9hN27d0uRGJKu8+fPxz333CM49aV/fF+98847+OMf/ygPn/Ly8rBq1Sp5MPfAAw8IIaZCIeAPCCgCyx9mQfVBITBIBEgubCkoxaer12PT9t1oN1nEe0d8d0JCRGV10KI5kh5Ic3aqSzxqK6vF5E4PdLiN1rsrbEhSNTQbxNuKm3Zex/M622FqVEy0Xkgwpgz2wR5okCMdvtNpZu5vBvNtRovPANCEhSI0pGfi0WZ3yhoYScG1+91P27GjqAztRktX/8PCQpCanIT0tCRRI5Jw7YvUnt5W5RU1qK1rlNRZjx9ZpD4cBx8wHUcePAfJCTFSnIC+cWMxuKG78cYb8eWXXyItLQ3/+Mc/kJrqmw3mWMRXjXn/IaAILKCkpATX3XwnSlKOQXB02pBPhrOlEqHb/423/vI4MjJ6J4R+c/mV+Ko+Erp83yiObKv/jJtXHC9EfE/Bjf2DDz6I19fUQjvrV0OOBzpcaFv7N1x5zHRcfdWVvbZPxcwZV9+L8IUXIlAbNeR9sVdvxWzHj3jisUcRExPTY/tbt27FWSt+g4BDb0OgZuir6trrCoAfX8La1V8gPLxnEpXqoatuuA0/OSYiLHPWkONBRVro1jfx0O/OF0VaYWFhn65BdTJVUfzNGAoC66233sJvfvMbnHHGGcjPz8cXX3yB//u//5P7mpNPPteBhPYAACAASURBVFmIrejoaK/9YxGWiy++GOPGjZPvbq1Wi127dmH58uWIj48HrzNhwgSv7agDFAK+RkARWL5GWLWvEPABAiSSqIJqaTPim7Xb8Ok3G1BV2yTkEhUk3JTHREXigLnTcMC86UhKjJNeCEHVQbWVXczY7Tar/N8TvBmjjxXVVtz8syKhh7DihpwbfW7WE+KjEaHT9mnT74PhD0uT3gzNh6UT3S7CFD4Sk74KGtb39oTObLHD6fJdBcShGBf7Z7HYUV5dL95WrCbI9cubOK5drVaDjPQUKVRAYtdbSOECpxPt7SZUVNYKceXxlgjXhCI+NgpHHDQbhy6eiZgovbfmxszrr776qjzBJe4ks84+++xR/VkxZiZ2jA9UEVjuBfDCCy/gib++g+C55yJQG0PTy8GvDPr2WNtg3/IuLj5qJn7728sRFta7BQHTnFZceROM45YjODEXAQGBGPRTNN4jueywbPsY07W1ePnllxEZ2XuKYmlpKc47/3zUJx+CsPHzERDk/bulL4B1Ou1wVG5AWvtGvP7iU0hKSur1NKPRiDvvvhcfFdoRknsIAkO0g8eD940dLrgMNQjd/Druv/0GHHmkd8Lw3nvvxV8//A7aBSsQFB4NcG4GG50dcLU3wLn5P7jl4pNxztln99oiv6s//PBD3Pn4q3BMPtGtwgocguwArhGnDdYt7+L4adG44447JOXuzDPP7PMISTTdd999cvxgCSyqpo4++mhccsklOOWUU7r6cPfdd4M/48ePB5XRKSkpvfbPbDaLevrJJ58U3LrP8zXXXINnn30W1113HTi3/UlJ7DMo6kCFQD8QUARWP8BShyoE9jcCbUaz+PcUllZJmuDmHW7zaSqfIiP0SEtJRNa4NOTnZWNS7njZpHMT7nI6u/laWURejD0VBFltzWazS5oh22eaIJUmfJlm7NqwMFGUREa4fa3GSkqUjiqaoCG46RqiRcN5MpqsQ9Ta3s1wnjnenlRIXAsms1Uq8/lbcH0zrZXeVqUVtdi+qww1Dc1dKYJMb42OjhRvq7jY6D7J6Kk8NBpNaDG0o76+CQamHNLbKiQY41ITMCk7A/Nm5Iq3FZVrKvZGoLy8XFQLTCM8/PDDcf/99/f6xF7hpxAYCQgoAss9S/Sfeu211/DB56tR64iAHSGDIkr4GR4c0IHEYBOWzc/Heeedh8TERK9Lghv3r7/+Gi+//iaKWwPQZnUhRDPwtMbOjk7AaUV8mAMzxsfhphtvEP+fvsSGDRvw7PMvYGe9A+2dWnTAe7Xa3tpl8ZzIYCemJIXi4gvOw9y5c/v03VVRUYHnX3gB326rQItLJw9ggkMH5kXqKeKjD+lEusaCc844Bccdd1yf+mG1WvHMs8/is+82ot6pg70jEAGDIDqddhu0IUFIDjPjhMMWy/eLRuPdg439oGroX+98hAqLFmYnBowH54tkXhA6EBdkwqKp48X7isQQvacuuOCCXpcK8aRPJO+/p0yZgnfffXdICCx6XzG194gjjtjr+vweZqonldBUZHkjQMvKyrB48WKYTCZs2rQJmZmZXe199tln8l2+YMEC8AHV5MmT+/K2UMcoBHyGgCKwfAatalghMDQI8AZkd3kd1m0twvbCcpRX1aOhiRX/XAgKCsKEcWmYOiUH2VnpSEtJQmxMlBBPNGO322yisuKXP780u6utmP7UZjTB0GaGyeL2taKyi0GSimQVSSsasXOT3pf8+aEZsX+04q0i33D30pceVKJOCgvt8eE1r222ulNS/Snqm1qFsCourxFvK0O7yb1+w0IRHx+DhLgYMWYP12r6tH5J5NY3NKOxqQWGNqNs1Dhkqg1n5k/AvBmTMDErDenJcX0yefcnrIazL1wnfCrNFATePPMJM01gVSgERjICisD6efb4Hi8uLgY3vfyc7EsKdk9zz7aYTsXPCvrueFNedW+HKhsS5ewL05c9aVkDWWcetS5JK27QdTpdv5phyhqVOOxH98I3/Wpkz8E8PzY2VvBISEjoF7408GbaV319vRAmA1XLeCwlIiIikJ2d7TWl85fj5D0n0+popk6SZTBrhG0xXZCkSlZWVo+m+vvCmkQn1ym9oUjO8L55oCFFWkJChNikP5RnrXLOf/jhh16b5Vz897//xTfffDOkBFZPF2W678yZM3HWWWeJItrbeibRRwUXfa6owOpOIrPCMNch0whJYB1zzDFyP8i/U901bdo0SS3kNYkD5/rAAw/sMn4n7iTZeDzTExctWvQ/c0gF2HfffYeoqCjpQ2trq5zDzxemaDLtkkFScs2aNTKfJOV4b8H3ioqxhYAisMbWfKvRjiAEzFYbVv2wBV98uwmllfViFG3fY5weFanH/NlTsWjBTCQlxkKr0XQZp7N6oNVkgs1qkZuo7qQV6QeLxYaGpla0GIzydI4VBD3EhKQHxkULcUVSY6z6+PDLV8eUOj8y9SLhSBLJF0HCMiy05yo1XHf0v/IH/opKqLLKOnz703aUlNfAarXLOmYwRXBcRgqSEuOFxOprMQGqrcora1FX1yjvMd7wMvh+OPLguTh00QwkxUcLmTuYm3BfzJ2/tsmNy1FHHSXE4ZVXXin+HD1V8vLXMah+KQS6I6AILLUeFAIKgYEiQCKGfml/+9vfhoXAYjrgypUr8eKLLwoh5O3e5frrr8ejjz4q39vsY3efM+4R9Hq9kElPPfWUKLFo1v/RRx+hoaFB0opJUvLBVVNTk0DE1MXXX38dDocDv/3tb4VU9ZjL8/9Mb2SQ9HrjjTfEs4vG+3xt4cKFuPbaa1FbWyv7GJKoPIYkGcf16aefCpFFMpGVKB9//HGvqb4DnTd1nn8ioAgs/5wX1asxiAA3ziSpmCL4+bcbsWrtVpgt7vTAkOAQSeOj6fTSRXMwY9okUZUwSFBxw02lldVohNPpNmP3BNUzVGtRnULFimlPJTu2GxgYJEbl9O9JjIuGRqPSoYgbibtwLRVJg0sDGMplzPVhtQ29iTpHyHkP6aVyJK/rIU+Hckx9aYtLmQQVixLQ04reVpU1DUK8UmnIp8tRkRHIzEhBYkJsn+ZMvN6oQGwzorSiGk1NLaI+JNnCVMqM1AQsP9DtbUUzfxUDQ2DFihVYvXq1mMrSRJZPcFUoBEYqAorAGqkzp/qtENj/CAwHgUUSiUpAEkckk+iLxd80cPd2P0uvShJXp556qnxfUwnVPVhUgWo6endRebZt2zZRWfOahx56qCgheS6VVEwxpoJqyZIlcl+Vnp4uFRE///xzIb1IZJHQIiHFqocs+kISjBjNmDFDlHJMV2W/eY2CggJRAZI4o9qN/lzbt2+XcfIcpjgecsgh+3+SVQ+GDQFFYA0b1OpCCoH/RYCb8LrGFiGttheVY/2WIpSU1wrhxA99bsjTU5MwMTtT0gTTU5OF0OIGnFUDnQ47bDYrHDabpAx2J6244SchZmg3o63d1EVABAcFgQblunANIpkmqHerrVT8jIAbI3elRn8JKqBYCXCow+1zFtqj3xd9r6xWx34xcG82tEtqYFFpNbYVlqKl1SjDZxXNCL0OMdGRSEyIQ2Skrk8pgnwSyPdCS0sb6hqahMAi2RuuCUNmWgImTUjHgtmTkZ/Lap2KzB3sWuPN6hVXXCGfV08//TQOO+ywwTapzlcI7DcEFIG136BXF1YIjHgEuhNYrMx70003yZjohUWlFCv+XX311X1O1WRxAT4c8qTPkRQiEfTMM8/g448/FoUSiaZzzz0XDz/8sNcqhFRe8TymHLKNXxYvIIFEtRQLs1A9RZKJKYf0oaMKit/xHBfvqW6//XY88MAD8n96YLJNqqWKiorAB1tMo3zuuedEme0JmuC/+eabor7ia/TvYjBl8aqrrhLSiybyVIqR2GLRAqq0SLbdfPPN+MMf/jDi14gaQN8RUARW37FSRyoEhgwBVpPbtqsMG7YWy+acVdPajPTboUw3HJNzszA1LxuZeyqm6XU0Ju2E0+GE3WqRKoL86XA591JbkeSgCTvN2ElekcQiSUYeRqsJQ1SEHhF6raRCMW3MnwiaIQN3CBqiWbdG8BmCxoaoCZrsO5xDXwUwmFUrxeNs34OVipd71tEQDaXXZqiMqqxtxPbCMkkVrG1oEQN5Rni4RggrmrGTtGLqbF/CZLagoaEZTc2tQmBZrSxS0CneVvNnTsKcabmYmJWKtJT4MZs22xcc+3MMn8byxvyJJ56QFIKDDjoIr7zySn+aUMcqBPwKAUVg+dV0qM4oBEYUAt0JLHbc45/FDAoprCQP5/qu/KdCigUPLr74YnmAxwdF9PoiScQUfqYObty4UczuWU3z17/+da94HXvssfjggw/EIJ9kFNP2ugfVUvSdIll05513ir8aCSiSTlRudW/fY/pOMuovf/lLl38VSScSWP/+979x1113STueIOlFsstDkHlM+lkggYor4sTzDj74YDmFmDF18IYbbsD5558v11ExdhBQBNbYmWs1Uj9AoLquCSu/Xofv1+9EY0ub+FHR04dEUkZaEpYcMAuzpk8W42lNWJiQCkwRpJ+V1WwS0or/754iSIKq3WiW9ED+JuHANhk8PyYqAglxUdBpNWJe2RNR4Qfw+E0X6Aflb9UWTVwre0z2hxKo0JCgXivpkTQjEepr/yvefG0tKMWaDTtRVdskJJPnvREVFSHeVvFxMZIy2NfqkCSrysqrxZSdN1se/FISY3DE0rk4ZOF0KVbAFEp/8jsbyvkdzrb4ucSbZ0r+qb5qbm4WeT9j6tSpePvtt4ezO+paCoEhRUARWEMKp2pMITCmEPglgTXYwfN+nsomEj+/LLJEsockFtMCWSHxhBNO8Pr9SxKIqX9nnHEGnn/++f9RYLHaIj2pqHT63e9+J9/tl156qXzf//3vfwcVVJ6gwoom7jRYJ7HkqVrI9EISWPS7+v3vf4977rmn6xymOt57772iTCO55SGwmKq4bNkyIaz++c9/yr8ZHOOTTz4pKiySbvTkUjF2EFAE1tiZazXSYUaAmzlu/KmG2ryjVIirLQWlQj5xs0yTaZ0uHNOmZGPp4rnIGpcmX0Keyi8up0NIK5uZpNTPyhu+zo29w+FCU0sbmloMoDqHQSKMm3sqauJiIhEfEwmqiVT0DwH6HtEbzJ/CaLKC6XxDGdRchXkZK9MWqewb6uBQ7FQMtpuwpWA3vl+3A61t7hRBrmESVVRa0duKqYJ9UQuSBKNXV0uLAWUVNWhubpX2mBIaHu72tjr+sAVYMGuypA2qGDwCVFex6hX9KGiySs8remIweAMaFxcn6is+Je5elnvwV1YtKASGFwFFYA0v3upqCoHRhEB3AotVDC+66CIZHh/28HuTKYRM9yNR1JegyTp9n36Z6uc5l/dDTL+77LLLMHHiRGzZsqXXZj0E0r5M3NkWv8/5m+l9F154oXzveyOw6FnFPgwFgcV7DRJfisDqy+oY/ccoAmv0z7Ea4TAjwHSrqppGlFbWYeP2EvlpaDIIMUViKTUlQVID8yZNQP7kCWJAzXC5nOJr5bDZYbe50wS7K62YWmWx2iSdipv+tnbzHoUKTd6DJUVQr9MiKlIHfbimT55AwwzNiLkc/Y96MzUf7oGQuDKZ3WlvQxkkhThWphHuK3g9i80hhudDFWyLxGtVbSN2llSisKQSTKl1Ex5hYIXN2JgoJCbGQReu9XpZImK32dHebhIyt76hCUaj2e1tpQ1DVkYy8idmCmk1JTdTpQh6RbRvB/DmdefOnfJ094svvsDmzZvlCSlJeJa25g3r4sWL5Qab5q+/fELct6uooxQC/oOAIrD8Zy5UTxQCIw2B4TBx/yUm9MSi4ikrK0v8sXoLvn744Ydj2rRp4smVmJjYdXhpaam0we9yKqpIIrW1tSkCa6QtwlHUX0VgjaLJVEPZvwjUNjRj/dYSbNm5G7sralFZ0yhqEKbsJSXGIX9yNvImZiEtJUnM2amM4iabBuwewsrpcOxlxs7XWYmQhBXTA6m0ohqGfyf5QMIqWggrrVQp9DfV0P6dkYFd3U3qhIhqx1+CqW9m696E5lD0jUpAmvn35PXFdUbibCiUX0xFLCqtws6iCvF8o7eVY8/7IyJCj6SEWMRERyEiQicm7X0JElUkrEhc0ZDdZnMrERPjojB3+kTMmZaD7HEpSIyP9qv57MvY/PEYrof6+noxbeUTY6quWJXIoxAlacUbW1YbmjJlyl5luP1xPKpPCoH+IKAIrP6gpY5VCIwdBFhxb/369b0OmDYG//rXv+T7k9+P9IhkPPTQQ3jqqaek6h/9pJhuP1RBLyoSWFRK3Xbbbb02W1NTIwQWv9M5FnpeeYLKp9NPP10KsdDLkkSWIrCGapZUOwNBQBFYA0FNnaMQ2IMAqwVu2rFb0gO3FZTBaLbAanMTTEyDmjF1IpYsnI2crAwxoA4LdVc2czodsJnMsFrN6HC6jdi7q2u4IWw2GEW55fbJcokZO4PEF9MDE2KjxKeJ1+lLepWatL4h4K0qX99aGdqj3D5U7nU1lEGVWW/V9kic0XtrMEHF4IZtRVi7sQAtBqMQsJShc80mxMdKimBUlF5UhH1R6RCDllYDyspr0NxikMIGHs+31OQ4nHD4AVgwc5J4v6lKgoOZub3PraioEK8LPpltaGgQ/wvOBSsLzZ07V7w25syZI+kMNKJVoRAYbQgoAmu0zagaj0JgaBAg4eNJCeytRVYGJJE11AQW26TtQvd7KKbc0eScflaffPLJXoTUp59+irVr10r1QFYyZPD4Rx99VDy1aABP4ssT9MV6//338eCDD+Lyyy+X6xgMBjFxpy8VVVn00PIE1VyHHnoo5s2bJymEHC+ju4n7LysH3nrrreKvxUqD9913n6RUMqjuXr58ufSPXltHHHGE/L27iTv7x/sTFWMHAUVgjZ25ViMdAgTcShibEEvf/rgNn36zEVReMWioyDS+hPhozJ8zVYir6D3pgUJQ0Z/HZoPFZITDZt3biL2zEx2uDvHMamg2oLm1TTyuGCRUggLdHj4JcdGIidT32cR6CIY85pogIajtpSrf/gCESj4SWEMdTGmliXtPQbKJHlj9CRKtNrtdyCqSViSvPFUEqWqj9xvTA8dlpiB8zw2Kt/b5vuPNCs3Y6W1lMLTL+yc4OEhUiJMmpOHYQ+dj3oxJqkiBNzD7+DrxZppgQUGB3Bjyhpc3ySQeWT2JFYqYIkjiiikH/PxToRAYzQgoAms0z64am0Jg4Agwlb474eOtJRqcs9IfY7AKLJqcH3PMMaBBOsmfU089FTqdDmvWrMEDDzyA66+/Xv7m+Y5mJUF+d1Nxddppp0mFQr1eL31hERYSVOXl5fKdzwdSbIfeXDRkp88lv/vpc0mlFisPkgi74oor5Fr0yeJ9AkkzGr0z7ZDqMloJkGCjsTw9uVatWiV9Znu8n+A5vJcgSXbccccJNvQJ433Ie++9J0QZCSxWKSRRyHOampqkiiGvNX36dLEyYN/UAzRvq290vK4IrNExj2oUPkSAG+XWNhPKqxskBWrdliJsL6yA2WKVzRw9e9JSEzFhXDqm5mUjOytDNulitu50wumgp5UVdlZVc+5NQtDEmoQYDboNbUYYzW5iSzaJoSHi4RMhvlZ6Icd6SvXy4fDHXNMkRbRhIX6laiN5RRJrqMPtlUYr930H0wc96iZv12b/6hpaJD2QaYJFZdV7UgQDodVqEBmpQ0JcDOLjY3utetj9OqxEyPcFzdjrGpphNlvkPRCp1yErI0m8rQ6YlSdpgpw3FYNHgE9IeZP5/+xdB3iUVdo9QNqkt0kvpJEECIRepEmxYsHe3XX3X9ct6lpXXXV1V3dF17Wtq25xV0VR7AULooggIL0lEEJIb5OeSSY9/3PeMGxAyoRMwkzyvs/DAyTf3O9+594p35lzzstvlPmBkG24raHsRqNRvq3lB1laBfnhVEsRGCwIKIE1WFZar1MR6BkCVCXTrmdLkcghgRQREWE3AuvWW2+VkHYSPrGxsdIwxd/fX7oUzpkzR8gjaxUVFQlxReKLpBtJIU9Pz0O/53v/k08+Cdoihw8fjv3798t7PTsGBgcHy3EkoEgsMYCe9yxUS9FiSKKKj3/11VelCzGL5NKll14qtkN2Cly7dq18piAJRRIrPT1d5v7222/LWPw5rYzsapiVlSVfoPEzCX8XFRUlc6fam12Nly9fjoaGBjkPP5PwPAyO1xr4CCiBNfDXWK/wJBGgzSkrpwibd2UjM7sAeYVlKD8Yxu7m6or44ZEYnZqI+LgoybUK8PcR0oNh7C1NTaKy4jcGJLGovrIWCQErYUVlCoPZreTEsKFD4evjBT9fT3gZDF0B23pjfpIreHIPO5Gt7uRG7d2jmH1GG6E9i3vNy/PYnfiopCKheqIyN1iQlVOIvTmFKCytQGVVHWitpcScYexGZlv5+cDbx8umHCrmbTGQndlWtAjy3yR6WaHGAEwbl4L0UQlIPJhtdaL56e9tQ6C6uhqrVq2SbKtdu3YhLy9Psq34rS0/vNIOMG3aNCQnJ8uHWFvsnradWY9SBJwDASWwDl8n3lzyZpVZOL0tKjdIjvNml7bknhSVIFSBlJaWHnaj3pMxeGxX9MMw6dhGkr6nSg7iQLUK7dbdO0f3dB7W4yMjIyVPkF8c9KRo7960aZPc9JMo6I06lpjw/CQFOJ+eFDEgSUJygl+M9CbqgmNRDUSyg+9B3QkZW+ZEEmbjxo3g+1xv8SDBwrxH2uN6M5Z13r1VYHGN+FyksopKJpJJXLPExMRDyqruGPF4Ksa4T8eOHXuYtdB6HMkrrhv3NN/v+by0Wvp4DJ9zFRUVh0HPNWEDFxJX3IPdi/leVIUVFxf/4DEkz7g/eM/VvUh40aZ45OsLx2EHRs6he/EzCYPnqdzSGvgIKIE18NdYr7CHCFBttWbjLqz4dhuKyypFIcWwaRaVH9OnpGPqpDSEGINEFUWCiW8IbS0taDxoD+QLcXfSio/lGLQHVlbXi8WKtihrphED2IMD/BAU4CPjkVzozZt9Dy9ZD++GgJubCzxsDBHvD+CkE2BTq5BC9ix3NxdR+R2rWlqZu9UVin60okVw/ZZMaVpQaybJ1JXlxoy28NBgREdFSO4b97Ote9lUUYX8glLU1NJC2yYfaKgQS4qNxML5kzFx7Ah4GzzANbJ1THtiNtDG4nrRRsBgWQbK8gMpbQjW1yV+aL322muFuOIHRn5w11IEBisCSmB1rTy/mHv++efx71ffQEdwMuDhj17Jwxnt2GbBsKp9WDh3uliP+HpzoiKp8dlnn+Hxvz6DyiFB6DAEYWhvrMydQGdbE4ZUH0BqVAD+9tyzNpNHJBB+9eubUWJxA/xjgGH/U7yc6DqO9vvO9jYMMZdiuE8b7r/vXiFLbHnPY7c4Wrk2ZBSgIyAenUOHYcjQo3cZPuG8iEdHG4ZYquBem4O77rhN1C+2FN9D/vjHR7Ds4xXoCErCEDdPYMhJzoPkYkc7hrRa4FGfi2suOU8sZSQ9T1Qk8Kj6+cfLr8DiE4dOD/+Tx4MnYxxIaxOGVOzFlLREsf8FBQWdaBrH/X1vCaxenVwfrAg4KQJKYDnpwum07YcA1U+0A+bkl2HFt1uwfuueQ5k97IbmZfBAXGwUZkxNx7ixqQcVUZ0Sqt7R3o5mSyOaGhvADoLdizffbQzBbmyCqbJGMoGsN4YkqJi1RLUVc618vA1gRzitU4sAl4DkFUkYRykq9mghJOFpz/IyuB83S41dD9u6qb54fktzM4rLqoS42p3VpdDhh2rJtvJwQ1RkGCLDQ8RCa0vx8czZKjdVIT+/GOaGRnkYu2myO+LIpBicf8ZUpI0YrkpEWwC14Rhizmwr3uhQms8bQKsEn4oD3jgylJ3EFf/WUgQUgS4ElMCCvOYz4PnJl9+F56xfY6inv922R2erBQ0bXsVPz07HLb/+1QkJc9qbr//Vb9GWeiHcw0f2jkTrdhWd7a0wb3sfSZ0H8Nqr/0VgYOBxr5HKl6uv+zGqIufCM3kOADt9luvsgCVnHSKrv8d/XnxG7FPHKypVfnvfA1iR0wbv9EUY4mLb+7AtC9halYe29f/AY/ffLhlFxyPTaGN79E9/wr8/Wg//OT/HUIP99khbXSnq1/4bf7j5GlxzzdXHnTo/g7//wQd48Ml/YciEa+Hi12XZs0d1drSiYeNSnJXshT88/HvpIHiypQTWySKnjxvMCCiBNZhXfxBfO2/MyypqkFdUhox9+di0Ixu5hWWi+GA3NGNwAKIiQjAicbjYBMPDuiwzHR3taG9tQ2tLs+RatTY3HyZ7JUFFssHS1IR6s0Wys2gRZFFJwtBsEmI+Pp7w9/EWJYmW4yDAD2UGD1ebrG79NWuSoFRCWbtQ2uO8JEtpHzzWh1Da+Jh/xf1McrekvEqeH5n78lFQYhIyjc8Hb29PaVRAm2BwkL9NcnpRlFmaUVdvRkVlDai6sli6rIoBft6SZzUmJQ5Tx6dgeFSoPS5XxwDA7kdUCfCmj9lWGzZsECUF9wBv0GiJoE2EGRZJSUk9tmgoyIrAQEdACayukOfb7vsDcsPOgov/8QmVk9kPbTXFcMtYhrdeXHxUa1P3MW/42U34rsYIz9T59iONrCfo7EDzdy/hrmvPwPXXX3/MSyGhR8XTG1tq4THmgpO55OM+hkqs+s3LcOP8JNx5+2+Oe+x3363DDff8BR5TrrcraWQ9aUvxbkzs3Iq/PPbocVVHQiz+/BYMmXUnhhpOntg51sW2mvZj6OZ/4ZvPP5Kcp2MVbXC/vP1ebOtIhnvMOLvvkY5mM9x2vYk/33adWOxPtpTAOlnk9HGDGQElsAbz6g/Ca6caaltGDrbtzpGQaQaz15u7VB8+3p4YmZKAkcnxiI0OR0R4iFgExR7Y2tqVa9XSJP+m8sqqpuJjW9mxy2xBbV0DGixNaKJ65aDliySVn4+XP+IuKAAAIABJREFUqK08Pdzh4eEmFkEtx0OAN/NUJh0v2Ly/Z83sKxJYnbRZ2KmY80Uy9ViiP56zqLQSGfvykJ1bjKKyStQcVBAy/y0oyB/G4EBpLuDlZbApD0maIdTUo7yiCtXVtairb5DAURJhMRFGTBmXLMRVfEyY5MmpItE+i80MCeZaMd+KeSRUXpG4YjFjYv78+ZL3Mnr0aMmv0FIEFIGjI6AEFvD111/jnmffQnPyhV22MHtXRztq1vwTf7v7Gpx91lnHHJ3vHanpU2BY8Fu4+PZN5k1L/macGViAxYsXH/PLGWYq3XrbHdjqO79PCD0C0Fy4A7GVq7D8/WXHRfvJp57BC18dgPe4i+y9KjJeR1MdQnLfxxP3/VoykY5VtOw9/uZauE68pk/mgc4OVHz0e7z29EOYNWvWMc/BvKVzrrsFnWOvwjDvrvBxu1ZnBxp3fYo7z03Cj370I5u+wDva+ZXAsuuq6GCDBAElsAbJQg/my6SahAHsX67ZirWbMuXGmaHYtGaRqIiJCses6ROQnjYC3l6eYn/qUlt1HGYPZKZVd9KKmFJdVV5Rg5o6swSxS/ZVJ5XsQ+DtZYAxyE/IK2uu1WBeB2e4dpIm3l4nzlXoz2thtlTTwRBze53Xw91VbHpHFp8rBUXl+GrddmQe7LRpbTBA4jUqMlzUiF3Zb7apB/kNNS2CeQXFMJsbhbSyqslGjYjF+QumIC0lDr7enkedk72uebCNwxurN998UzoFsesQbYJ8/eJrW2pqqrSsnj17tgTjMtvKlnyVwYahXq8i0B0BJbCATz/9FPe+8BEwahGGuPbNe2Xdd//BQz+ej6uvuvKYG5BZfUlpk2C8ZDGGevj2yUZtKcvCzCGb8PTTTx8z0J0Zgrfe8VvsCbuwb0gSAJyHd8YbWL/6+F3uHnjoj3hzRyO8Rp/dJ3hQcRSw/wM8ducNEi5/rPrb3/6Gv6/YB7exF/fJPDho1ad/xl/v+SkWLVp0zHMw5Hv2Zb+Az4wbMdTQN3ukce9X+MX0ANx00009bj5gnbgSWH22TXTgAYyAElgDeHEH66Xx5piKFSqhNu/Yhy++3YI9+wslz4c3aR4e7hLGPmZ0EmZOHYfhsZHyc97ckaSiwoqZVs0Wi1gGuxetU7wBrzU3Sq4VVVcsPp43hlS2BPr7wBjoBwazazkXAi7DhsLTgdaNZCjJK2sTAXug2WWTdAOvlcWx2ahg7/4irN6wQ5SJfA7xOGaB0SYYHRUuwey2dJ7jnElatbS2orTUhIKiUjQ0dD1PGBpPQpddBElcjYjrWVcje1z/QB2D5Dk7+bB74FtvvYUPPvhAAtlZzLby8fGRb82vu+46sQr2tMPWQMVNr0sRsBUBJbAgmXn3vvgJOlPP7zsCa/0r+OMNC3DF5ccODP8fgfU4hnr42LqEPTqutTwbM/D9cQksdj78zV33IsN4PoZ59y7M+1iTazVlwzdzKdZ+/flx5y8E1s4meI06s0fXaevBQmDlfIjFd94gofLHKgb8/31lDlxH299SaT1n1eeP45l7f4rzzz//mPMggTX3yl/Dc/pP+4zkbNz7NX4x3V8JLFs3kR6nCNgJASWw7ASkDnPqEaCqivk8Ofkl2J55AFt2ZktwOouB0GGhRsREhWFUSgJSk+Pg6+MtHUV4s03SSnKtmizy7+5KKwnRbmqRm/za+gbU1Tei5aAihuHVJAPYba3LJujpUPlJp35VnGsGJ+rM199XIxlUVAvaMcCdzQMYVF9nbkRhiQlZOUXYvucAykzVXV0EXVzg4+MFfz9fGEMCEeDnYyNx1YnGxibU1tXDVFkNk6lKnickvYIDfMUaOHZkPKakJyMiLEgtgnbaTMy2YotwtrxeuXKltJO3hrIzWJZqK95s0CrINvVaioAicHIIKIGlBNaRO0cJrB8+l5TA6tnriyqweoaXHq0IEAElsHQfODUC0ga+vApbdmVjR2auBE3z/+xsxooIMyJtZBJGJMYiKjIUocYg6bxGtUIrQ9ibmtHS2izB7EeqrZqbW7sIK3OjBFmTxKLFyqpgEcLK21PsVO7urmrBceqd1DV5TyqTXIY5zJVwf5sPhqnbY1JUVpVXVmPv/kJRWhWVVMj+ZnEfG41BEsbOvDaDwcOmPU0CuKamDmWmKtTU1h+yCfJ5wkB2hrGziyD/TYJXyz4IUIGwZs0afPPNN9i+fbuQWNZQ9sjISMyZMwczZswQAissLOyk8znsM1sdRRFwfgSUwFICSwksVWB13wOqwHL+13W9AudEQAks51y3QT9r5vKQtFrx7RZk7CsAw9mbW7qCrmkRHDMyCbNOm4DhMRFyY04rFG+o/2cPbBTlVWcHk7H/l45NwoCh7sy1qmuwoL2tXbKyWMzLoholONAP3p4eckPoSGHfg35T2AEA5l85Ung4lVcNlq4ulr0pjpOVU4h1WzKRX1wuFlurpdbb20uaFrDzppubq81EB0ngopJyFBaVHiStuhobMFtr7MgEXLBgKkbER0ooPp9/WvZBoKqqSuyBb7/9Npi/Qtsg14I1fPhwsQiyk2BwcDAMBoN9TqqjKAKKAJTAUgJLCSwlsJTA0jcDReDUI6AE1qlfA52BDQjwZpuB6RXVdVi1bge++m47yitrhLCiYoaklTEoANMnj8XkiWkI9O8KbOzs7EBHe5faytJgRquQXN0JK6C9g3k9baiuMcNUVSNKKxYJL7FbubshyN9HlCnMuNIamAhwvX0cLcC9tQ1NzV1qwp4U9zj3NInd3Vl5WL8l8+DzpSvEmzbBAH9fxMSEIyjQ3yalFc/P/Dc+D0tKTcgvKBGLIHFjtpWPtwHTxqfinLmTEBcVavOYPbmuwXisNduKVpVly5bhww8/RGVlpUDBIH2GsKelpeHqq68W4krD2AfjLtFr7g8ElMBSAksJLCWwlMDqj1dbPYcicHwElMDSHeLQCFTV1iO/sBx7c4qwZXc2du/Nkxtz3qTxBjwyPATxw6MwemQiEuOihcwiadXW2oa21ha0NjPXqgnt7W2HXWdrWzuamppF3VJbZ5Yw9rb2rsB2qkU8PdylG52fr7eorWwJr3ZoIHVyJ0TA0QLcOWHmX5G8tbVoca2srkNRaQX2HShCZna+ZLax2F2T1sDAAD+EGIMknN0WsoMECkPY+TwxVVShorLmkFUtzBiAxOERGDcqAdPGpyAooG86/dh6/QPpONoBaQvcsWMHVq1aJXZBayg7s61GjBiB8ePHH8q20lD2gbT6ei2OiIASWEpgKYGlBJYSWI746qxzGmwIKIE12FbcCa6X+VX7couxZec+6R6YX1SOyup6sfJROZKUGIPRqYmIj41CRLgR/n4+ciPe3tYmIewtLc1oa2mR/3dXWwkhYGlGDQmrBgssluZDtkNaAb09DfD19ZK/mYVEO5XW4EGAKiKGuDtS1Tc0/WAPH21+7CTI/DcSVny+lJqqxSbI5wWJKhJWJK4Yzk5FoS1F22FlZTXKK6pRW1sn1lqSWbQIJsVFCmGVmhiD4VEh8PHWbCtbMLXlGAawb9iwAV9//bWQVzk5ObBYuro4BgUFYd68eTjttNNEdRUdHW0TCWnLefUYRUAROD4CSmApgaUElhJYSmDpO4UicOoRUALr1K+BzqAbAgUlFfjrP99DQXG5qKOs6hPa96ZOTMO0yekIDPCVXCtmUIlVqqkJTY0NYhPkDfaRpBWzrtiNsLyyVkgrWgYZZs1iF8HgQF/JteKNPS2DtqhSdNEGHgKeBndQheUoJdaxxuPnX1GNuG33fmzctlcsgpbmFnkOcA/TGhgTHY6AAF8hfm1VEdIWWFxajsLCUrEL8jnI5xSfG9MnjMS5cydJILs1B85R8HL2eVBdxWyrd955R0irI7OtrrzySpx11lkICAiQbCt9nXL2Fdf5OxsCSmApgaUElhJYSmA52yu3zncgIqAE1kBcVSe+plffXYlX3/3q0BWMSknAGXOngX/TAsXQK9qkqK5qtjSiqbER7W2HZwTxZpvqESpQTNV1qKquAxUqLCqtSHx5GTyEuAr097H5xt6JYdWpnwABkgFenu4OFeBOcurI/CvubXbHJCG7JSMb32/bg4aGJrk67muqBhnGzlB2hrPbQnJwTJJUtNQWFJWiuKT8YLYV4OHuLrbA0yaMxHkLJiMkyF/3kp0QIO5UWxUVFeGjjz6SfKvu2VY+Pj5ISEjAtddeK9lWnp6qcrMT9DqMInBSCCiBpQSWElhKYCmBdVIvn/ogRcCuCCiBZVc4dbDeIvCft7/E6+9/fWiY+bOn4OwFM0Qh1dbW2pVp1dwsfzPrqntROdLY1AxzQxNq6xtgbrCIcsQaMm3wcBOrk5+vl2Rc2XJz39vr0cc7BwJUF9E26kh7onv+FQlYKqwKSyuwJ7sA2bnFoo7ifA0GD7G+Bgf6w2gMEnWiLdUVDt6Imtp6lFdUobKyRjpzMkcu3BiIxOHhmDAmCRNGJyEowMeWIfUYGxBoaWlBfn4+du3ahW+++QZr164FOwuySFIlJycfyrZixhWJSS1FQBE49QgogaUElhJYSmApgXXqX4t1BoqAEli6BxwKASuBRcsTQ9Vpexo7KhFnzpkEY4APOg4GrVsnTSsgiaraerMQV7ypp3KFRVLC19tTgqtpdzKIRUxvBh1qwR1kMq6uw+DhRgLLMSYk6hxLMyxNLdi7vwB79xeioMSE8oqaQ88LZr+FhATC388XPt5e0nzAlmppbRWyioHsDGZnQDvJLBJXacnDMWVcsmRbxUWH2pyXZct5B/sxDGXfuHEjVq5cia1bt2Lfvn2Hsq2Cg4Mxa9YszJw5E6NHj0ZUVBRcXTWDb7DvGb1+x0JACSwlsJTAUgJLCSzHel3W2QxOBJTAGpzr7rBXbSWwIsON8DR4YF9Ogdj+IkKDcdWFpx+yMJGkqqyqg6m6VuxOtAxas6+otKJiK9DfFyQmhg3VXCuHXXAHmZiHu6uEkztKVVTV4duNu7F5Z5Z0EWRjA2sOVWhIMGKiwsQiSNLKVtUYxygsLEFxielgtlUX0evl6YEZk0Zh4dzJiAgNlOcdyV8t+yBQX1+PL7/8EkuWLEFubq5kW7W1dWEfEhKCq666SrKtwsPDRYFl63raZ3Y6iiKgCNiKgBJYSmApgaUElhJYtr5i6nGKQN8hoARW32GrI58EAlYCKyYqVJRXRSUm7NpzQEgqHy9PXLpwpqiy2BGNpBWLBNUwl2Hw9TbAGOQvqiu9CTwJ8AfpQ6i6Mri7iQLpVJU1s62sohrfbNglwexUE7I4Lw8Pd4SHGREdFW6zKsqabWVuaJRsq5ISk1gESQgb3N0R4O+D+aelY8HMcTAG+Z2qSx9w56WajV0DmWf18ccf46233kJhYWHXa9WwYWC2VWJiIq644gqcffbZcHe3zfI54IDSC1IEnAwBJbCUwFICSwksJbCc7IVbpzsgEVACa0Auq/Ne1JEEVntHBwqKypCdUyQ39OwUODo5FjERIfD2MohahIQVc63c3dRy47wrf+pm3kXodHWg7O9iowHmWuXklWLnngPIzisWYpYkrZeXAX6+3jAGByIoyB9uNlrKGMhuNjd0ZVuZqlBdUytj0j4bHRGMEfFRmJiWhIljR8DLoOSJvdacxBWzrXbs2IE1a9bgq6++Qk1NjQzv5eUlgezp6emYO3euZFxpKLu9kNdxFIH+QUAJLCWwlMBSAksJrP55vdWzKALHQ0AJLN0fDoWAlcAKDw1CfGwESGBRfVVf34iiUhMaLV0kVvrIBMybMQ5+Pp7aRdChVtD5JuMybCg8PNz6tQNhVU09du3NQ2Z2vmRbVVbXCclEhU5wkL+QVsy48va2fX/zeWIyVcFUWY06Zls1djUx8DS4Y0xKnGRbjYiLEhKLzyEt+yDQ1NQkpBVtgtu2bZNsK9oGWVRbMdtq9uzZGDNmDIYPHw4XF8exqtoHAR1FERgcCCiBBSxfvhz3PP8eho65DENcPfpk4WvX/hsPXj8X11177THHb2xsRFLaRBgvXoyhhr5RELeU7cXMIZvx9NNPw83t6O+ZxcXFuPX2u7A34mIM8w7uEzxaSvfAY+dr2PTdN8cd/8GH/4il2xrglXZOn8yjo9kM//3vY/GdP8HkyZOPeY5nn30WL67cD7exF/fJPDho5fJH8Je7f4pLLrnkmOeg8nnOZTfBe8aNfbZHGvd8hZ9P88Mvf/nLk86tfOyxx/Dcc8/Bz88PS5culRxMLUVAETg+Akpg6Q5xKASsBFZQgC+iIoxCTtEO6ObmKn8y9x6AqbJWsn/Gj0rARefMFAuhliJwsggw+4oZWP1RpaZqrFq3HTv35h7KtuJ53d3dEBkegqjIMLh7uIlaylYbbKOlCQWFJSgpNQnZSwUWi9lWtAfOnzEOESFd2VZUm2nZBwHmWK1YsQJvvPEGMjMzhbSyZluFhYXhwgsvxKJFixAaGipqK76WaSkCioDzIqAEFqRz6t1/XYKm1Isw1M3L/ovZ0Y6a1S/ghd/9BGcsWHDM8fnlTEr6ZLjPvh0uAZH2nweA5gMbcE5oGRYvXnzM92OqbG+59TfY6rsALgHRfTOPvM1IqFuHD99987jjP/u3v+OZ5ZnwmXhpn8yjw1KLsNz38Pj9tyItLe2Y53jttdfw2JKVcJ18Q5/MA52dML17N5a++AROO+20Y56jpKQEC6+/FW2jL8MwnxD7z6WjHQ07P8Y9F47Gddddd9Lv8Upg2X9pdMSBj4ASWAN/jZ3qCv+zbAVe/2CVKETiYsMREhwgVkGSV6zWtjZs35WNopIK6ZzGbmkXnzNTlFi23vA7FSA62T5FgHSOex8GuJNMarA04UB+Kb5ZvxMZ2fmiiuJeZbaVp6eH5FqFhxpt7iLIzpskSurNDcgvKEG5qfKg7XCIkFThIYGYPyMdZ8wcLySWlv0Q4Lf+5eXlorZ69dVXUVRUJINTOUebYHR0NC677DIsXLhQvk3VUgQUgYGDgBJYQF5eHu64537sCZgL1+AEOy9uJ1pNOfDJ+QTv/fc5If+PV7fcdic+y+mEZ9q5GDLUvsrWztYmtK77Ox646Qp5TT9ePfnkk/jHl3vgMf5KDBlm53m0NcP8/RLcfsk0/PzGnx13Hrt27cJlv/gdXCddh2HeRvuuTWcHWgq24jT3PVj82GPHfX/bu3cvrvnR/6F52i1w8eE87PjFWWcnWop3w5D5JtZ89flxMyTr6upw530P4duaMHjETYG920y3myvgve89LL77xuMSaSdaCCWwToSQ/l4R+CECSmDprnAoBDZu24On/v0BTFV1kgE0JjUeIcaAw77ZYG5Qdk4hDuSXoKO9A4lxkThr9kRERxiVxHKo1XT8yZBI8vSwb/4VCao6My2vldh3oAg79hxAcVkXydQV4u0l9sCQ4EAEBvrZ/K1da2sXaVVdUyfZVjU1dUKGUT0WHW7EiPhITElPQVpqnGZb2XHrkSykTSQjI0OyrVatWoXS0lI5AwPYmW01btw4zJkzB9OmTYOHh5KGdoRfh1IEHAYBJbAgXxy+/fbbWPzSm7BEz4RLYAyGuPA1rzckRSc6O9rQVlMMt6L1+MVFM3H9ddce07Zn3RC0a99yz8M4MCwebhGjMcTVAAzpTTOWrnl0mCvRkr0aZ6b64JFHHhEr+PGqoKAAd959D7aYjXCPnYhhtDT2ah48Wwc6LHVoK9qKdN86PPXYw9K19njFL1j++vSzePO7HHRETYELVUfsUoOTVf92gmqnjpZGtJZnIaRyPf5w351iiz9R/f3vf8ff3vgMnUlUpkVhyDBaMHuzRzrQ2d6K1opc+JR9j3t+fjkuvOCC406De3X16tV4+Kl/ocx3DFyCEzDExR0YcrJ48HRde6S9vhwdOd/gmjmpuPnmm+Ht7X0iSI75eyWwTho6feAgRkAJrEG8+I546a1t7Vi3OQNL3l+F3IJS6b42IjEasVGhcvNvLd7M5xeVI3NvrnRWiwwLxtmnT5abeC1FwFYEaKnzMnjY7Yu5kvIqbM88gH0HClFQbEJNXYNMhfs4OCgAxqAA+Ph6wdNgsNnOx+YFzLaqYLZVvRkWS7MQV1RXSRj7mCTZ9yRwaT3Usg8CxHj79u2ittq8ebPYBM1mswzu6+uLqVOn4vTTTxcrRVxcnHYTtA/sOooi4LAIKIHVtTTNzc3yuvjWB8uxPacc9Y0tvXoPlS9i3FyREh2Mi8+ejXPOOQf+/v4n3Af87Ld161a8vux9rNmejYoaM4b24j2wE4DrUGB4WAAWzpmMyy695ISkkXWS2dnZeH3pW/hqYwZKqhokv7U3RUzCg3wxd2Iqrr7iEiQlJdn0ZZfJZMI7776HD1auw4HSGrS0ttn0uKPNtZOAoBNBvp6YlByJa664RLKvun8WP9Y1Mhvyww8/wrvLVyIjvwJmS/NJz4Pn4JfV3p7uGJsYgcvOPwNnnnHGCQlOPq6lpQXfffcdXn/7Q2zcW4g6swVDemHn57q4u7ogPtwPF50xE+eddx6Mxt6p3ZTA6s0zRR87WBFQAmuwrrwDXzff+LNzi/HY35ehsKRCrFXJCTFIiIs47A2QVipTZQ227MhCU1Oz3NBfcMZ0jB+d6MBXp1NzJATExufRu0DztvZ22a+r1u2QLoKWphaQYGV5ehoQGx2OkJAgybnqCcFkbmhAfn4JykxVkm3FD+us4ABfLJg5XmyCgf4+MHi420yGORL2jjoXfvBeu3YtXnnllUPZVq2trYeIq4suugj8Q7sgbYOabeWoK6nzUgTsi4ASWP/DU5TGdXVoaGgQVVZvi2pog8EgXw70pNEF58E58MsFawZhb+bCeVBZSwu4q42df63n43sHMSFpYo/i+an+Ii49icjg+TkPEo3Ep7fF9eB73YmUaEeeh59ZOA+LxSKfX3pyDUeOxesgccY8Sc7DFhLNOgb3J/cH94n1c1RvMOF1UGnNPdKTvXqscyqB1ZvV0McOVgSUwBqsK+8E111RVYeHn16CfbnFIFk1IiFa/pB06F6mihrsyNiP+voGIbvOmjMJU8enguHcWorA8RBg1pqba89US/wgRYKq0dKCXVm5+GbDThQUlaOjs1OIJFcXV/j5eSMmOly6Cdr6oY0fsjhubZ0ZeQXFqKiolg+fw4YNlWyryNAgnDN3EmZOHiWqMS37IECMrTceDGV//fXXpZMgf05yih/cY2JicMEFF+DSSy/t8Yd4+8xSR1EEFIFTjYASWKd6BfT8isDAQ0AJrIG3pnpFfY+AElh9j7Ge4SACtOPwW5NRo0bZfFNfUV2Hfy39HGs3ZYDZV7HRoRiRECPB7t2rsrpO7IRUZFGRMn3CSMyakqYh1rr7jouAt6ftnfn4RSb3WX5xOfbuL8T2zBxU1dTL+GwywGyrAH8/hBoD4ePjbbMqiuoqkq9VNbUoL68SmyDJE4OHG4ZHhSIlMRpT0pORlhIH1yPIW13e3iHAbCsG365bt046CnbPtho+fDjGjBkj2VbTp09X4qp3UOujFQGnR0AJLKdfQr0ARcDhEFACy+GWRCfkBAgogeUEizQQprht2zY89NBDcmN+2223YcaMGTZbb0hivbN8LT5auUEUKqEhARg5Yjj8fA8PTTQ3WJCVnS/ZWLzRH50ch3PnTZEOhVqKwJEIUNnkZXA/ITDsfJlXWI4dmQeQk18igezmxiZ5HC2CoSFBCAzwk/3IrCtbq6HRImHslZU1qK83o0nk/kCAn7fkWk0cMwKJseHSVfBI1aGt59DjfogAbSZ79uzBypUrsXHjRrBjEluhSw6Lh4dkW82dOxdjx46V3BE3t95ZTHUNFAFFYGAgoATWwFhHvQpFwJEQUALLkVZD5+IsCCiB5Swr5cTzZLjlAw88IDeLzBa49dZbccMNN9hMYPHSqb768MsN+PfSz0FHv5+vFyamp8DH+3ByimqWfTkFyD5QLN1TGGx9+XlzEBJ84kBQJ4ZYp34SCLi7ucDdzfWYj2TXwC27srFm4y4UlFSAYer8GS2B/v6+km0VFOgvGQgkw2yprtwQM/Lyi1FRVQNmK3FMVqgxAAtPn4QZk0YhMMAHtDfaaj+05dx6DCTb6rXXXgMJdZJW1mwrZlkwOPjKK69EZGSkdBTqScaGYqsIKAIDHwElsAb+GusVKgL9jYASWP2NuJ5vICCgBNZAWEUHvgZackheffXVV3Kjz44df/zjH0+6Y9fKtdvwwmvLUWdugLubG6ZMGAl/fx8MlVbBXcVQ7X37C7H/QBGonokKN+LCM6cjNjJECQEH3iv9PTWqr7oTTySXmltaUV1rxpad2Vi9YQeqD3YR5HHcv0FBAUJc+fv52LyXrNlWVdU1yCsoQXV1nah9GOjOxgPxMWE4d+4kTJswUi2Cdt4EzLaqrKzEmjVr8Oqrr4ryisVsK4bBsi35okWLcPHFF9vcbcrOU9ThFAFFwEkQUALLSRZKp6kIOBECSmA50WLpVB0GASWwHGYpBt5EysvL8cgjj+CTTz4RworkFcks3jiebFGt8t3mDLzy7krkF5lEQTMqJQ4RYcGH2axIGuTml2JfTiEaLU1iwzpz9kSMTIq1OZvoZOeoj3N8BBi2TgKLCqfWtnbJTssvNmHX3lxkZuej3myRi2Cemq+vtyitQoxB8PS0PTydqkFaA6uqalFmqkRDg0WIK+a3xUWFYmRSDKaMS0FyQpQSV3bcMnzu80aT1kC2zyZ5np+fL52yqKqKi4tDWloaZs+eLX962lnJjlPVoRQBRcCJEFACy4kWS6eqCDgJAkpgOclC6TQdCgElsBxqOQbOZKh6ePTRR/Hhhx+KcoUqh9tvvx1BQUG9vsi2tnbs2puHl17/FNl5xfDwcENiXCTiYyOPUNQAZaYqCXevqTPDz8dLgt2nT6TSRTsU9nohnHgAZqSRxGIYO0mrA4Vlkm3FjDWqc3x9vYSwCvD3hY+3l4S021IkqMwNjRLGXlVdK4HLgJPOAAAgAElEQVTszc1dLbWNQX6YnJ6M8aMSkDg8AqHBAUqm2gJqD47JysrCl19+ie+//x4ZGRmoqqqSRzPbauLEiZJtlZ6ejsTExF4R6T2Ykh6qCCgCAwQBJbAGyELqZSgCDoSAElgOtBg6FadBQAksp1kq55loQ0MDnnjiCbz55ptgYPK8efPw4IMPIiwszG4XQaLAVFmLPz3/FnZn5XUpK2LCMDo1/jBrF0Oxa2rrsSNjP6qq60SxRQJr/mnj4e5uGylht0nrQA6BAMP+d2Tm4Ptte1BVy/D0VlHnUI0VYgxETHQ4/Hx9hHglyWVLcT9yf+XnF0s3QRJh1jFjIo04b94UUVuxoQD3oGZb2YKqbcfwNWbz5s2SbcWcvfr6ejQ3N8uDqfw899xzcfnllyMhIUHUVpptZRuuepQioAgcjoASWLojFAFFwN4IKIFlb0R1vMGAgBJYg2GV+/EaLRYLXn75ZTz//PNg/gytOs8++yyioqL6ZBZ15kY8/e8PsH5LpljBoiKMGDMy8QfkFDu+bd6eJSQDSQnmDc2fMQ7enoY+mZcO6jgIkEhqYrZVdT02bN+DbbtzxFbKYnc/d3c3hIYES7aVwWC7RZB2VoaAV1RWSyh7XX2DWASp7mK2VUp8FBbOn4LxaYmSd6VlHwSIcUtLC+rq6rB+/XrJttqxY4eQ5SQGaVEODQ2VUPYrrrjCrsS5fa5AR1EEFAFnREAJLGdcNZ2zIuDYCCiB5djro7NzTASUwHLMdXHKWfGmkjeTzzzzDKjCInnFF+YRI0b06fVUVNVi6Uer8fk3m9HS2obw0CCkjogV61e3bHc0N7di994DKCoxSee3sSPjsWDmeLFyaQ08BNiRsrSiWrLS9mTnIzuvREgOCfA2eEi2VXBQAIzBAUJi2VJU9DU1N0snwcqqGpSbKtHY2EWG0aLKQPbRybGYOj4VCTFhPeq0acv5B/sxFRUVYg3csGEDVqxYgZycnINEpAtiYmIwcuRIybWaNWuWXezKgx1vvX5FQBH4HwJKYOluUAQUAXsjoASWvRHV8QYDAkpgDYZV7odrJDFA5dVzzz0n5NWYMWPENjh27Nh+ODtQW9eAT1dtwpL3vxb7VmCgH9JS46RbXPciwZVzoAj784pBgoOEw5mzJiI+NuIwsqtfJq0n6RMEGMCelVOAvTmFKCqtRGV1nXSmJHHFfRESHAh/ybbytNlORtVPbZ1ZCCt2Eaw3N8j+oeKHDQKmjk9Bemoc4mPDYQz0U4ugHVeWCroDBw5IGPu6desknN1kMolFkzbP8ePHi02Zf5Ms9/LysuPZdShFQBFQBLoQUAJLd4IioAjYGwElsOyNqI43GBBQAmswrHIfXyNv7pctW4bFixejpqZGsmYefvhhTJo0qV8VKK1tbVi7KRPPvPwBmHNkMLhjYnoKggP9DkOA6qv8wjLs2pMjSiwSDuefMQ3J8VFKPPTxXunL4atq6rBuyx7s3HMA9eZGUeNxb7q5uiI8LBjRUV0WQdoGbc2g6ujsREXFQYtgnRncY9ZsqxHxkZJtNX50Iny8DZJtpWVfBHbt2iWqTnYTZCC7NdvKYDAIaXXllVcKacVsK5JZWoqAIqAI9BUCSmD1FbI6riIweBFQAmvwrr1e+ckjoATWyWOnjwTkZn716tX4/e9/j8LCQoSEhOChhx7CggULTgk+HR2d+G5zhnQoLKuokW6DY0cnIiIs6AdkWnFpBbbtypYucd5eBlxy7kykJsQc1snwlFyEntQmBEg+WpqaUVRWiXWbM5CZnS+EJMkpklQeHu6IigxDRFhIjwL729vbxW5aZqpEfkEJGhoaZT5uri6i2qJF8PwFUzEyKQbDhg61aa56kG0I0IZMEpyh7CSu2E2QxTUlacUupmeddZZkW9EyaCsRadvZ9ShFQBFQBI6NgBJYujsUAUXA3ggogWVvRHW8wYCAEliDYZX78BoZoky1FdvXBwcH45577sEFF1zQh2c88dAk1TZuz8J/31mJ7NxieHi4YUR8NGJjwn4Qps38rN17DqC6pl4IijNmTcDEsSPg1YMw7xPPSI+wJwINjU0oKa9CbmEZMvflobCkAu0dHUI8ent5ws/PFyHBAQgK8u+RRdBiaZJsK1NlDUwVVWhqahaCJMDPGwmx4RiTGoep6cmIiQxR4sSOCyodHKuqxBpIwopWQb6eWPPK2ABi9OjRmDFjBubMmSMkuZYioAgoAv2NQHcC65prrsGZZ57Z31Po0fn2798vXy6y3NzcpPkFrdY/+9nP1GrdIyT1YEWg7xCgg+WTTz5BQEAAli5dKp93tBQBReD4CCiBpTvkpBFgy/r7778f2dnZ8Pf3F/Jq0aJF/WobPNbkGba9L7cIL7+1Apt37oObmytio0Il3H1Yt45wXdlGDcjMykWZqRquri6YPDYZp08fK6HcWo6DQEVVnaisSEoWl1Wgpq6r6x/X1hrGzmB2L0+DzXuQj6+uqZNsq5qaetTXN4hNcOiQIbJfpoxLxpiUOMlKI5Glih/77oeioiJ8+eWXkm1Fu2BpaamcwNXVVT7E0SY4ceLEQzZBxd+++OtoioAiYDsC3QksDw8P6XjqyEXCymw2H0Zg0WrNnMDun4Mc+Rp0borAQEeAucGMR6AIQAmsgb7aen32QkAJLHshOcjGKS4uxg033CDkFT8M3XbbbZJHw2/5HKlMVbX45xufYdX6nUI+hIUEYtyYEaK26l5NzS3YvisbtBW6DBuGkSNicfHZM+Hl6e5IlzPo5sIMqsJik9hCs3OL0GBplpB+Fi2C0VFhCA81yr9pG7S1aBMsK++yCJrNjUJakcyiimvUiOE4f8EUjEpiJ0vDD/aKrefQ446OABWSVFu99tpr+Prrr1FfX4+mpibBn8QVOwheffXVGDVqFHx9feVnWoqAIqAInGoEqqurRb307bffnuqp9Oj8oaGhCAsLw/bt23v0OD1YEVAE+g+BuLg4fPjhhzAajf13Uj2TIuCkCCiB5aQLd6qnTWk6P8jl5eXB29sbN998M6666irwW0lHq5o6M/619At8vW47WtvahcRKGxkvSp3uxRvonRn7kVtQBhIcVOBcfeFcVd7084KSTLJYWkRp9d2WDOQVlgm5QVWUi+RQeUkge1joD3PNjjVVKvK4pvxGuqTUhILCUjRamuRwhq/7entiwpgkLJw3GUnD2ZFySD9f9cA+nVUJsHPnTrzyyiuiuOLPiDNfM5htdfrppwtxlZiYOLDB0KtTBBQBp0WgvLwcmZmZYnF2hmL3Xd4Y86Z406ZNTjNvZ8BW56gI2BMBfmlHollLEVAEToyAElgnxkiPOAYCK1aswOOPP46cnBwhsW688UZcd911DpmtUG+24M2Pv8EnX21Eo6VZMpJSk2MR4Odz2NUxBDwntwj7c4tgaWpBeEggFs6fKhlIVGZp9Q0CYuWsb0BxWRX25xUjY18eaBnsUuV0kVYB/r4wGgPh7+fTI4tgQ6MFtbX1qKishslUjZbWViHDjEF+iI8Nx7iR8ZgyLgVhxgAlruy8vHV1dXKzxxsnWgVJYLF4UxUeHo6RI0fitNNOE/IqIkKJQzvDr8MpAoqAIqAIKAKKgCKgCCgCAwoBJbAG1HL2/8UwxH3x4sXYsWOHKCkuu+wy/OpXv0JgYGD/T+YEZ2xuacWKb7diyftfo7K6Dn6+3hiZPFwUWd2rra0dJWWVEu5Oa2FwoC8WzByPsakJ2qHQzqvKrpHMs8rYl48DBaUSzm5usMhZDAYPhBgDERToD18fbxgM7jYTTFRbVVfXocxUhdraOpgbGsF1ZddAkpHTxqdiVHIs4qJDNevMzmvK4WgxXrVqlVhtSGCVlJSIAo65KykpKZg/f75kW6Wmpkp+npYioAgoAoqAIqAIKAKKgCKgCCgCJ0JACawTIaS/Py4CzLMhecVONwxhZgbWueeei7vuusshfdxt7e1Yv2UPXliyHOUVNZKdNCplOKIjDu8sR+UPrYcbNmXC0tQEg4c7zpozEadNHKU7wg4IcB327i/Eui0ZKCyuEKKQP6OlzMfHC7HREQgODpD8qZ6EzZIkKSopR2FRGRoOklai4nIZJhbB8+ZOQVJ8JLw8PeRnWvZFID8/XyyC7CRoMplgsXSRkQwOnjp1Kti5a9y4cfDx8XG4vDz7IqGjKQKKgCKgCCgCioAioAgoAoqAvRFQAsveiA7S8RjKfPfddyMjI0MQIIn129/+FgwPdcTauCMLz/3nI1H8MANpZHIcoiNDfqCwamhswqZte1BdUy92trnT0zH3tHR4uDtWWL0jYtx9TsSupbUNxHPn3lxs2JIJBuxLttXQoWITDPT3Q0x0OAID/WxWWnUCaJfMrGYUl5ZLtlVLS6s8nuvq5+uFaeNTsHDuZERHGG0e19HxdJT5MQeGIewkr5csWSLEFUltFhWZbAs9Y8YMXHvttaK84lprKQKKgCKgCCgCioAioAgoAoqAInAyCCiBdTKo6WOOikBBQQEeffRRsQ61trZi3rx5uPPOOx02lHlPdgH+sfRz7M7KFZVPUny0ZCKRTOle9eZG7MnKE6vb0CFDMT4tCfNOS0dggC806vv4TwZaBCuqa1FUWoGsnCIQ8/qGxoMEh7tkW5GwCjUGwcvLYDPB1N7RgYYGC+rqzCg3VaKyqka6Ew4dOgRhxkAkDg/H+NGJmDw2WSygWvZFgNlWWVlZ2LZtG5iFx2wrayg7SWtmW1FxxdeA2NhY+55cR1MEFAFFQBFQBBQBRUARUAQUgUGJgBJYg3LZ++6iS0tL8fTTT+ODDz6QG9rJkyeLnTA9Pb3vTtqLkQtKKvDauyvx7cbd6OzoRHRUCFKSYsUy2L3YsW7/AYa7F4tKa0RcFBbOn4KQIM3vORr8VFvlFpQiM7sA+UVlKKuoEZsglVHe3p5CWAUE+MHXxwvuPVCz0SJYUVkDk6kKNXX1MJsbRfHj6uKClMQoTB2XgtSkGAyPCoH3EV0me7FN9KEHEaiqqsLKlSuxdu1asQ6TtLaq6JKSkoSwmjJliqitmIOn3Rx16ygCioAioAgoAoqAIqAIKAKKgL0QUALLXkjqOIcQqKiokO6EJLFILowePRoPPvggxo4d63AodXYC1bX1ePmtFfhy7VZQMcRQ97SRCZKT1L1InuQVlmFXZo4cR2XPNYvmIzIsyOGu61RNiPa9Lbv3Y+P2vTBVkrRqlT1AZRTD2GOiI+Dv7yOEU0/sZM3NrSguKZNsq6amZsnLInHCjKzpE0binLmTJJCda6bdIu2/+nl5eVi6dCk+/fRTVFdXo7GxUfCncpGZVtdffz0mTJgAPz8/uLsfTv7afzY6oiKgCCgCioAioAgoAoqAIqAIDEYElMAajKveD9fMG9wHHnhAbnibm5vFRvjYY48hLS2tR8RFP0xVTsEOhS8tWY4vvt0q/w4J9kd6WhK8jlDx8KY9v7AcGXu7OhT6eBlw2cJZGBEfPSg7FBIPklQkAbfsysbGbXvRYGkSTEluuLm5IiQ4EDEx4fD29rLZcslx2TWQ2VYFRSUoKTUdyrYyeLghyN8HMyePxrlzJ8MY5Ndf22TQnIfZVmazGfv378drr70m2VYNDQ1y/SSoSFRNmzZNsq1ITKvSatBsDb1QRUARUAQUAUVAEVAEFAFF4JQhoATWKYN+4J+YxNXzzz8vyo3KykpERETgvvvuw9y5c+Hq6upwALS3d+CdT9fg/S/WoaKqDv5+PhidGi9Kq+436FRflZRVIDMrD8zHCvDzxrzTxmFCWtIP8rMc7iLtNCFaBKmwKiypQGZ2PvbnFcPS1GURNBg84OfrjaAgfyGv2OnR1mK2ldncgJqaepgqqlBZWQP+zMVlGCJCg5AYG46JY0Zg4phE+Pt62zqsHmcjAuwayIYMW7ZsEavg5s2bQTKLZTQaJduKtuD58+cjLi7OIcloGy9VD1MEFAFFQBFQBBQBRUARUAQUASdDQAksJ1swZ5sub4iXLVuGF154AeXl5dKV8Oabb8aFF17okFYjBoF/s2EnXnvvaxSXVcLbyyCZWJHhwYfdrNN6WFVdJ0qsiqpaOW5KegrmzxwPV5dhzrZMNs+XqrO9+wuxd38BCkpMKCfB1E6L4FAE+PvCaAyUv729PHtE5tF6SLKqvLIKdbVmNDRaurKtXF0wJiUOU9KTkZIYLdlW2gHS5uWy+UDaftesWYPVq1dLR0FmW7ERg7WYYXfjjTeK2iokJMTmcfVARUARUAQUAUVAEVAEFAFFQBFQBOyFgBJY9kJSxzkmAgxzZx7WI488IrakoKAg3HHHHVi0aBFcXA7v+OcIMDJfaWdmLh5/6W1RYjFkfOSI4YiJCpUsp+7FcPedGTkoLq2Q7KVRycNx8Tkz4NkD1ZEjXPOJ5kCL4KYdWWITrDdbxGZpzUAKCw1GdFS4kHgknHpiJ+PeyCsoQWlpBSxNTWIbZHl7emDWlDScc/okhIcGCp4Mz9eyLwImkwlvvPGGWH2Li4sPZVvxLGPGjMGePXukGcP48ePx4osvIiAgwL4T0NEUAUVAEVAEFAFFQBFQBBQBRUARsBEBJbBsBEoP6z0CH330kYS519XVwWAwSEbW+eef75BKLF5tXpEJf3hmCQpLKiW7iXbC2OhQyXbqXk1NLdi95wAKS0xC6oxKisV5C6Yi0N+nR2RO7xG23whUVTW1tMBUUYt1WzKwOyuvq4sgs61cXKRLY3i4EdGRYT3qItiVbdUm1svColIUl5gOhbxzzKAAHyyYMQ7zZ4yXf2vZFwE2IiCJnJ2djbfeeguffPIJmpq6Msvc3Nwk24ph7Nddd538/cQTT+Af//iH/J5E16RJk+w7IR1NEVAEFAFFQBFQBBQBRUARUAQUARsRUALLRqD0MPsg8OWXX+LJJ5/Evn37RH3185//HFdffTWCg4PtcwI7j1JUWomXXv8Um3fuQ2tbOxKGRyIxPlIInO5FC1zW/gLk5pdKh7wR8VE4c9YExEQ6l92KJFVJeRVyC8uQuS9f/qaVj+onBtr7+nqLTZAdBd16kGNmJa1qautRXl6Jmto6sR7SbhkdYRS8Jo1JkhwxT4PtmVl2Xu4BOxybKjCQffv27YeyrfgzquWoqkpJSTmUbTVixIhDdtmsrCxcccUVQjozu+6ll14asBjphSkCioAioAgoAoqAIqAIKAKKgGMjoASWY6/PgJsdFSAbNmzAX/7yF+zYsUPUVxdffDF+8YtfSD6WoxWzrkpNVXjjg1VYuXabBIpHhBmROiJWLHPdi4RMflEZ9u7Lh6WpWULHz5g1QWyFhxsPHe0qgaqaesm2ysotRHEpCSbzofD04KAAGIMD4OfrA29vzx4Fd5PYKzdVoaKyGrV19WhsbBKVmpenB8amdmVbJcVFConl7uZ4wf6Ot1I9m1F9fb1kW61atUqebwcOHDgUyh4TEyOkFLsJMpydzz9mmXUvEld33303VqxYIQqtd999V8guLUVAEVAEFAFFQBFQBBQBRUARUAT6GwElsPobcT2fKHpoYbrllltEicUb44ULF4ql0NvbMTvLNTQ24bX3v8Y7y9eIaiUo0A8TxybDcIRaqKOzE2XlVdiRsV/IGh9vT1FiTU5P7hHx01/bpKyiGms37cbe7ALUN1jA7oIsdg6MCA9BVGSoWASZ79WTbCtzgwUFhSUoLatAa0sr2jvaQTKQpN+Zs8Zj3mnpCAvpyrY6Mlesv659IJ+HDROYO/fOO++grKwMDQ0NB62aQ5GcnCyqx1mzZiEwMFBI5GOtLcnGt99+G/fff78QXzfccAPuvffegQydXpsioAgoAoqAIqAIKAKKgCKgCDgoAkpgOejCDIZp8cb6Zz/7mQRFU5l19tln449//KPk8Dhqvb18DZa89zUaLE1dnQcnjBSS6kgCwFRRg+279gkpRLshlVjsUujmdmpD6xmS3tjULNbAdZsykJ1XLIoozt/FZRg8PQ2IiQoHg9kZyG5rkZTk2PXmBuTlF8NUUS1rSnLK0+CByLCgrmyrmeMGXMC9rRj15XHEmiRVUVGRZFsxb66mpkZO6erqCh8fH+kgyGyrqVOnys9sLdoIqcLauXMnwsLC8P777zus5dfWa9LjFAFFQBFQBBQBRUARUAQUAUXA+RBQAsv51mxAzbigoEBIq2+//Va6nZ1++um4/fbb0T2Hx5EumDlYtBLSUkhroafBgNGpcQg1Bv6gS15tXQN2ZebAVFkDVxcXzJw8GjMmj4bPEdbDvr4+ElTsHMhsqwMFJcjYl49SU7Uocqis8vbxQoC/r2RbBfr79UgR1drahvr6BlTX1KLMVIXa2nohxAzuboeyraaMS0ZaynAlrvpgofmcYbbV1q1b8c033+C7776DxWKRM5EITk1NxcSJEzFv3jyxCR7ZgMCWKbW2tuLRRx/F66+/LmrJ3/72t6Lg0lIEFAFFYDAgUFtbK18Q0GLNvE5H7J7MdeBrNTvLskJCQuQ93vp/WsQddd6DYQ/pNSoCJ0KAz9fKykq5F/L19ZUvHrUUAUXg6AgogaU745QiQLIjLy8Pzz77LJYvXy4fuHjDfccddyA9Pb1HtrX+uhDa7Dbv2Cfh7kVllfD09EByQgxiokJ+YBOk9XBvdj4Ki8uBTiAtJQ5nzp4AY5B/v0yXJBsJq5y8Epkru/+xaBFkrhXzrXx9vGEwePSIuGq0NMFkqkJlVQ3q6syS+WXNtpo0dgQmpiVhRHwkosONPyD2+uXCB/hJmG3FLLmvvvpKlFE5OTlobm6W50t4eDjmzJmDGTNmCGkVERHRa/sqz8PnJM9LMoyEFu2HWoqAIqAIDHQEXn31VckB5E0low5IDjliMeOQdm/W448/Ll9mcL7W//O9QUsRUAQcEwFmjj722GNyT3TRRRfJHy1FQBFQAkv3gIMiQOKD33AuXrxY7E/8ljMhIQFPPfWU5PU4YpFoKyypwMNPv478YpN00xuRGIMRCdE/mC6DzElikURiEFRcTBguPPM0hIf0DQHALog5+aX4btNu5BWWwdLcIvY+FjsJxsZEiNrKw92tx4ocs1gES2CqqEIzs63au8YNCfbHGTOZbTUWAX4+MrZmW9l/55JAooWP2Vb5+fkwm81C+rLi4+Nx1VVXCcEUFBQEg8FgNwKY3wheeOGFoJ0wKipKnquTJ0+2/wXqiIqAIqAIOBgCVImTxCJp/+abb4INMByx+GXGokWLZGpffPGFqMa6/5/vEVqKgCLgmAhQffXjH/8YGRkZuPnmm+WPliKgCCiBpXvACRD405/+hCVLlqCpqQlGoxEvvfTSSVuf+uNyK6rq8PiLb2PnnlyQOEoYHikdCo/MjyJJt2dfPrIPFAqZxA6Fl583W/7uSTj60a6JY9PaaLE0IyM7H+u3ZKK4rFIUUSQDORd/Px9ER4WL6qon5yM5QptgTW0d8gpKUFlZLWHsLsOGHsq2WjhvCqZPSJXOglr2RYD48yaksLBQQtmXLVsmZC+LdhAqAqiyInFF+21Psq16OlOSy9YAd6qxfvrTn6olpacg6vGKgCLgdAgogeV0S6YTVgScDgElsJxuyXTCpxABtRCeQvD11D9EgJL3f/7zn3jllVdQXV2NyMhI/O53v5OOaeyW5ohFsujV977C6vW7pNteVEQIUpJiRO10ZOUVlCFrfz7YpS/A3wfnzZuC1KQYycjqaZGgqqqpR1FpBbJzi7F7Xx6Yu8Vi50CGywcE+CHEGAQfHy8MHTLE5lM0N7dIIHtVdR3KTZWScyXZVh5uiIsOQ2pSNKaMTZFsq2HDhto8rh5oGwJUPOXm5oo9cNWqVVi7di0oL2cxF4EZcbTakrRiOHtfElfWGTc2NmLBggXS1XD06NH417/+JUovLUVAEVAEBjICSmAN5NXVa1MEHAMBJbAcYx10Fs6BgBJYzrFOg2qWvFGn0uS5554Ti1R0dDR++ctf4vzzz++XG/WTAbuiqhbvf7Ee73y6RhRKtNSljUyQToXdiyRQmakamVm5qKk1C8k0Z+oYTBmXIrY7W6q1rQ0FxSbJtsorKpPxGi3N8lAvLwNCQ4IQGOAn2VbMuupJNTRaUF5eicqqWtTVm9HU1DVuUICv5FpNGJOExNhwhBkDpGuhln0RIHG1bt06ybbavn079u3bJ9lWLIYHM9tq5syZQiDxeUGFXX/WE088gRdeeEGsp8ytO+OMM/rz9HouRUARUAT6HQElsPodcj2hIjDoEFACa9AtuV5wLxBQAqsX4OlD+w4B3rQzNJUdz2gnpFWK3QkdufsZM6G+WL1Fwt0Z9E4yacr4VPj6eB0GFEmsuvpGbN6+RxRT7m6u0p1w/mnjfmA97P7AtvYO7Mjcj++3ZaGkvBKWphbJP6IlMMDfDzEx4QgK8IOLqwuG9YDY4HxqauuRl18soextbW1ob+/KVQo1BuD8+VMwbUIqgvx94eHhBtt1XH23PwbayMy2YhODpUuXHsq2Yr4Y15ZE1eWXX45zzjlHMlg8PT17ZAO1J1YMCb7gggtANRaJtJdfftmew+tYioAioAg4HAJKYDnckuiEFIEBh4ASWANuSfWC+hABJbD6EFwduvcIrFmzRkgs2pZItNx111249tprJaDaEYvEz5drtuLlZStQXVMPdw83TBibjOBA/x+Emre0tuL7LXuENKJqa3J6ChbOmwzDQdUUr5ekWE1dA3Zk5ki2Vd3BLoK07TEDKTg4ALHREfDz9e4RqdHe0YG21jZUVtcgP78E1TV1gq/LsGHw9vJA4vAInHP6JMm26m+VjyOuq73nROKRJFBFRYWEslNxyD3O4rp6e3sjKSkJV155pdj2HGW/UxFJS+/HH38sc92yZYuQy1qKgCKgCAxUBJTAGqgrq9elCDgOAkpgOc5a6EwcHwElsBx/jQb1DKlCWb16NWhdYgc05mD95Cc/wfXXXy9qFEcshrR/u3E3Xn13pXQqZBZWclIMoiOMPyCD2KEwI0ZW0zcAACAASURBVCsXhUUm0Bo4MikG82aMl66GzNbak12AfblFaGhskks1GDzEGhgU6IeQkCAJUu9JNTW3oK7OjKrqGpSVV6KhwSIP9/X2xPCoUDn/1PEpSIqLOKlcrp7MZTAey/1szbbivv7mm28OhbJTWcVsq/Hjx2Pu3LmScUUyy5GKJCftjX/+85/FzsvOXJqD5UgrpHNRBBQBeyOgBJa9EdXxFAFF4EgElMDSPaEI2I6AEli2Y6VHniIEaGn7/vvv8fDDDyM7O1tCrC+++GJpMeuo6o+Ojk7sysrFP9/4DHv2F4r1Lj42EkkJUT8IU6fKKjevBFk5BWIJNAb6SzB6eSXtfO1CelFhRcLK389XcrPc3FxtXg2SDvXmRsm2qqqulXB2hrSzjEF+mDouBeNGJYjqKlS6FNo8tB5oIwK0xG7evFnIn61bt8o+ZndBFolY2vGYb8WOgrGxsQ5HXHW/TM47MzNTyOS0tDQbEdDDFAFFQBFwTgSUwHLOddNZKwLOhIASWM60WjrXU42AElinegX0/DYhQGKHypWbbroJ+/fvh5ubm3RgozLLUexVR7uQkvIqPPufj7BpR5aQUtGRIRgzMkFCsLsXrYclZRXYvD1LSCzW0KFDpINgdFS4EFjMtupJJ0GOUVFZg/yCYrEItra2HcrMio8Jw7lzJwt5Rcsgc7iYt6RlXwQYyv7pp59KthUD2Zl1RRUWy2g04oorrsDChQsRGhoKLy8vXQP7wq+jKQKKgCLQawSsBBZfo3/1q18hLCys12P2xQD8YuSZZ56Rob/44gv5kmTRokXy/3vuuQfh4eF9cVodUxFQBOyAABtYsXlVaWmpfEHPP1qKgCJwdASUwNKd4VQIFBcX49e//rV0aGNNmTIFjz/+uHwwc1QCpqyiBi8uWY71W/aA2VMksUYlx4kq68hav2kXSsqqpJPgyJQEsQz2pEiO0JZoqqyWUPb6+i6Vj6urC7wMHkhJiML5C6ZibGrccQPje3JOPfZ/CFDtxmyr8vJyIa7eeOMNlJSUyAEkLakejIuLk1D28847T1RMWoqAIqAIKAKOi8AjjzyCV1555dCXD447066Z8bOQlcC68MILHX26Oj9FQBE4AoFbb71VyHItRUARODoCSmDpznAqBHJycvD73/8e33333SFSYMaMGbjzzjuRnJzssCRWRXUdXn/va6xYs1WyrsJDg5E6IlbsgN1r/ebdKCmtRFJiLBLiom0KUCdpYmlqFrKqorIapopqNDZ2ZVv5+XghITYcaSnDRW3Ff2vZHwHaXAsKCpCRkSGZbfzDgHauDRWCiYmJGDt2LObNmyfZVo6sGrQ/OjqiIqAIKALOiwCbbLz44ovy5YQ9i190sPhFBr/csFfDFH6h9/e//106Ct94442gNUlrYCHANeUXlszJZJSGo+VlDiy0+/dq+Pnw7rvvxhlnnNG/J9azKQJOhIASWE60WIN9qvn5+dKRkHlYrJSUFOzZs0feuEkKPPjgg9K5zVGLQeyffPU93vxoNcyNTQgM8MWolDgEBfyvi1tPCCySI7V15q5sq5o61NebxSZI62FkWDCmpCcjfWQ84qLD5Bz8uZZ9EeANAjOtmG3Fjnx79+4FO/WxaDeZPXu2/BkzZowor/RDpn3x19EUAUVAEehrBGjF45cTTU1dzVTsVT/+8Y9lKDbuYHMaNvLobVF9FRwcLF+asPieVFVV1dth9fEOhgAtobSaxcTEyN7h31oDAwESWKNHj4aHR88cGAPj6vUqFAHbEFACyzac9KhTjABtWD//+c+xe/dumcn8+fNx77334uWXX5ZOaPzmkm/gzz77LFJTU0/xbI99+pbWNnz13Xb8+83PUVPXAE9PD4wdlYiwkK6OirYQWMzLotIqN79IVFcMerfmZiXHR+H8M6YKceXXw7B3hwXNASfGGxmSVrQIkkRlthXJLBZvHthkgNkj1mwre32zfqqh2LBhgyjLjlX8wMVAembUWYtEKy2/RUVFP3gYLcDE60TF/c2OjZs2bUJNTY10ayS+x2viwBvOzz77TObLm7mLLroI/v7+JzqV/l4RUAQUgX5BwEoyLViwAI899pjDNqXpFzD0JD1CgOocOhL4eXfx4sUO/bm3RxemBysCioAiYAMCSmDZAJIecmoRMJlMYhtcsWKFWLJoxWKoKhVYFosFTz/9NJYsWSL/JmHAD4JTp051WLULr+HrdTvwz6Wfo6KqFgaDO9JS48VW+P3WjKNaCNva20VdVVpWgYKCEpgbuqwMbq4u8PXxkkwrZlulJkaf2sUaoGcXm6bFIt9kM1uExBWbCvDnzLai2ioiIuJQKPtAJEpqa2ulQyL/PlZNnjxZ7L3dmxSwY+GPfvSjQ8pJ62ODgoIk2D4gIOC4u6asrAy/+93v8N///hetra2HjiXezKVh98bu5yO5+Pzzz+Ohhx4SxQSJRRJgnPv777+P9PT0AbpL9bIUAUXAmRBQAsuZVsux5qoElmOth85GEVAE+hcBJbD6F289Ww8RoLLlr3/9K9588000NzcjPj5ebkynTZt2aCTeUFOFRTWW9Sb7N7/5Dc4880y4urr28Iz9d/imHfvw8rIVyM4tgrubG5KTYlBaVoUyU5VkYMXHRaOpqVlsgpWV1Sgvr0JzS4tYAQP9fRAfHYYxqfGYMi4Z0eFGtQj2wdKR+KByiMq/NWvWYNWqVSLbF/LQzU2UPbQHzp07F9OnTx/Qku+nnnpKLLyUtlM11V1VxvwvElV//vOfcccddxxaCZJHzI755z//KZ27ujdaOPvss6Uhw/GKXRzZledvf/sbRo4cKWRXXl6e2Db52hAdHS2vDdbXA67Xhx9+KI0dOE+SXFy7lStXCvnI4z7//HPJm9FSBBQBReBUIqAE1qlE37nPrQSWc6+fzl4RUAR6h4ASWL3DTx/dxwjwhvj111+X8FRaBPl/qjyOLGZUfPTRR6K+4o1tVFSUdPC45JJL+niGvRt+X24xXnn7S2zcsU8IKCpJmptbEBYaDA93d9TW1YvaiuorFvOspo1PkVD2hNgI+Pt69W4C+uijIkDixUp80LbGHBG2OKbiiuQHFX6nn3460tLSJNtqoGcVkBimbXfhwoVij6R6qjuB9ac//Qn/+Mc/sGvXLsHDWlRPXn/99WAnrPPPP/8wAsvPz++EuPHx//d//wdabK644gqxAJLAIilGuzAVWb/4xS/wl7/8RRSXfO5zLmzowOMZjkzi6g9/+IOEGvPxVHJy3bQUAUVAETiVCCiBdSrRd+5zK4Hl3Ouns1cEFIHeIaAEVu/w00f3IQIPP/wwli5dCqowIiMj5aaVtsFjFUkHKmSoEmFOjre3N2655RZYg1L7cKonPTQJkbKKGry45FOs25KBjo5OGYvkAH/HP64uLkJYXXDGVKQkRMPL00Osg1r2R4B7iEorWlJ37twpij6rbY37ieQNyRja0fj/gZJtdSIk9+/fLwQxc+iOJOtIMt1www1C8PH5111lRfKZz1uSW8yt6mlt3rwZ//rXv/DEE08cFnDMdaF1cNu2bUKM/ec//xF1Frsy0XIYGBh42DyZn8W1oyLz66+/Pu7rSE/nqMcrAoqAInAyCCiBdTKo6WOIgBJYug8UAUVgMCOgBNZgXn0HvXZaBamWeOmll4S8Yq4VbYPz5s077Ob4aNOnhYgWoUcffVSsXlRg/PKXv8R1110nOUWOWvUNFjzz8gf4blMGmHfl5uYKH08DJqUnY+G8yUiIDcfQIdpF0N7rR4KQOUlU6ZDkeO2115CVlXWIROSeoZqPpBXVfFQNaR2OwNq1a4UkJlnM55q1+Dxmdy1aC2kfvOCCC0RNRRLa1m5bJA9JSh1N4cbzPfPMM0JM0T58PFsgXxOuuuoqjBs3Tl4frJlZHJ/EG22inCOVZQx9LywsFIso29HzZywex99xr9BCSXsiX1+sxXlSAVZeXi6Ppb2RRDobUPB1jGPxtYwEHxWlbINeXFwsZBvH4l7rTv7pPlMEFIGBjYASWAN7ffvy6pTA6kt0dWxFQBFwdASUwHL0FRpk8+MN5bJlyySYnTd47DJ2++2349JLLz2ss9nxYKGKhjYhjpGdnS1j8Ob1pz/9qUN3IWtuacWbH61GYWklRiZFY/qEVIQEade0vngKkOgkwclOdQwdZ0dBkhgktEhKDB8+XGxmtAnSLqjE1dFXgaQN1VVsskACkNY9a3355ZdCbFVXV4MWXxZxvPHGG8XeS4KnN3XTTTdJttbNN98smVfHUsOReLr//vtBou3f//63ZJax1q1bJ3NmKP/3338vWVsktmhNpLKLryNUeVH9RTKOWXzLly+XayGpdeedd+Kuu+4S0okkHfcQX3e+/fZbCa1nN0aGyfP/JEmZ4UXCjdfNc1FdSvUalXwk2Gl9PF5Xxd5gpY9VBBQBx0NACSzHWxNnmZESWM6yUjpPRUAR6AsElMDqC1R1zJNGgOoIdhikaoF13333SZaNwWDo0ZgkKGg/YmbW9u3bRfHB/B7aCx35JpHzbmltg7u7G1Rv1aMlt+lgEi5UWJFc2bhxoxAPJFhYJK6s2VZU6vDmorvCxqYTDLKDSA6RSKIqiXbB7h0FmVXFLoO09BHrt956S57XfC5ec801QgydbJg6CaFZs2aB1kYSQczIOlqRlKSFkX94/AsvvHBIUfXJJ5+IXZRkktlsxowZM0RZRdKS45OwouKKPyfxNmrUKLFBkpDiOUlcbdiwQYgpEmCrV68W5Sf3E48lUcVwf752sYMiX494LFVpxIB77cCBA3J+KrLee+89nHXWWYNsB+nlKgKDFwElsAbv2vf2ypXA6i2C+nhFQBFwZgSUwHLm1Rtgc6fqwZqlw0t74IEHcOWVV/aqkyBvou+55x65wWTIM29iSWrRtqM1eBAgccU9wG6VJBJo9aKti0VygsQBiVI2CqAixmoxGzwIndyVkiBiUwV2E6RS8mhdP6lqs1gsYpdjd9CPP/5YiME33ngDixYtOqkTUzlFSyc/xNM+SMvekfXggw9KfhbJNZ6fNkQSSrSJkmijwooEFV9jmN1FtRiVXAx6J5FMRRTHYCj9k08+KXuEY5A0+8lPfiLqLRJjP/vZz8TmyMcwsJ7XRUKNnRP5WBJd/BntlTyOdmhaKUnecR/efffdQqzxdYoEmJYioAgMDgSSkpJE9XvOOefgkUceOWlCf3CgpVfZHQG+dzKnMzU1FYsXL5a/tRQBRUARGCwIKIE1WFbawa+TN3Z8Q6aly5pbRcvf0W5Me3optBHS4kQCg8WbSyq7mEmjmTM9RdN5jqeKhhlEtI6RuOLeIslAqxkVMEajUXKZmKHEvaDVcwSoqmIWFUkkW9RDVCfRXsdA+DPPPBOffvppj09K0odkkFX1FBISctQxSFzl5ubKORjynpOTI68tbA5Bso3PfSrIGExPgokKMpJZ1qIlkLl706dPl+uzhtDTQkiyi1ZnWhM5nrVIurPjIUkpvuZYs7uoAiXZxte5d955B7Nnz5aHkESjrZDzoY2QSi0tRUARGBwI3HbbbWJhpw368ssv1y9OBsey2+Uq+ZmGdncqhPk+1F39bJcT6CCKgCKgCDgwAkpgOfDiDKap8cbud7/7HbZs2SIEExUO9nxDpm2M6gqqJnjjyhtT3nh3z+wZTHgP1Gvlt9kM0aY1kBlHK1euFBKDRVUVs62YgcR8IuYbObKd1BnWiAQgSSkSRPHx8SecMtfns88+kzw6KuCYAdWTIuHDDpFUPlEhZSWCjjcGz0kSk+fcu3cvLrroIsnCovLueAQW7YXcJ1OmTJHrs3ZApd2PBBbJO1sJrN27d8trDjP++Dj+m8XXPd6EUJl27bXX4pVXXukJHHqsIqAIODECfP3Jz88XpaYjN5lxYogH7NT53kEFFhuAHOtLnAF78XphioAiMOgRUAJr0G8BxwHA2v0rISGhT6T0tDuxu+Hbb78tSpyxY8eKbYeZNFrOjQBJCirtSFitX78ee/bskSYA/DkziNLT0zF//nxZc9o29Gah9+vNPCvaFtgg4amnnrJZLUlCkSqsHTt2iL2vJ0X7J9VNzNC6+uqrbbYXcx9wjlQ8cB9QUcXukkpg9QR9PVYRUAQUAUVAEVAE/r+9e4+59Krr/r8TiSEx8SwWOSNitFSUAgqNVTyUp1BKEaqc1KgEkBSpShVFgkVUKIJ4xJZiNOIBpUUFrNIaTloEgdKIh1aDQlFAiQoqMcY/nrzX73fNc3eYGe41tKszndeVNLQz695r79e+bva1P9d3fRcBAgRuWQEB1i3rb/bFAh/5yEd2l1xyyfgCWwVIPY/qO1ND5ZvrqJF1DZr70u5O2U2r3F3IlmdVuVKj8JYMtmNcR8tPt95WLf+q55DeVjedf32bCpPaaa8wab9HTd2rYCqw3pb17udnb7jhht0555wzKpVqHD/bYL+As/DyoQ996KioqmG7AGs/8sYQIECAAAECBAgQODYEBFjHxvvgWSwUqIdNfWfqeVNz55Y+1a+mEKv+SDfl8cEPfnAsM3r961+/O+WUU0YvppqEO45eoICq4KEd4PJs2WkVNi0NrbfVSSedNPoNFar0746bXqDgsEqmGpq31K4geL/H29/+9tHEvGXC55133o1+rMrI3se9vel6b+tfVY+oM888c/Sv2/v37SBYv7M2ZjjS72/LLdpdsvCrHQbb1OGTDbBa9lzPq+04XA8sSwj3e3YYR4AAAQIECBAgQODwAgIsZ8cJKVCIVSVWTZP7Atx21k9/+tPHLmU3VYhVpUlfbuv5U7VI/YIKs1rS5pgXqGKn3lZV7Vx11VUjPCnwKIhoOdjJJ588ehbVF6kG7Y6bT+Dd7373CLBOO+200ZT84KPqxq3fXEt0t10/WzLY70SBTuHj53/+5x/40UKqK6+8cneHO9xh9Ccr6O39balhvzeFke12uP1+FmzV0L3qxvrltTywXRBbotjP1Vemc6Oj3lPtKPhbv/VbY96ed0cVmYVpNWSvL1aVYduxNXG/733vOyq2Or86mrNxve4f+IEf2D3/+c8/8DPPeMYzxn/X06pdxbbf9a2Je8+j4HxreF9Pr8K0Huebv/mbd694xStuvjfNIxMgQIAAAQIECBA4zgUEWMf5G+jpH71AlTx9cf35n//5sZypneie+MQn7h796Efvu7fO4Wbv8foC+5rXvGZ8ia5xdDuNbV/kj/5Zn1g/WUjx3ve+90Bvq3YSrEl7f95ywK231amnnjoa8uttteb8qPF4YU3Bzrnnnvtxk7Zc7+yzzx5hT2FUwXC/B4W5NX2viuoBD3jAjcLiNlXocb/0S790LPG93/3ut3vXu961O//880do2fK/vbuSdg4UPheW9TtcdVZN4evJVWVlIVXPoXOiwLOdBguKHvWoRx0Itjq3GlNI1hLfSy+9dJxXBWAFbVVmFo62XLKt7qv8qr9aAVa91tpwoiCr5anN2Zg3vOEN489rNl+Q2vPs39s5sQDrwgsvHAFXHtuOioVqNYmvmu1zPudz1ryJZiFAgAABAgQIECBwnAkIsI6zN8zTvWkF+kJ5xRVXjKqJKqbala6lTe1YNttjZ3tmfan+qZ/6qVFN0VKrvsy2tGhvtclN+ypunY9WlU9f7NtBrt5WLRPraJng6aefPpaUFWpUqVPljWONQNWL/X70e/NP//RP4/04+CjMKbAp4KpiqkqkwtvCpZbwVWV1cD+yrXqpXSILsKrcKvx685vfPAKlwx39fjW+xyzAqsdV/dA6J9ppsHnb9a/qrXqhbfNW+VT/rr//+78fv6e3ve1td/e///3HuILtwraWGPb861337d/+7WMJYpVcVYv1/x0Fav1ZW5kXXBWEbX/eZhQXXXTRrkquqq4KXjt6TlVjFmoXkBWI5dU8nc8XXHDB+P8gBwECBAgQIECAAAECNxYQYDkjTniBKiT6slrFVD2r+kLel9h2Optd7tcX0Ze97GVjt8MqvKoQqqqk6i7HkQWqpGlJ1zXXXDOCq0KIllhV9dL78Jmf+Zm7Bz/4wbvHPOYxo2+Z45YRKKDpPer9Krg50tEyzwKiQqQqjA4Vdm0/X4j0R3/0R6OfVsv19va5mnmlH/vYx3aFn+1C2bLDlhJ27jgIECBAgAABAgQIEDi+BQRYx/f759nfhAJVSrzgBS/YtWtgX7TrjdOyopYH7efoC3274RVYVaVy73vfe1R21V/LcWiBwsOWlF133XUjsGqpV/9emFGA0fKte93rXmM5WD2X2jnOQYAAAQIECBAgQIAAAQInnoAA68R7z73iIwgUorTspwqTlhC2zKdqrJYQHemoKmWrvCq8qvKqZYMth3IcWuD973//WF519dVX7+ptVfVbS8Va+lUfpJaGtYysZV8qaJxFBAgQIECAAAECBAgQOLEFBFjH6ftfr5eqVdrNq94t7bxWU+Rt161DvawaK1fdsveo70q9WgoJHLvRcDnTGi3XQDrPgpQf+qEfOuwywEKXdjd74QtfOJbAVXH1nOc8Z9fuZTfVjoa3lvcmqyrcampdz6Cqr+ptlXtHPY8e97jHjeCvXkFHOp9vLSZeBwECBAgQIECAAAECBAh8YgEB1ic2OqZG9EW/ptbnnXfeaBi8ffFvuVXbsLcb16GWWdWbqSVYVbvsPdp+vgbINRV2/D+B+va0Y9m11147qoLOOOOM3bOe9ayPC7H6u4KYmjHX0LpG7YVXNY2+uY92UGvJYqFZDbCP1eV1Vae121rn68tf/vJx/vZnHfW2ate1AtiashemOggQIECAAAECBAgQIECAwMECAqzj7Jz48Ic/PHbDet/73jd6A3UUslx//fWjb1AhVkvZ2plt79GuWm1df3A/pjvd6U67duM6UnPl44zoJnu6LWl77nOfO5a51d+qkOUHf/AHb1St9pa3vGUEVlUVfd7nfd4wPuuss26y53CkB2qnw1/6pV8aodlP/uRP7r76q7/6qBtf3xxPuGCtir+3v/3tuz/+4z8ejbU7R9sFrudcU++agD/oQQ8ava6Otmn3zfHcPSYBAgQIECBAgAABAgQIHFsCAqxj6/34hM+mretf9KIXja3cW6LW8ba3vW3895ve9KbRK+gVr3jFqLbajnbjakv7+go96UlPutEcLT9sqZbj0AL//M//PJqyX3755WNXwVNPPXVUZvW/b33rW0efq3Zaa5e1lhmec845y4KYKrAKy3peNZz/nu/5ntG365Y8qgj80Ic+NKrS3vzmN4/eVlWmFVx1fMmXfMk4N+9///uPf9fb6pZ8t8xNgAABAgQIECBAgACB40dAgHX8vFfjmZ5//vmjT9DZZ599oL9Sy9he/epXjx3zqhRq57uWGG5HW9NXOfTKV77SjnhH8X7/67/+6+hvddlll40gpsqh/H/zN39zVMJ92qd92u77v//7d49+9KN3n/qpn3oUMxzdjxQWfe/3fu/uNa95ze7ud7/76CtVFdgtdRSo/cZv/Mbuyiuv3FUp2LLVnmNN2QusvvVbv3X3FV/xFWNXx5VOt5SHeQkQIECAAAECBAgQIEDgphMQYN10lkseqV5CBSYHNwdvuVsVWS3bakngE57whPF82hHvggsu2L3kJS8ZwcGDH/zg8Xc1fO+/9y7bKpzp8as6KmBoeeG///u/7z7wgQ+MYOz2t7/9WPrVz3zsYx/bVdlVdU3VR1/wBV8wntf2eIVqzV2T7h6zpYs16+6x+7OTTjppPF7hRhVEPVa70rX0sb+rMudYaoDec//xH//x3ate9arxOrajHk7f8R3fsXvKU54ymumvPqoCa0np//7v/473/WEPe9iyp9CcH/3oR3d/8zd/M4KrlgnW26pzoEqwzq/TTz999/jHP35U/7V00EGAAAECBAgQIECAAAECBI5GQIB1NGrH4M8U/nzlV37lCINa7lZw0NGfP/KRj9z99V//9e4///M/R0VMIVF/VlVWy7g6+vt6PVU909KvqrnqqfSLv/iL478LbQohfvZnf3YEWzWLb+e9dkPs8WrAXR+mT//0Tx+B1+te97oRaPRPP/fUpz51jP/93//9EWzd+c533v3ET/zE7v/8n/+zu/jii0cj+fe85z0jtOrP6u/0xV/8xceUdIHNS1/60tE4vddd+FZV0dOe9rQR3t0SR2Fgy0NbRnqf+9xnBEk39859BZL1/HrHO96xe/3rXz92ayzg7CjgPPnkk3df9VVfNRrZ3+Uud7klWMxJgAABAgQIECBAgAABArcyAQHWreQNbZngYx/72BEe1CdrC1QKG2qiXYVTu8D93u/93vjfgqJCrpadVT1VAFIPrUKlQpEep6Dq677u68ZOcb/6q786AovCqIKSmr4XUrRbX2FWFVlVJxU+/cM//MPuta997ejVVSjV459yyiljfIFGIVbL3qrAaileVVnNU0j2ghe8YIRDF1544ViWd6wtNSsgzLDX2rK4ek8d3DB/5SlVqNZ7k1tH/16QeXMcnUNvfOMbx3lSQ/aWT1ZpV2VVFXY1Y+89bollOwtqyn5zvAsekwABAgQIECBAgAABAiemgADrVvC+t/SvaqqajV911VWjcupQR+FLYVFLzaqsqmqmAKYKqB6jMKLlaPV2+sZv/MbdL/zCL+zudre7jSCiP6vSp3GFS/1cS8QKyJq73fBqYl4A1uM0rgbnz3ve80aVV8+tHecKpNq5r5+vwfd3f/d3737sx35s91mf9VmjOqznVTPydlO85JJLjskG8y2Tq5qtEO+Wbpre+3zNNdeM96Cw8MwzzxzWN9XRe/KP//iPY2OAQslCrMLK/ryjnlZVoRWatezzWPC4qV67xyFAgAABAgQIECBAgACBY0dAgHXsvBdH9UwKEuqDVBBU9VPL+D7RUd+idtJ72ctetrvd7W43fv6Od7zj+LFCpwKlApEf/dEfPdDX6dprr92dccYZI5iqmfnXfM3XjPFVALWssGqplhFWD1ikBAAAIABJREFUAbQdv/zLv7z7ru/6rtF361d+5VdGb6uOljW2RLHlhQVjNT/fjsKtBz7wgWP5WaFJlTyOIwu0JPOZz3zmCJjyaonjPe95z6Nm6z0toGt3xd6floMWWnUUUBU27m3KftQT+UECBAgQIECAAAECBAgQILBPAQHWPqGO1WE1WS9sqnl71Us1VN/P8Zd/+ZejWqdg4rd/+7fHEr6OwwVYjS9Uqvqo8f17R4FWFT/thlclTuHJdhwuwKrxe43PC0YKvAq+tqMwrWVoPZ/mEWDt593cjSWNBY6FT1XKPfnJT55ugt+ugdddd93oaVU/tD//8z8/0JT9cz/3c0dPst6blgq2ZFBT9v29N0YRIECAwLEv0HVUm5JUed7NvcMdVZ636243A6vEbvxnfMZnTL/Adji+4YYbxnVYrRr6XN1vS4Ku/f7iL/5i9BPVa3KafvkPtDKhtgvdwO2mYzcZO2+2o5vRteSoyr3r6naU7u+PZjOjzo0eq1UWtfDonyNdr/V8mrfnuPfonKyvqYMAAQLHmoAA61h7RyaeTx94LdmraqnKq3vd61777jvUz1YZVV+rvYGUAGviDTiGhnbx8ZjHPGYsI2ypZudDPcb2c9TzrEb9b3jDG3YFlV1kFVR2dGFcWNmulfVFO9JF/X7mMoYAAQIECBxLAt28qY9oFcd98W/H4dooHOq4/vrrdz/zMz8z+oYWeNVvtKX0VUF/4Rd+4b5fVu0e2h26+bYAq16hVdN3o+hIPSQLOJ797Gfvfud3fmfcsKrtguPYFSgU7WZt/Wi7ydz5ctZZZ41r9o7OozYIevWrX30gwOqm4Td8wzeM97d/38/RdX2rJVoVURV9YWjXho961KNGW45DtXjoZ1oh0QZA23XfNlc3pVtF4SBAgMCxJiDAOtbekYnn04dUywB/7dd+bXwQzt6pefzjHz96ZlVtU3P2DgHWxBtwjA198YtfPBrqd4F00UUX7b72a7/2iM+wC5t2huyi6YMf/OC4K9jFTHfqOh+6eKmfWr3OuvDRlP0Ye8M9HQIECBD4pAQKF+rf2U2cKqIKC9oV+aEPfejHPW6VLU94whPG7ru1XagKq/Chz8xuHPXn+/mcrMq5QOHv/u7vDvSTbLKu4e53v/uNavo2yznc0UYy9RGtAuyHf/iHx3Wb49gTqKKpa+xadhRU1p6jlhkFS7e97W3H+92YNuHpZnTvZ+fP1mO0Cqjv/M7vHL1k91OZV7/Sc889d1RvtZN3u4J3Lhe4Pv/5z7/RaodNqxuWndM9z23e/q5dttudfCaUPfbeAc+IAIFbq4AA6zh8ZysLLnioGXt3DNv1bTv6ACqYKHAoeDjc0UVXvaaqsGlHwC38EmAdhyfE//+UC6GqlqpZfxc93/d933egh1lDulBq6UO7RNZfrOCqO88dNdfvfNmastfjqgsYBwECBAgQuLUKVIFctUpL+U477bTx5f9wAVY7KNcyoZuHbU7Tz/Y5+/KXv3ws36+i/UjBU4Zdvz31qU8dS/QLGaq2amfoZzzjGSNE63P64B6ke+3rTfmkJz1p3Hjsc1uAdWyemV2Lt2NzQWXX191orqLq4KOKqaru7n3ve48qvoKqruurAiyQqpK+dhz1uD3S0XnzlKc8ZXw36Px9xCMeMYYXnNWyo/OtCvu73vWuN/q+0LVg1V+dRwVe29HS2KruHQQIEDgWBQRYx+K7coTnVDhRqe+ll146LmL2XixVVt76+v6+3QRruv7Od75z7DzYh2NN1Lu7012edhjsA7UPxi6gtqOLqO7U1NOqD9DuAHVsTdwrMe7xtw/TLtoK0rrD1Ad1H4bb0c6EfTD3od0H6tYofm8T93Ya7E7idvSBX4P4Kn8uv/zyfZdOH2dv4832dHsfcusipZL1O9zhDiOk6qK3i+Qa53chszVlb+fAqq2669v71EW5gwABAgQInEgCXct00+ZIAVY9PusF2a6729GysDalKRzo83XrJ3o4uyq+qpBu45u9AUHVXw9/+MN3f/Inf7I7/fTTx+f4wT1A+yx/znOeM/p0vfGNbxyf4wKsY/Ms7dq7pXu9r1Vedb1e4Lj3KOSqhUfBZzeP91ZZdYOxa+r//u//3r3whS8cy0Rvc5vbHPbFvvvd7x7Xcd3Q7nr7y7/8y8fYvhd0PV9VX1X1XfNvVYJVFPa8umHZ47tpeWyeS54VAQIfLyDAOo7Oij7suvNXuXF38QqE9jZm7ALswx/+8FhO2NLCGjdWBt8H6X3ve9+x5r7AogufSoOf9rSn7c4555wDAl0cPeQhDxm9kOr/8Ou//uvjYq55+/fW4hdgXXjhheMDsQ/TKnr688KwPji7+Oqiq+f3xCc+cYQohSI9n/oodfzZn/3ZqBDqORS0XXzxxQfW5vdB3wd5r+0P/uAPdvWEcOxfoAuhTPMvjOwc6P0ugKw/VudIFy/51oy9ZQ+9bzXq1JR9/85GEiBAgMCtS6BKmSMtIezzs8/JvcsE//Zv/3YEWDVU798/UdPrNrGpsqaA4eDAoMqbxz72sSOIaFfhrr/2Hi0d7AZjIVbXVz3W4QKsrtVqC9A1X0dhVzdA+++9z7+Ao+u4wpPDBSS97sa0A3FHj9Nj9997H6trxarZel0tkTtRj1Y4FD61LK9r7G4Yb7tw7zWpauqv/uqvRrB18M7R/V3XZ/W47WbyBRdccMSAqZ5onRfduC7A6tpvOwqvurnZuf2nf/qn48Zmx5VXXjmWNBZg1RO3n93aiRzqves5bb21+l3ZzrGq9/deP3YeZNA5cKTzoArGfrbzrsfuv6sCO/j3ojmbr6owBwECBBIQYB1H58HVV189PmC6cDjc0dLBH/mRHxkXNf0fflVQfXD1AdD/+XeR0l2+So0LurYPnXax60OyKp0+lPpAbe17dworVa/qqkqujnbb6TG+6Zu+aex8193Awq/m+6Iv+qJRyVPFT9VUXTT14VRg0hr/Ltz6MG3dfRdOVXh1t3HbwbDXuH1YVTpdY/ICO8f+BLqjdv75548gseayvSedL9vuMr2nBVyZFzRuFXb7e3SjCBAgQIDArVPgEwVYh3rV9b1qiVaBUr20PlEPrK3P0KHGtYSwz+ZuPHZTcAuMmrcWAdu1UjenuvHU9dTBAVahVpXwLWusUuy5z33u6I3Z43VtV5uBrtvudKc7jcb1bfjSza2ChEKSwrjt6NqhSrAqz7p+rGl8IVs3UrseLHSpOqgwrhulhSjdLOu6ouuMntuJeHTjtmWivcddgxcSHe68ONL58MhHPnL3u7/7u+Mx6lN1pHOr0LNqwK6ZC7D2NmzvMTpHO3ovH/awh41/r1pw69tW0FTAVdP2bm5vwWfjuq5s+Ww/WxDX94Jaj9Rbq2CzG82FdLUk6TwoSKvPW98jOg+64d31aEffCbpJXiVY513nU98Xunnd6ozOy36+59Y51g3tKhv7vtDqjBe96EV2Jz8Rf6m8ZgIHCQiwbuWnRB+OXfh0l6cPkC44avLtuHUK9CFftVxhZP/enazuaLWE9HGPe9y4AHAQIECAAAECNxaYCbC2lg3dICwYqo/QwUv+Zn37Ul8QVujUEsOtEqUv/YUgtX8oSOgzvZtRBwdYVWj1c/Xzqgq7EKBqm24mdrOya8GWpD396U8f4Vgbv3RTsxuQ/V2hxbYrda0GCrPqmdn89cesdURBWOHIv/zLv4zwoj8rEKmfV0fVWh/60IdGlVZBzrd927fNMhzX4/OtLUbXYQVCBTD5X3PNNePmbwFTN2yrrjtSINVNx1NPPXW85+0SWFuNwx29fwWa3RjuPdu7TLCfKTBqOWPvSYFj51g3igsY20igm9C9n/1Z58nWOL7vClVsdU4VSPXztRy5+93vPm6SFnoVMlVt1aZBPd555503zoF+Jz7wgQ+Mc6UArtfdcspee4/ZudPvS+dH1YZbUNbzKBDr3GxZY88pp87PHrMVH93UttzxuP418eQJfNICAqxPmtADEDi2BK677rpxx7W7Zt0ZrSKusnAf+MfW++TZECBAgMCxI7DfAKsv/FWF1DC7L/KFRH1x7wv30S5zKhCrhUNVKFXQtKyro9DgJS95yQjImm9rq3CoAGvrd9nzqLKmZWRVAhUSFKZUOVP1VcFEQUTN4pvn+uuvH0ve+t+qZRrXvIUJLVnseqIKrYKNJz/5ySPA6LlUrVO1VS0qqto588wzRxuL/r2q/pbAFZ6cSEetMap2eutb3zqWk9aO4x73uMcIbwoYC3XaAbxKogKtwx0FRlXQdeOx0GlvNd7BP1O403vQYxdOdb7sPVqGePbZZ48wqOqmKu22o5vc/dwVV1wxQrfO5/6scVUUFsh1Ldn5fdlll43zqBCqIOnOd77zCDSrCGzzqFaI9NqrICxA7VwpEC3Q6/V2rjSu86kQqnlaydH50vPPrIqtKrI6L3NqSW2VXLUuKSQtyOv3w+6IJ9JvlddK4OMFBFjOCgK3MoHu3HUHtIuDvX0QbmUv08shQIAAAQI3mcB+A6yqaf7wD/9wtFyoj1BfyvtyXtDQxjVHc/R4fVmvoqsQqcqVPsOrVum/+6e/345DBVj9XZ//Neau72iBUksAt+VkVVMVXBV0FVTs7THa865SptCgCp5ueDV/VVQFEDWvf9vb3nYgoKvKppYRhScFEgUX227W/Xfh2O1ud7vR6/RE6ofV+5VF/dCe9axnjV0qq2zrfXnlK185QsBcWzpXqHSoo/CwICfvloO2PPBIRxV3va9d99UepCWee4+CoarkquaqIuxwSzsLjgo4Cyd7zq3c2Pqw9Z4WhraMtQCpELOjCq5eb+dTY5p/qyxriWoVep2HhWNbCFeD+kLVzrEqCreNpArYaoHRuVuVYEHq9ljdmK3KrNYnzV/g5SBA4MQVEGCduO+9V06AAAECBAgQILDbjQDmSE3cN6TCiAKcgqAqjFpi1Zf/vmAXOlStNHNU6VQT7Spa6l217UZX5UtVTlV41UN07y51hwuwmrfqmMKoc889d4QR21GlTQFEQUe7JtZvaDuqtnne8563+5Zv+ZaxZG0Lnep/WkDREsI24Nl7FCL0OAUKLXHcjn6+KrBCkHbHa8njiXIU2rSMr2CvULL3dTuqTmspXxvrFOAUDh7qKLTqPSzIKXjagsHDGVbdVZuI+p8VRBYk7T0K1Wom31LQep713hzqKFgrnK3fVv9bxdgWshVqdi72enp/t6b0zdnrLcitR1bVWdtRcFY41VLWKrG2Jbave93rxpLCKqvqsbvtft3vUwFblVZVgBUAbkfnbHNuuyzu3T39RDm3vE4CBP6fgADL2UCAAAECBAgQIHBCC+w3wNqL1Jf+Kq/64t2SsL1fyPeDWdXJM5/5zBF8tfPy3qVihWMFGC1DK9zaexQi9LNV57TUrGCq5VgdRwqw6oNZkFV1zScbYDV3uy/2XARY/9+7U5BT4Fd/soMDrJbjVeHUssyWV9a0/+Bzqaq+AqaW4VWNt5+jMLVgpxD1UD2wCtWq3quHVM3W94ZMBz9+4WxL+lqG2IZLLUnsOFKA1estlDq459knE2C1ZLDfqe0QYO3nTDCGwIkjIMA6cd5rr5QAAQIECBAgQOAQAkcTYPUwhUFVmXTUG+vkk0/el29LxS699NLxM228slWibD9c8HDWWWcd8rHqmVV41nPun0KPgrQOAda++G+WQYU2hUj1SSsEqg/UdvSe/dzP/dxYDlpv0sKuvUehV8FNlUrtJr7t3LefJ1q1XUsU27mwQHFvtV5VfZ0TLSVt98Ctv9rhHrcqrSqg2nVyO/8EWPt5F4whQGCVgABrlbR5CBAgQIAAAQIEjkmBow2wqmiqGqk+WO3e19K5/RxVrNQDqH4/VVHtXSpWVU07vNWM/VBHvZVaOvbwhz9894hHPGJU4LRrnQBrP/I335hCqAKsq666avSDquJpb4DVf1fhVIhVY/PtaLlof1Z4VZP1GsBvR0HlFlYe7pnXTL1lie0GWIB1l7vc5cDQdrXsnzbzqVfVkTYaqAKr/mUtB6wabHseAqyb75zxyAQIzAsIsObN/AQBAgQIECBAgMCtSOBoA6yWgrV8r95B9araGk8XOtR3qMqX29zmNjeSKiB48YtfPCqw2i14b3j1jne8Y/fsZz97VMsc7jhSD6yCk4svvnhU49R7aDu2Hlj1Zzp4CWE7ybW0rR5Y9bQqjOvYemD1HKsu2nsUmNUD6+AlhP18Ic2J2AOrAKilb+2yd7e73W0sDd16gLWEsL8ruKoP1mmnnTY4/+3f/m30lyos6j3Y2zOsZX+dJzVTLxjrqHKvgHNvhVbnWQ3OP+VTPmW8H9tj9+edl/VC65yoIf+Rjpru12j+QQ960DiXt6N+XD1OPbB6f29/+9uPv9rbA6t5az6/HfVMe8ADHjAeq2qurQfWtqSxHlhVHxasdeztgdVSy34HtqNztjnbTKD5e1wHAQInroAA68R9771yAgQIECBAgMAJL1DlzB3veMfRgP2SSy4ZQc4WRG04fXGuz1CNrat4ahe1KmdqgN5ubFdcccWNGrjX26pAokCg0KJlXYUYVV5VZXPGGWfs7nnPex6wL/Cq6qrqnXYDbFnh4Y7DBVj/8z//M+Zr17f6YvVYPc+O97znPbsHPvCBu5qJv/Od79x92Zd92fjzlrbV66gqm5aMFUQUNhTGFHq0/KweXO0Et+1oWIiSwfve975RZdTPF8L1MwUuLYErwLr66qt3d73rXU+o86vdHuth9d73vneEQC0j7D1oZ8KauNdwPbPOtc67KvAKcgqxDq7CKyB817veNSrxOldqit+43r92MuzxtqP/bgfKzrt28ysgKlytsftnf/Znj9Bse/zOx5e+9KXjXOlc77m0m2ZLBwvUOkf7mY7Oy5YV9rgFY/0etANlR6+pHlg1im9M1Vvb782rXvWqEeze5z732bXzYLti91g1qe959vwuu+yycZ52/Md//MeoQiss6+/rwbU935rK9zidh/3913/913/c7+cJdZJ5sQROcAEB1gl+Anj5BAgQIECAAIETUeCjH/3o7i1vecsIfFqG1VGVSU2vC3O2L/H9eT2q6m3UnxU+9WW6ZXx9ES+EqOJm71HlSY3Ya9jdl/kCnSqi2rWwipLDHY0rbNgCpkON2wKsQoVtt7YaXRdiFI4UqPU49VRqB7oqrqroKhQoRKg6qyVnVe0UjlTx8v73v3+EDAUuLU289tprR5jXsrNCiR6rpvJVBRXW9d8FVoUahSr9TM28m79Ao50MCzeq3Om1VB10ohyZ1YS986MG94Wj7eqXQW551IS/SrV6VGV6uKOQqkq9NgkokKwSq+CrEPSiiy468GNVWxUeNk8/U0VX512P/dM//dMHQqd+oPOmEGtrAF/IWIBUKNny1AKq3vN2yOxcrBqqc6hzvyqu3tf/+q//GpVVhZyFXv1+bK+t35N6shWgdR50ztcnruCzXRKrwsqi55lB1WTN006YN9xww+52t7vdCMRamlvg2s9cfvnlIwgscGsXw4c85CEnyunkdRIgcJCAAMspQYAAAQIECBAgcMIJFGC11KnldQU7HX1xr9KokGpvgFWVTMFMX+qrpirsOeWUU8YSwEP1vSrMqcdVO/8V7lRNUiVJVTVHOnqsQrRtGd+hxla5UmBRNc8WdBVgFUYVEvRaeh2FBy23Knzo77fX2GP22gqwWrLYY21/13LHHrOKq4P/vPEFIgUUVW5tR1495ze96U27j3zkIwceq9ec0YkWYOWSXx7XX3/9CGsKhzoXCot6b1oy186TBUdHOrLrfe4xqtAraK26qyqlgzcM6Hyu6q33tMe9xz3uMaqV6om1t7qrx3nta187zsWeS+dy53H/7N0Js3O9gLeAau/5USP4AriWHG7hW4/Tz7bMr/Ojn9mO/q5dLztn+l0r+OzYXOrLVWBaBeF2dO72+gqwCrW2n+mxTjrppHG+OQgQODEFBFgn5vvuVRMgQIAAAQIECEwI9AW7qpXCgKpBjlRV1BfulgxWoXVwD6yJKQ09jgUKbDpnCl06D/aGSEf7sgooe9zDNWMvaCpU6jwtWDzcOdr52WN1dC47R4/2HfFzBAisFhBgrRY3HwECBAgQIECAAAECBAgQIECAwJSAAGuKy2ACBAgQIECAAAECBAgQIECAAIHVAgKs1eLmI0CAAAECBAgQIECAAAECBAgQmBIQYE1xGUyAAAECBAgQIECAAAECBAgQILBaQIC1Wtx8BAgQIECAAAECBAgQIECAAAECUwICrCkugwkQIECAAAECBAgQIECAAAECBFYLCLBWi5uPAAECBAgQIECAAAECBAgQIEBgSkCANcVlMAECBAgQIECAAAECBAgQIECAwGoBAdZqcfMRIECAAAECBAgQIECAAAECBAhMCQiwprgMJkCAAAECBAgQIECAAAECBAgQWC0gwFotbj4CBAgQIECAAAECBAgQIECAAIEpAQHWFJfBBAgQIECAAAECBAgQIECAAAECqwUEWKvFzUeAAAECBAgQIECAAAECBAgQIDAlIMCa4jKYAAECBAgQIECAAAECBAgQIEBgtYAAa7W4+QgQIECAAAECBAgQIECAAAECBKYEBFhTXAYTIECAAAECBAgQIECAAAECBAisFhBgrRY3HwECBAgQIECAAAECBAgQIECAwJSAAGuKy2ACBAgQIECAAAECBAgQIECAAIHVAgKs1eLmI0CAAAECBAgQIECAAAECBAgQmBIQYE1xGUyAAAECBAgQIECAAAECBAgQILBaQIC1Wtx8BAgQIECAAAECBAgQIECAAAECUwICrCkugwkQIECAAAECBAgQIECAAAECBFYLCLBWi5uPAAECBAgQIECAAAECBAgQIEBgSkCANcVlMAECBAgQIECAAAECBAgQIECAwGoBAdZqcfMRIECAAAECBAgQIECAAAECBAhMCQiwprgMJkCAAAECBAgQIECAAAECBAgQWC0gwFotbj4CBAgQIECAAAECBAgQIECAAIEpAQHWFJfBBAgQIECAAAECBAgQIECAAAECqwUEWKvFzUeAAAECBAgQIECAAAECBAgQIDAlIMCa4jKYAAECBAgQIECAAAECBAgQIEBgtYAAa7W4+QgQIECAAAECBAgQIECAAAECBKYEBFhTXAYTIECAAAECBAgQIECAAAECBAisFhBgrRY3HwECBAgQIECAAAECBAgQIECAwJSAAGuKy2ACBAgQIECAAAECBAgQIECAAIHVAgKs1eLmI0CAAAECBAgQIECAAAECBAgQmBIQYE1xGUyAAAECBAgQIECAAAECBAgQILBaQIC1Wtx8BAgQIECAAAECBAgQIECAAAECUwICrCkugwkQIECAAAECBAgQIECAAAECBFYLCLBWi5uPAAECBAgQIECAAAECBAgQIEBgSkCANcVlMAECBAgQIECAAAECBAgQIECAwGoBAdZqcfMRIECAAAECBAgQIECAAAECBAhMCQiwprgMJkCAAAECBAgQIECAAAECBAgQWC0gwFotbj4CBAgQIECAAAECBAgQIECAAIEpAQHWFJfBBAgQIECAAAECBAgQIECAAAECqwUEWKvFzUeAAAECBAgQIECAAAECBAgQIDAlIMCa4jKYAAECBAgQIECAAAECBAgQIEBgtYAAa7W4+QgQIECAAAECBAgQIECAAAECBKYEBFhTXAYTIECAAAECBAgQIECAAAECBAisFhBgrRY3HwECBAgQIECAAAECBAgQIECAwJSAAGuKy2ACBAgQIECAAAECBAgQIECAAIHVAgKs1eLmI0CAAAECBAgQIECAAAECBAgQmBIQYE1xGUyAAAECBAgQIECAAAECBAgQILBaQIC1Wtx8BAgQIECAAAECBAgQIECAAAECUwICrCkugwkQIECAAAECBAgQIECAAAECBFYLCLBWi5uPAAECBAgQIECAAAECBAgQIEBgSkCANcVlMAECBAgQIECAAAECBAgQIECAwGoBAdZqcfMRIECAAAECBAgQIECAAAECBAhMCQiwprgMJkCAAAECBAgQIECAAAECBAgQWC0gwFotbj4CBAgQIECAAAECBAgQIECAAIEpAQHWFJfBBAgQIECAAAECBAgQIECAAAECqwUEWKvFzUeAAAECBAgQIECAAAECBAgQIDAlIMCa4jKYAAECBAgQIECAAAECBAgQIEBgtYAAa7W4+QgQIECAAAECBAgQIECAAAECBKYEBFhTXAYTIECAAAECBAgQIECAAAECBAisFhBgrRY3HwECBAgQIECAAAECBAgQIECAwJSAAGuKy2ACBAgQIECAAAECBAgQIECAAIHVAgKs1eLmI0CAAAECBAgQIECAAAECBAgQmBIQYE1xGUyAAAECBAgQIECAAAECBAgQILBaQIC1Wtx8BAgQIECAAAECBAgQIECAAAECUwICrCkugwkQIECAAAECBAgQIECAAAECBFYLCLBWi5uPAAECBAgQIECAAAECBAgQIEBgSkCANcVlMAECBAgQIECAAAECBAgQIECAwGoBAdZqcfMRIECAAAECBAgQIECAAAECBAhMCQiwprgMJkCAAAECBAgQIECAAAECBAgQWC0gwFotbj4CBAgQIECAAAECBAgQIECAAIEpAQHWFJfBBAgQIECAAAECBAgQIECAAAECqwUEWKvFzUeAAAECBAgQIECAAAECBAgQIDAlIMCa4jKYAAECBAgQIECAAAECBAgQIEBgtYAAa7W4+QgQIECAAAECBAgQIECAAAECBKYEBFhTXAYTIECAAAECBAgQIECAAAECBAisFhBgrRY3HwECBAgQIECAAAECBAgQIECAwJSAAGuKy2ACBAgQIECAAAECBAgQIECAAIHVAgKs1eLmI0CAAAECBAgQIECAAAECBAgQmBIQYE1xGUyAAAECBAgQIECAAAECBAgQILBaQIC1Wtx8BAgQIECAAAECBAgQIEBwruWzAAAcB0lEQVSAAAECUwICrCkugwkQIECAAAECBAgQIECAAAECBFYLCLBWi5uPAAECBAgQIECAAAECBAgQIEBgSkCANcVlMAECBAgQIECAAAECBAgQIECAwGoBAdZqcfMRIECAAAECBAgQIECAAAECBAhMCQiwprgMJkCAAAECBAgQIECAAAECBAgQWC0gwFotbj4CBAgQIECAAAECBAgQIECAAIEpAQHWFJfBBAgQIECAAAECBAgQIECAAAECqwUEWKvFzUeAAAECBAgQIECAAAECBAgQIDAlIMCa4jKYAAECBAgQIECAAAECBAgQIEBgtYAAa7W4+QgQIECAAAECBAgQIECAAAECBKYEBFhTXAYTIECAAAECBAgQIECAAAECBAisFhBgrRY3HwECBAgQIECAAAECBAgQIECAwJSAAGuKy2ACBAgQIECAAAECBAgQIECAAIHVAgKs1eLmI0CAAAECBAgQIECAAAECBAgQmBIQYE1xGUyAAAECBAgQIECAAAECBAgQILBaQIC1Wtx8BAgQIECAAAECBAgQIECAAAECUwICrCkugwkQIECAAAECBAgQIECAAAECBFYLCLBWi5uPAAECBAgQIECAAAECBAgQIEBgSkCANcVlMAECBAgQIECAAAECBAgQIECAwGoBAdZqcfMRIECAAAECBAgQIECAAAECBAhMCQiwprgMJkCAAAECBAgQIECAAAECBAgQWC0gwFotbj4CBAgQIECAAAECBAgQIECAAIEpAQHWFJfBBAgQIECAAAECBAgQIECAAAECqwUEWKvFzUeAAAECBAgQIECAAAECBAgQIDAlIMCa4jKYAAECBAgQIECAAAECBAgQIEBgtYAAa7W4+QgQIECAAAECBAgQIECAAAECBKYEBFhTXAYTIECAAAECBAgQIECAAAECBAisFhBgrRY3HwECBAgQIECAAAECBAgQIECAwJSAAGuKy2ACBAgQIECAAAECBAgQIECAAIHVAgKs1eLmI0CAAAECBAgQIECAAAECBAgQmBIQYE1xGUyAAAECBAgQIECAAAECBAgQILBaQIC1Wtx8BAgQIECAAAECBAgQIECAAAECUwICrCkugwkQIECAAAECBAgQIECAAAECBFYLCLBWi5uPAAECBAgQIECAAAECBAgQIEBgSkCANcVlMAECBAgQIECAAAECBAgQIECAwGoBAdZqcfMRIECAAAECBAgQIECAAAECBAhMCQiwprgMJkCAAAECBAgQIECAAAECBAgQWC0gwFotbj4CBAgQIECAAAECBAgQIECAAIEpAQHWFJfBBAgQIECAAAECBAgQIECAAAECqwUEWKvFzUeAAAECBAgQIECAAAECBAgQIDAlIMCa4jKYAAECBAgQIECAAAECBAgQIEBgtYAAa7W4+QgQIECAAAECBAgQIECAAAECBKYEBFhTXAYTIECAAAECBAgQIECAAAECBAisFhBgrRY3HwECBAgQIECAAAECBAgQIECAwJSAAGuKy2ACBAgQIECAAAECBAgQIECAAIHVAgKs1eLmI0CAAAECBAgQIECAAAECBAgQmBIQYE1xGUyAAAECBAgQIECAAAECBAgQILBaQIC1Wtx8BAgQIECAAAECBAgQIECAAAECUwICrCkugwkQIECAAAECBAgQIECAAAECBFYLCLBWi5uPAAECBAgQIECAAAECBAgQIEBgSkCANcVlMAECBAgQIECAAAECBAgQIECAwGoBAdZqcfMRIECAAAECBAgQIECAAAECBAhMCQiwprgMJkCAAAECBAgQIECAAAECBAgQWC0gwFotbj4CBAgQIECAAAECBAgQIECAAIEpAQHWFJfBBAgQIECAAAECBAgQIECAAAECqwUEWKvFzUeAAAECBAgQIECAAAECBAgQIDAlIMCa4jKYAAECBAgQIECAAAECBAgQIEBgtYAAa7W4+QgQIECAAAECBAgQIECAAAECBKYEBFhTXAYTIECAAAECBAgQIECAAAECBAisFhBgrRY3HwECBAgQIECAAAECBAgQIECAwJSAAGuKy2ACBAgQIECAAAECBAgQIECAAIHVAgKs1eLmI0CAAAECBAgQIECAAAECBAgQmBIQYE1xGUyAAAECBAgQIECAAAECBAgQILBaQIC1Wtx8BAgQIECAAAECBAgQIECAAAECUwICrCkugwkQIECAAAECBAgQIECAAAECBFYLCLBWi5uPAAECBAgQIECAAAECBAgQIEBgSkCANcVlMAECBAgQIECAAAECBAgQIECAwGoBAdZqcfMRIECAAAECBAgQIECAAAECBAhMCQiwprgMJkCAAAECBAgQIECAAAECBAgQWC0gwFotbj4CBAgQIECAAAECBAgQIECAAIEpAQHWFJfBBAgQIECAAAECBAgQIECAAAECqwUEWKvFzUeAAAECBAgQIECAAAECBAgQIDAlIMCa4jKYAAECBAgQIECAAAECBAgQIEBgtYAAa7W4+QgQIECAAAECBAgQIECAAAECBKYEBFhTXAYTIECAAAECBAgQIECAAAECBAisFhBgrRY3HwECBAgQIECAAAECBAgQIECAwJSAAGuKy2ACBAgQIECAAAECBAgQIECAAIHVAgKs1eLmI0CAAAECBAgQIECAAAECBAgQmBIQYE1xGUyAAAECBAgQIECAAAECBAgQILBaQIC1Wtx8BAgQIECAAAECBAgQIECAAAECUwICrCkugwkQIECAAAECBAgQIECAAAECBFYLCLBWi5uPAAECBAgQIECAAAECBAgQIEBgSkCANcVlMAECBAgQIECAAAECBAgQIECAwGoBAdZqcfMRIECAAAECBAgQIECAAAECBAhMCQiwprgMJkCAAAECBAgQIECAAAECBAgQWC0gwFotbj4CBAgQIECAAAECBAgQIECAAIEpAQHWFJfBBAgQIECAAAECBAgQIECAAAECqwUEWKvFzUeAAAECBAgQIECAAAECBAgQIDAlIMCa4jKYAAECBAgQIECAAAECBAgQIEBgtYAAa7W4+QgQIECAAAECBAgQIECAAAECBKYEBFhTXAYTIECAAAECBAgQIECAAAECBAisFhBgrRY3HwECBAgQIECAAAECBAgQIECAwJSAAGuKy2ACBAgQIECAAAECBAgQIECAAIHVAgKs1eLmI0CAAAECBAgQIECAAAECBAgQmBIQYE1xGUyAAAECBAgQIECAAAECBAgQILBaQIC1Wtx8BAgQIECAAAECBAgQIECAAAECUwICrCkugwkQIECAAAECBAgQIECAAAECBFYLCLBWi5uPAAECBAgQIECAAAECBAgQIEBgSkCANcVlMAECBAgQIECAAAECBAgQIECAwGoBAdZqcfMRIECAAAECBAgQIECAAAECBAhMCQiwprgMJkCAAAECBAgQIECAAAECBAgQWC0gwFotbj4CBAgQIECAAAECBAgQIECAAIEpAQHWFJfBBAgQIECAAAECBAgQIECAAAECqwUEWKvFzUeAAAECBAgQIECAAAECBAgQIDAlIMCa4jKYAAECBAgQIECAAAECBAgQIEBgtYAAa7W4+QgQIECAAAECBAgQIECAAAECBKYEBFhTXAYTIECAAAECBAgQIECAAAECBAisFhBgrRY3HwECBAgQIECAAAECBAgQIECAwJSAAGuKy2ACBAgQIECAAAECBAgQIECAAIHVAgKs1eLmI0CAAAECBAgQIECAAAECBAgQmBIQYE1xGUyAAAECBAgQIECAAAECBAgQILBaQIC1Wtx8BAgQIECAAAECBAgQIECAAAECUwICrCkugwkQIECAAAECBAgQIECAAAECBFYLCLBWi5uPAAECBAgQIECAAAECBAgQIEBgSkCANcVlMAECBAgQIECAAAECBAgQIECAwGoBAdZqcfMRIECAAAECBAgQIECAAAECBAhMCQiwprgMJkCAAAECBAgQIECAAAECBAgQWC0gwFotbj4CBAgQIECAAAECBAgQIECAAIEpAQHWFJfBBAgQIECAAAECBAgQIECAAAECqwUEWKvFzUeAAAECBAgQIECAAAECBAgQIDAlIMCa4jKYAAECBAgQIECAAAECBAgQIEBgtYAAa7W4+QgQIECAAAECBAgQIECAAAECBKYEBFhTXAYTIECAAAECBAgQIECAAAECBAisFhBgrRY3HwECBAgQIECAAAECBAgQIECAwJSAAGuKy2ACBAgQIECAAAECBAgQIECAAIHVAgKs1eLmI0CAAAECBAgQIECAAAECBAgQmBIQYE1xGUyAAAECBAgQIECAAAECBAgQILBaQIC1Wtx8BAgQIECAAAECBAgQIECAAAECUwICrCkugwkQIECAAAECBAgQIECAAAECBFYLCLBWi5uPAAECBAgQIECAAAECBAgQIEBgSkCANcVlMAECBAgQIECAAAECBAgQIECAwGoBAdZqcfMRIECAAAECBAgQIECAAAECBAhMCQiwprgMJkCAAAECBAgQIECAAAECBAgQWC0gwFotbj4CBAgQIECAAAECBAgQIECAAIEpAQHWFJfBBAgQIECAAAECBAgQIECAAAECqwUEWKvFzUeAAAECBAgQIECAAAECBAgQIDAlIMCa4jKYAAECBAgQIECAAAECBAgQIEBgtYAAa7W4+QgQIECAAAECBAgQIECAAAECBKYEBFhTXAYTIECAAAECBAgQIECAAAECBAisFhBgrRY3HwECBAgQIECAAAECBAgQIECAwJSAAGuKy2ACBAgQIECAAAECBAgQIECAAIHVAgKs1eLmI0CAAAECBAgQIECAAAECBAgQmBIQYE1xGUyAAAECBAgQIECAAAECBAgQILBaQIC1Wtx8BAgQIECAAAECBAgQIECAAAECUwICrCkugwkQIECAAAECBAgQIECAAAECBFYLCLBWi5uPAAECBAgQIECAAAECBAgQIEBgSkCANcVlMAECBAgQIECAAAECBAgQIECAwGoBAdZqcfMRIECAAAECBAgQIECAAAECBAhMCQiwprgMJkCAAAECBAgQIECAAAECBAgQWC0gwFotbj4CBAgQIECAAAECBAgQIECAAIEpAQHWFJfBBAgQIECAAAECBAgQIECAAAECqwUEWKvFzUeAAAECBAgQIECAAAECBAgQIDAlIMCa4jKYAAECBAgQIECAAAECBAgQIEBgtYAAa7W4+QgQIECAAAECBAgQIECAAAECBKYEBFhTXAYTIECAAAECBAgQIECAAAECBAisFhBgrRY3HwECBAgQIECAAAECBAgQIECAwJSAAGuKy2ACBAgQIECAAAECBAgQIECAAIHVAgKs1eLmI0CAAAECBAgQIECAAAECBAgQmBIQYE1xGUyAAAECBAgQIECAAAECBAgQILBaQIC1Wtx8BAgQIECAAAECBAgQIECAAAECUwICrCkugwkQIECAAAECBAgQIECAAAECBFYLCLBWi5uPAAECBAgQIECAAAECBAgQIEBgSkCANcVlMAECBAgQIECAAAECBAgQIECAwGoBAdZqcfMRIECAAAECBAgQIECAAAECBAhMCQiwprgMJkCAAAECBAgQIECAAAECBAgQWC0gwFotbj4CBAgQIECAAAECBAgQIECAAIEpAQHWFJfBBAgQIECAAAECBAgQIECAAAECqwUEWKvFzUeAAAECBAgQIECAAAECBAgQIDAlIMCa4jKYAAECBAgQIECAAAECBAgQIEBgtYAAa7W4+QgQIECAAAECBAgQIECAAAECBKYEBFhTXAYTIECAAAECBAgQIECAAAECBAisFhBgrRY3HwECBAgQIECAAAECBAgQIECAwJSAAGuKy2ACBAgQIECAAAECBAgQIECAAIHVAgKs1eLmI0CAAAECBAgQIECAAAECBAgQmBIQYE1xGUyAAAECBAgQIECAAAECBAgQILBaQIC1Wtx8BAgQIECAAAECBAgQIECAAAECUwICrCkugwkQIECAAAECBAgQIECAAAECBFYLCLBWi5uPAAECBAgQIECAAAECBAgQIEBgSkCANcVlMAECBAgQIECAAAECBAgQIECAwGoBAdZqcfMRIECAAAECBAgQIECAAAECBAhMCQiwprgMJkCAAAECBAgQIECAAAECBAgQWC0gwFotbj4CBAgQIECAAAECBAgQIECAAIEpAQHWFJfBBAgQIECAAAECBAgQIECAAAECqwUEWKvFzUeAAAECBAgQIECAAAECBAgQIDAlIMCa4jKYAAECBAgQIECAAAECBAgQIEBgtYAAa7W4+QgQIECAAAECBAgQIECAAAECBKYEBFhTXAYTIECAAAECBAgQIECAAAECBAisFhBgrRY3HwECBAgQIECAAAECBAgQIECAwJSAAGuKy2ACBAgQIECAAAECBAgQIECAAIHVAgKs1eLmI0CAAAECBAgQIECAAAECBAgQmBIQYE1xGUyAAAECBAgQIECAAAECBAgQILBaQIC1Wtx8BAgQIECAAAECBAgQIECAAAECUwICrCkugwkQIECAAAECBAgQIECAAAECBFYLCLBWi5uPAAECBAgQIECAAAECBAgQIEBgSkCANcVlMAECBAgQIECAAAECBAgQIECAwGoBAdZqcfMRIECAAAECBAgQIECAAAECBAhMCQiwprgMJkCAAAECBAgQIECAAAECBAgQWC0gwFotbj4CBAgQIECAAAECBAgQIECAAIEpAQHWFJfBBAgQIECAAAECBAgQIECAAAECqwUEWKvFzUeAAAECBAgQIECAAAECBAgQIDAlIMCa4jKYAAECBAgQIECAAAECBAgQIEBgtYAAa7W4+QgQIECAAAECBAgQIECAAAECBKYEBFhTXAYTIECAAAECBAgQIECAAAECBAisFhBgrRY3HwECBAgQIECAAAECBAgQIECAwJSAAGuKy2ACBAgQIECAAAECBAgQIECAAIHVAgKs1eLmI0CAAAECBAgQIECAAAECBAgQmBIQYE1xGUyAAAECBAgQIECAAAECBAgQILBaQIC1Wtx8BAgQIECAAAECBAgQIECAAAECUwICrCkugwkQIECAAAECBAgQIECAAAECBFYLCLBWi5uPAAECBAgQIECAAAECBAgQIEBgSkCANcVlMAECBAgQIECAAAECBAgQIECAwGoBAdZqcfMRIECAAAECBAgQIECAAAECBAhMCQiwprgMJkCAAAECBAgQIECAAAECBAgQWC0gwFotbj4CBAgQIECAAAECBAgQIECAAIEpAQHWFJfBBAgQIECAAAECBAgQIECAAAECqwUEWKvFzUeAAAECBAgQIECAAAECBAgQIDAlIMCa4jKYAAECBAgQIECAAAECBAgQIEBgtYAAa7W4+QgQIECAAAECBAgQIECAAAECBKYEBFhTXAYTIECAAAECBAgQIECAAAECBAisFhBgrRY3HwECBAgQIECAAAECBAgQIECAwJSAAGuKy2ACBAgQIECAAAECBAgQIECAAIHVAgKs1eLmI0CAAAECBAgQIECAAAECBAgQmBIQYE1xGUyAAAECBAgQIECAAAECBAgQILBaQIC1Wtx8BAgQIECAAAECBAgQIECAAAECUwICrCkugwkQIECAAAECBAgQIECAAAECBFYLCLBWi5uPAAECBAgQIECAAAECBAgQIEBgSkCANcVlMAECBAgQIECAAAECBAgQIECAwGoBAdZqcfMRIECAAAECBAgQIECAAAECBAhMCQiwprgMJkCAAAECBAgQIECAAAECBAgQWC0gwFotbj4CBAgQIECAAAECBAgQIECAAIEpAQHWFJfBBAgQIECAAAECBAgQIECAAAECqwUEWKvFzUeAAAECBAgQIECAAAECBAgQIDAlIMCa4jKYAAECBAgQIECAAAECBAgQIEBgtYAAa7W4+QgQIECAAAECBAgQIECAAAECBKYEBFhTXAYTIECAAAECBAgQIECAAAECBAisFhBgrRY3HwECBAgQIECAAAECBAgQIECAwJSAAGuKy2ACBAgQIECAAAECBAgQIECAAIHVAgKs1eLmI0CAAAECBAgQIECAAAECBAgQmBIQYE1xGUyAAAECBAgQIECAAAECBAgQILBaQIC1Wtx8BAgQIECAAAECBAgQIECAAAECUwICrCkugwkQIECAAAECBAgQIECAAAECBFYLCLBWi5uPAAECBAgQIECAAAECBAgQIEBgSkCANcVlMAECBAgQIECAAAECBAgQIECAwGoBAdZqcfMRIECAAAECBAgQIECAAAECBAhMCQiwprgMJkCAAAECBAgQIECAAAECBAgQWC0gwFotbj4CBAgQIECAAAECBAgQIECAAIEpAQHWFJfBBAgQIECAAAECBAgQIECAAAECqwUEWKvFzUeAAAECBAgQIECAAAECBAgQIDAlIMCa4jKYAAECBAgQIECAAAECBAgQIEBgtYAAa7W4+QgQIECAAAECBAgQIECAAAECBKYEBFhTXAYTIECAAAECBAgQIECAAAECBAisFhBgrRY3HwECBAgQIECAAAECBAgQIECAwJSAAGuKy2ACBAgQIECAAAECBAgQIECAAIHVAgKs1eLmI0CAAAECBAgQIECAAAECBAgQmBIQYE1xGUyAAAECBAgQIECAAAECBAgQILBaQIC1Wtx8BAgQIECAAAECBAgQIECAAAECUwICrCkugwkQIECAAAECBAgQIECAAAECBFYLCLBWi5uPAAECBAgQIECAAAECBAgQIEBgSkCANcVlMAECBAgQIECAAAECBAgQIECAwGoBAdZqcfMRIECAAAECBAgQIECAAAECBAhMCQiwprgMJkCAAAECBAgQIECAAAECBAgQWC0gwFotbj4CBAgQIECAAAECBAgQIECAAIEpAQHWFJfBBAgQIECAAAECBAgQIECAAAECqwUEWKvFzUeAAAECBAgQIECAAAECBAgQIDAlIMCa4jKYAAECBAgQIECAAAECBAgQIEBgtYAAa7W4+QgQIECAAAECBAgQIECAAAECBKYEBFhTXAYTIECAAAECBAgQIECAAAECBAisFhBgrRY3HwECBAgQIECAAAECBAgQIECAwJSAAGuKy2ACBAgQIECAAAECBAgQIECAAIHVAgKs1eLmI0CAAAECBAgQIECAAAECBAgQmBIQYE1xGUyAAAECBAgQIECAAAECBAgQILBaQIC1Wtx8BAgQIECAAAECBAgQIECAAAECUwICrCkugwkQIECAAAECBAgQIECAAAECBFYLCLBWi5uPAAECBAgQIECAAAECBAgQIEBgSkCANcVlMAECBAgQIECAAAECBAgQIECAwGoBAdZqcfMRIECAAAECBAgQIECAAAECBAhMCQiwprgMJkCAAAECBAgQIECAAAECBAgQWC0gwFotbj4CBAgQIECAAAECBAgQIECAAIEpAQHWFJfBBAgQIECAAAECBAgQIECAAAECqwUEWKvFzUeAAAECBAgQIECAAAECBAgQIDAlIMCa4jKYAAECBAgQIECAAAECBAgQIEBgtYAAa7W4+QgQIECAAAECBAgQIECAAAECBKYEBFhTXAYTIECAAAECBAgQIECAAAECBAisFvi/bgFt49bRyYwAAAAASUVORK5CYII=;" vertex="1" parent="1">
          <mxGeometry x="60" y="120" width="1200" height="840" as="geometry" />
        </mxCell>
      </root>
    </mxGraphModel>
  </diagram>
</mxfile>
